<mxfile host="app.diagrams.net" modified="2024-01-23T13:20:44.209Z" agent="Mozilla/5.0 (Windows NT 10.0; Win64; x64) AppleWebKit/537.36 (KHTML, like Gecko) Chrome/120.0.0.0 Safari/537.36" etag="5n8WM56UIosvBrpvyJHs" version="22.1.21" type="github">
  <diagram name="Page-1" id="GYYgqmN0B3OGf4GMLbNA">
    <mxGraphModel dx="2927" dy="19" grid="1" gridSize="10" guides="1" tooltips="1" connect="1" arrows="1" fold="1" page="1" pageScale="1" pageWidth="827" pageHeight="1169" math="0" shadow="0">
      <root>
        <mxCell id="0" />
        <mxCell id="1" parent="0" />
        <mxCell id="mPk6AamhY49R-LSrALpb-1" value="" style="shape=image;verticalLabelPosition=bottom;labelBackgroundColor=default;verticalAlign=top;aspect=fixed;imageAspect=0;image=data:image/png,iVBORw0KGgoAAAANSUhEUgAABKIAAAJ0CAYAAAAh04uCAAAAAXNSR0IArs4c6QAAAARnQU1BAACxjwv8YQUAAAAJcEhZcwAAEnQAABJ0Ad5mH3gAAP+lSURBVHhe7P1nd2RJlp4LbtcCDq2B0CojdWZVZqkW1YLNOxyKS95Z5HyZNR/ml/Q/mQ931po1vILkJdm83Ww2W5auSi1CayCgtWsx9uzjJwKJCoUIAIlAvE+kpYvjbm7nOHyb2Wt7b0t0AiaEEEIIIYQQQgghxD6T7N4KIYQQQgghhBBCCLGvSIgSQgghhBBCCCGEEAeChCghhBBCCCGEEEIIcSBIiBJCCCGEEEIIIYQQB4KEKCGEEEIIIYQQQohvkVqtbq1Wq/vo6HLt+m0JUUIIIYQQQgghhBDfJrlc1lKpVPfR0eXLr69JiBJCCCGEEEIIIYQQ+08+n7NEJ9B9LIQQQgghhBBCCCHEvnDz1j0JUUIIIYQQQgghhBBi/ylXqhKihBBCCCGEEEIIIcT+02y2JEQJIYQQQgghhBBCiINBycqFEEIIIYQQQgghxIEgIUoIIYQQQgghhBBCHAgSooQQQgghhBBCCCHEgSAhSgghhBBCCCGEEEIcCBKihBBCCCGEEEIIIcSBICFKCCGEEEIIIYQQQhwIEqKEEEIIIYQQQgghxIEgIUoIIYQQQgghhBBC7Dv/4T/9lSU6ge5jIcRTaIefCz8Zblvbij/Pv/BrSiYSlggltaPwXCLUwa0QQgghhBBCCPGq8ed/+fcSooTYDc1224WnWqtl1VCi26bV261wLBKlssmkZULJpVJWSKX9lsJziFQUIYQQQgghhBDiVeP23VkJUULE8FPgx4B3k5ft97ul0W57qbSaVmlGIlS52XBBiucjISoSnvKhFNNpK3gJz4XnU8mkpRIUM/yj8JSKxSn3pPKWyGtKCCGEEEIIIcTRREKUEF0QmvB4QlBCWKr5bTPctqzearvo1Ai3HK+Hwmubnfg2Eqr4OUViU8LSiaSlw/10MrqfTYWSTHlBpMq6p1Ty4X0XqhKWRKKSECWEEEIIIYQQ4ggiIUq8Emz/M+eeP0I4ih+H+3gzITJFXk5N22qE0mxYmceNRriPEBV5PuEttVvSiYTlUmkXnnoyGfeW6qF071MI38Nj6pveUZH3lN/3/0dIrBJCCCGEEEII8bIhIUq8EvBnjtdSqx15M+HxRF6nB/e7AhOPG+H5RjsOw4uex+uJY3g9IVg9D8hG7iGViHJIUXhMTiluecx9vKO4T3ife1B1PanwnuI2FqkkRAkhhBBCCCGEeNmQECVeCRCQEJsQk/Bs2nQPp4bnd/L7oUTiVJTn6dsiDtvDO6oUe02FWzyneMx9QvfiXfiEEEIIIYQQQoiXCQlR4kiAp5MnE6fg3dSJcjnF3kyxt1MsRm33iPLnQok9pp4n7G6vQGCKvaUe5xEVHY9uY4+q7ffJM8U/PKeEEEIIIYQQQojDhIQocSRwIanNbnYt925iVzvyPFEqoZD3CdEJQYo/ecSm7bdeuE9l3zLIR9vD76Lk5Q+fi3bki3fji/JM4TkV3+c4ryXXlBBCCCGEEEIIcZiQECUOPXg6UeLd6dzDqdN276Vmm9xPeDXh8YRnE8nG2fEu8nKKBajY44l6Xna278AXiVKR19SD++H5OOfU9p37Hj6ORKpY6BJCCCGEEEIIIQ4KCVHi0OMCVCh4O1XxcAq35HZCZKo0W+79hACFtxNCEzmeXLyy7m23HJU/dKQjPJ68hEfJrrdUXCKhKmUFhCk8pbq3eEshVOE5hVgVv14IIYQQQgghhDgoJESJbxX+/AiPi8UiRCQ8nVqISO3ocZTrCcEJISryckJ8wvPJvZ+aTX8NHk8iEqoeeEul8ZJ6KEBxS+FY7C1FXioEKW7JL4W3VDrcl7eUEEIIIYQQQoi9RkKU+FZBaMLbKQqji4rndGqHgrdTuB/ldiIHVFeoIiwv3MbC1VHzeNoLIk+pWFjaJjR1C8nOEaNy4baQ5j45piKxqhjuk3MqlVSOKSGEEEIIIYQQe4uEKLFv8KfFHxe3272e4hKJSh3P7cQudnGYHQnGo7C76L7nhApFf6h7B2IUIhRiFOKTl3AfAaonk/FbxCoP++uKWttLLG4JIYQQQgghhBC7QUKU2Df404qTiyM04e0Ui07c4vEU72QXezxFIXZRTigvXbEK4UrsHUhIhODhMZXxEL2Eh+mR0NyTmoeST5IEves51fWe4pbn4vA+IYQQQgghhBBiN0iIEs8NfzrbPZ7ix4hG/HNvJ08iTnLxlm01G+7lFHs9URClEJx4rThcIDThGRV5SkVeUg9C9zIZD+XDW4pcUgTxcYvAhafUg1t5TQkhhBBCCCGE2IaEKPHcxAISXk3u5RQKolMtFAQono+ei72eooLH04P7oUTClThsRLmkHnpJxZ5SeFBlUqnwOPEgKXrWjz+8H3tO8R4hhBBCCCGEECJGQpR4bhCZEJvwbNpsNNzjqRxKdD/K8cRrtJvd0QUvqVImYz14SqUz3fvRY+7nw60QQgghhBBCCBEjIUo8E+VGwxYqFVuqVsNfTfScJxwPt3g2PfR8isQpintMhULYnjia4PEUeUNFHlHZFI9TlkkkLB0KWaTazaZZKKVs1noyWesrFq03n7d0SjmmhBBCCCGEEOJVQ0KUeCaWq1X7ennZrq+tWQchykuUA4i/oDi4jv/Hf1L6w3o1iP8c/O+he58/gXa75SJUC/GyXrexYo+XqaEhmxgYsFwmw7uEEEIIIYQQQrxCSIgSz8Tc1pb9cm7OPl1cjJ5IPExGTd4gSrylfyL5cJv/uIijAyYjLs1m05qNhrVakejUbITSbFgj3Nbq9XBbt3Y4nmy17eTwsJ0YGrZzk5N2amzMCrlct0YhhBBCCCGEEK8KEqLEM3FnY8P+2+3b9tOZme4zZqmu+EQeoJ5M2pNTE27lwlQqHAu3/ly4FUcHTEabsMtWyyrlspW3tqxerXqphPuVrfBcpWIb4VitVvPXk9z84rHjoRyzd86csYvHj1upUOjWKIQQQgghhBDiVUFClHgmbq+v21/cumV/f+9e95nIIwqJKZdOuRjlXlGIUN3bVJJd17rCVLjPrW/1H4r/2+ZVJa+pwwMmgYLQ1CK0Dm+nbffxgqrXG1ZvNqxWrVq1UrFGrW7Nes1qlfA4PIcAVQ63jfBayIa/jzdOnrQ3Tpy0986d8/u9EqKEEEIIIYQQ4pVDQpR4Jh4lRAHyEV5RCE9oSQhMkbgU7of/IT6RyBqhqhDKQ6Eqek8kUkXClTgc4O1EQVBCZKrXatYI9/F4qlaqVgnP4fFUrlW7YlXLOv6ermDVirylXMDqmhcJUUIIIYQQQgghQEKUeCYeJ0Q9DRepQnEhKrNdiIpKLFRlUkkXsHgtApaX8P6HHlTRfbE3xKF17dZ2ASnydmo0Gu7JhAiFGIUAFQlRtfC4YpVK1b2dqrVat7anIyFKCCGEEEIIIQRIiBLPxPMKUbGAhMCE6PQwFO/h8whSbPlPiF+um1MqEqqiY7FgpfC9vQOxqVatWb2GyMRtzSqVsm2R4wnBiefrURLyVqtp7WYkVHG/Ge43u8LVsyIhSgghhBBCCCEESIgSz8TzClFPA2kJMYqk5nhM4TlFYmuEJy+prtdUeI7XRd5RqFjRe12a8uci5DX1MMcTXk/hTvSY0Lnuczwmh1OlXHGvp1q5bPVwu7G5aevhe/bQu2o1ev8eISFKCCGEEEIIIQRIiBLPxH4JUYB0FHtM4f2E2BQXhKU40TliFR5TLkrhLZWIvKaSCFa8t/v6Vx3C7RCaSCTerJNEvG51EomHx3g7VbphdYTheQLybsFLqs7rw308nvbSNEiIEkIIIYQQQggBEqLEM7GfQtTTQJBCZMJbqphJWy7cZhGfup5TqVQkUpFritdC7DUV3X/IURCq+Mn6z5bb6Inoue4xRKXyVtm2Njfd04lSKUdhd+71FEqtXuedB4aEKCGEEEIIIYQQICFKPBPfphCFdISAFCc1j7yfup5TeER1j/E83lLZ8JoH3lK8rvsaxCw8rl528Fqq1+rWajSs2WxYIzwmnxPP4+lUq9cePPbXdAuP3VMq3OLxdJBIiBJCCCGEEEIIARKixDPxbQpRz4KLTKEUMxkrZTORh1S3xHmm4udedrY2t2xzY8NzO9XI57S5aeWt8Fy4XQnfUzk8d9iQECWEEEIIIYQQAiREiWfisAtReE3h9YTYRCGvlHtNcZuMvKfwpsoko3A+vKbco8oL98P7u6+jfFvgudRosDNdw72ZWuF+A6+ncL9Wq1u9EXlD4dnknk54Q4X77u0UCknGee1hQ0KUEEIIIYQQQgiQECWeicMuRMUQeEcYX6QlRbvpcZ97CFAUdufryWQePI5yTYXjfhs9923BLnblcsU9nepdjyffxS7cX9/YsI2tLd/9jl3w+Ol66e6I9+A2lMOGhCghhBBCCCGEECAhSjwTL4sQ9SQI3cPbKZ9OeeJzPKXwmkJ4wnOK2zgHVbqbYwpRi/c8uA31xI93C7vZNVtNa7Va1m42w+OW32eXugY71YVSrVatVq1ZvVazBt5N5HQKhee3ymX3eHoZkRAlhBBCCCGEEAIkRIln4igIURALSbGYFHlMPRSYEKEI20OooiBMpTycLwrxi8SqlL92t5BUvFKputcTO9khNOHtxI52m162PCyvjWcTHk/d27i4gBVuX0YkRAkhhBBCCCGEAAlR4pk4KkLUk4jFKHbgQ4TKpRGgonA9vKMQoiKPqa4w5bmlELSi91o3LK6DYNQt7vHUvSXHU7VK2F3V6rG3E2JUuWxblYp7PLVeUqHpaUiIEkIIIYQQQggBEqLEM/EqCFEQi1FR2F7kOfVAbAr/i0L2kpZLpVyoihKjJz03Vacdhdw1EZlCqVdr7v1UCfcRmjzBOKJUNyzPhSpeH27j0Lyj+nOUECWEEEIIIYQQAiREiWfiVRGingaCE8JULp22QijZdMo9qDy9ebNhbfI5rW9YJVyvKPF42T2dNre2rH4Id7M7KCRECSGEEEIIIYSAb297MCFeQgicY2e6eqtlW42GrddqtlKt2kqlYqtb7Gy3aYvLy3Z/bs4WFhdtdX3dyuEYoXlCCCGEEEIIIcSrjoQoIXYJYlSj3bZKs2mbdcSouq1WqrZertjG5patrq3ZwtKSLa+uhsebVq3VjmzuJyGEEEIIIYQQYjdIiBJCCCGEEEIIIYQQB4KEKCGEEEIIIYQQQghxIEiIEkIIIYQQQgghhBAHgoQoIYQQQgghhBBCCHEgSIgSQgghhBBCCCGEEAeChCghhBBCCCGEEEIIcSBIiBJCCCGEEEIIIYQQB4KEKCGEEEIIIYQQQghxIEiIEkIIIYQQQgghhBAHgoQoIYQQQgghhBBCCHEgSIgSQgghhBBCCCGEEAeChCghhBBCCCGEEEIIcSBIiBJCCCGEEEIIIYQQB4KEKCGEEEIIIYQQQghxIEiIEkIIIYQQQgghhBAHgoQoIYQQQgghhBBCCHEgSIgSQgghhBBCCCGEEAeChCghhBBCCCGEEEIIcSBIiBJCCCGEEEIIIYQQB4KEKCGEEEIIIYQQQghxIEiIEkIIIYQQQgghhBAHgoQoIYQQQgghhBBCCHEgSIgSQgghhBBCCCGEEAeChCghhBBCCCGEEEIIcSBIiBJCCCGEEEIIIYQQB4KEKCGEEEIIIYQQQghxIEiIEkIIIYQQQgghhBAHgoQoIYQQQgghhBBCCHEgSIgSQgghhBBCCCGEEAeChCghhBBCCCGEEEIIcSBIiBJCCCGEEEIIIYQQB4KEKCGEEEIIIYQQQghxIEiIEkIIIYQQQgghhBAHgoQoIYQQQgghhBBCCHEgSIgSQgghhBBCCCGEEAeChCghhBBCCCGEEEIIcSBIiBJCCCGEEEIIIYQQB4KEKCGEEEIIIYQQQghxIEiIEkIIIYQQQgghhBAHgoQoIYQQQgghhBBCCHEgSIgSQgghhBBCCCGEEAeChCghhBBCCCGEEEIIcSBIiBJCCCGEEEIIIYQQB4KEKCGEEEIIIYQQQghxIEiIEkIIIYQQQgghhBAHgoQoIYQQQgghhBBCCHEgSIgSQgghhBBCCCGEEAeChCghhBBCCCGEEEIIcSBIiBJCCCGEEEIIIYQQB4KEKCGEEEIIIYQQQghxIEiIEmKPaLda1mw2rdVqm3W6TwohhBBCCCGEEOIBEqKE2AM6nY61221rNhrhtmUdKVFCCCGEEEIIIcRvISFKiD2i1WpZo9m0Nh5RQgghhBBCCCGE+C0kRAmxB+AR5UJUo26tdqv7rBBCCCGEEEIIIbYjIUqIPSIKz+v4bfhf91khhBBCCCGEEELESIgSQgghhBBCCCGEEAeChCghhBBCCCGEEEIIcSBIiBJCCCGEEEIIIYQQB4KEKCGEEEIIIYQQQghxIEiIEkIIIYQQQgghhBAHgoQoIYQQQgghhBBCCHEgSIgSQgghhBBCCCGEEAeChCghhBBCCCGEEEIIcSBIiBJCCCGEEEIIIYQQB4KEKCGEEEIIIYQQQghxIEiIEkIIIYQQQgghhBAHgoQoIYQQQgghhBBCCHEgSIgSQuw7nVDa7U4obeuEYh2eEUIIIYQQQgjxqiEhSgix/3QQoVpWbzSs1Wq5MCWEEEIIIYQQ4tVDQpR4JpKJhOWTSSulUpYP9zOdjqXabUvg3RJ7uMRFvLp0/wYS4S7GJR3+ZnLhb6aYzVounbZMeJwMheNCCCGEEEIIIV49JESJZwIR6lihYG+USnYqk7HRTsd6m03L1mqWbjTMwn0XpMQrjwtQoRTTaRvI5Wyyr8/OjI7aqZEROx7KQE+PC1RCCCGEEEIIIV49NBsUz0QhlXogRJ3MZiMhqtWyXL1uqUbDEuH+A88o8cqCp1Mi/A24EBX+ZgZzOZtCiBoZsZMjow+EqFQ4JoQQQgghhBDi1SPMGaUciKdTbzZts1Kx9XLZNmo126xWrdJqWS2UZjJprVAqjYYfWw+v4/hWvR69pt22Nq9BfEgkHpYjRDuce31lxapLS1bdWLfq+roduZ9WOB++NdTrbPgus+m09eRyVioUrK9UsoFSr/X1FK0nn7d8JhuOpyyfzlgxn7PeQtH6e3vDa0rWUyyG5/ISo4QQQgghhBDiFURClHgm+DNphxLfxvcf/PEkErayuWn3V1dtZnnZ5tbXbSE8XkWcajatkU57MUKyYkHqCPGqCFHJUPB2KuVy1pPN2nBfn40PDtqxsTE7Pj5hk6OjNtTfb8VCIfKOCt8zhRxjXsL3Hz9HEUIIIYQQQgjxaiEhSuwZeEGtbW3Z8uamrZXLtl6r2VazaVW8plIp94gqNxruOVWp191jqhaO19tta4T3txMJ6yBOIFa9ZCLFSy9EddvKVSehODmc8tmsl2Iub709kRdTIcNzGcun05583D2denpsuL/fhgcGbLCvz0rFouXC+4QQQgghhBBCiJ1IiBJ7RqvdjkqrFd2GPy33ngrH/I8skbD5tbWorK/b/XC7Uqm4x9QmYhRi1XavqZeIoyBEEXKHx1Mxk/Ey1NsbeTwNDdnJySkbHx5yoamv1GvJBKJVwlLhu6Kkw/eVCt8dAhZeTxQhhBBCCCGEEGInEqLEgbK8seEhfCtbW7YUbjfwjGo2rRL+DPGYaiQSVgmPyT1V7XpONRCpOB7ej9eUe0vF5ZBw6IWo0BauVipcM4Qj8jvlMhkvPYWiFfI593Iit1N0m7b+YtH6ij021N9nk8MjNtjfb709Pe7xJIQQQgghhBBCPA8SosSBUkOwIRwPsSncR2RqIjKFQlge9/GWIrwPoWphY8M2w+s2eX14PyF+bbyl8Lg5RF43h12ICj9093YiyXghk7G+QsEThw/29tr06JiNDQ1ZP4/7+jyXUyRWpSyTSls2m7FCLu+iVTqdtkwoQgghhBBCCCHE8yAhShwqCOkjdA/PqccJUXhN4TFVZ0c+bsOxZlfQepBnCriN7+8z36oQ1f0cF5BCIUwuE0o2k7F8Nmf5XNayqfQDTydu+wpFGyj12FBvn02NjdrY4JD19fa6ECWEEEIIIYQQQuwXEqLEoYKcUpVazb2lPDQvFA/NCyUOzas2my5SeYhfuexhfghVW62WNZNJF6s6eEshQh2Q19S3KUTh7UQhPxPeTsVs1vqKRc/xNDo4ZGNDg9bXU7KB3pJl0xl/HaF5WUSpTNZ6CgUr5PMuXCnJuBBCCCGEEEKI/URClHjpKNdqNru8bAvr6x7Gh9fUaqNhG4hByaQ10mlrJhIuXBHy97jE6Q/Yfv852TchalsdeDwlQtmeINxLMmWZZMLD7krZrJVyeRvq67XxgUGbHhvzMtTd1S6TyXRrE0IIIYQQQgghDh4JUeKlo9FqWbla9UTm5VC4rbfbXlqJhLWTSdus1WytXLblrS2/XQ+PSYpexWsqlfLE6A88pg65EEXr2EOQkLpcKL3FovX39PiOdohLg719/lwhl7UMolQ6ZflsNjzOWalQDKVguXA/HwoClhBCCCGEEEII8W0hIUocSQjbu7+yYjOhzK2t2cLWlq3W67bRbLrHFAXBynNKhdfjLcVPgfu/9YN4BqHquYSobcfxdILY64nbZGif530Kz2fCbSmXs55s1gWo8YEBOzY2bscnJmxydNR3tCPETgghhBBCCCGEOMxIiBJHEvJMbVSrtl4u22a43cJziuTm7bYLUHhEcRzPqfVKxe9Xuh5TtfCTcJEK76FE12vqKTyvEIX8RCGsjgTjPYhN+bx7OA319VtvTzE8l3fvplw65UnHi/mclfIF3+Wuv7fX+np6HuR4EkIIIYQQQgghDjMSosQrC3mmZldW7O7Sks2urdlSpRJ5TbXbUZ6pUIwQPspTeF4hCokrFW7xdKKM9ffbaChTo6N27thxvx0aHNRudkIIIYQQQgghjgQSosQri+eOCsVvKxXbajQir6nwk2glk57wfKNW8zxUeEythdfgUdXgeDjWRqDqeks9UogKr8XbiV3qMqGQt4kd7Yr5vHsy4fVUxAMql7dsOmW5UB+eTj2FcLxUspGBQb8tFgr+HiGEEEIIIYQQ4mVHQpR4ZWm2WtGOenEJPwXPFRWOUZrhfrw738zqqt1ZWbH1RsO2wmvZna+VzVoHr6nAo4QoC69LhjpIMl7MZGyABOO9vTYyMGAnJyfd2wlPp+GBQResPB9UqJfcUKlU0jKpdLhNRY9DEUIIIYQQQgghXnYkRAnxGBCnljc2Huy+txDul1stq4bnm8mktdNp957aIA9VKOXVVS/Z8FzOEKAyVsxlfac7SilH7qeC9feUbGxoyIb6+61ULFpfqdT9RCGEEEIIIYQQ4mgjIUqIx8BPo95suudUnRLux15T7LZHInOSnd9ZXLS5lRVbXVuzzc1NG+/rtYnePhvs7XWxKZtJd72dUpZORUnJs9mMZdMZ93jKdL2qhBBCCCGEEEKIo46EKCFegK1q1e4tLdnC2prnmyqHxxP9/TYeCvmdBvr6JDQJIYQQQgghhBBdJEQJ8QLgLVWp163WaFgDj6l22/KZjBcEKAo5noQQQgghhBBCCCEhSgghhBBCCCGEEEIcEHLVEEIIIYQQQgghhBAHgoQoIYQQQgghhBBCCHEgSIgSQgghhBBCCCGEEAeChCghhBBCCCGEEEIIcSBIiBJCCCGEEEIIIYQQB4KEKCGEEEIIIYQQQghxIEiIEkIIIYQQQgghhBAHgoQoIYQQQgghhBBCCHEgSIgSQgghhBBCCCGEEAeChCghhBBCCCGEEEIIcSBIiBJCCCGEEEIIIYQQB4KEKCGEEEIIIYQQQghxICQ6ge59IQ4lzWbLS73RsHq9Yc1Wq3vk8SSTSUuFksmkQslYOp3yxzwvhBBCCCGEEEKIbwcJUeLQs7q2Ycsr63Z3dt7uzczb6vpG98jjKeRzVuop2ujIgE2MjdjI8ID1FPKWD88LIYQQQgghhBDi20FClDj03Lk3Zzdvz9hHn12yjz+7bPdm592zKZlIhL/g8B+3O+jtKdrgYJ+dOTltFy+csrOnpm10ZMgG+3v99YfVM6rdbofSsVa4bbVanJ6lM2nLpNPRC4QQQgghhBBCiJcYCVHi0HP77n27duOuffz5Jfv0i6u2sLRiA30l6ykWPOwum/1tkYYQvmqtbrlc1sZGBm1qctTeunjWhalieF9vqdh95eFifWPTVlY3bWll1WbnFi2dStmFsyft9Mmp7iuEEEIIIYQQQoiXFyXMEYcevIQazabniWp32pbJpG1osN+OTY+7QHP+7InfKsNDA1arNdyT6tcff2X/8LNP7PLV27awtGrlcqVb8+FjY7NiM/cX7Iuvrttf/92v7e9++pHdnZnrHhVCCCGEEEIIIV5uJESJQw8iVKVSdQ+ndqttuWzWJsdH7MLZE+7l9P7br/1WeefN8/bGxdN2bGrMstmMbW6VbX5x2UWd1fXNbs2Hj1qtZiur654Hq95odp8VQgghhBBCCCGOBhKixKEHT6hKtWa1Wt1arbYLS+OjQ3bm5DG7cO6kvXnx7CPKGRepTp2Ysr7eHn8fAg/hbhubW92aDx/1etPbh/CWSaeskM/7jn9CCCGEEEIIIcRRQEKUOPTEQhQeUSTxTiWT1tNTtIGBXuvr6/F8TzvL4ECfjY8N2+jwoO+Ux/s2tyq++165Uu3WfPjgHNklkLamUkkr5LOeJ0oIIYQQQgghhDgKSIgShx5C8xCPEKPYSQ6BJp/PWk8xb9nMo3eTy+eyNjzU74X75JmKhahKpdZ91eGjUq3a4tKqi1GcZzGcIzmxhBBCCCGEEEKIo4B2zROHnl/85gv725/8xi5dveXhdSPDA/Y//bM/sg/ff8O9nQqh7ITwNl77yRdX7G/+4Tf29eWbvnve5MSI/f4Pv2P/wx//0La2KrZVjkq5UrNcLmPDg/1WKOQ9NI7nSGxertZczCoWctZTLFqpVLBsJuOf02g0bWOrHF5Xjd4TXhuTSJglE0mvt5jPW7GnEG5zvpMf8NMj3BAvKMSxcrXqidV/+svPvO2EFE6MDdvrF07bmdPH/D1AGzkXQvYS4UMo4IJdtx1epwt3bRfh4h85wl0+l7NSaEuppxjO9bevnRBCCCGEEEIIsV9IiBKHnp/84lP7q7/9hV25cceFlsmJUfvX/+KP7XvfedNSqdQjcyitrW/a0vKqC1HsPHfl+h2bnhy141Pj9sMP37E/+v0P7fbd+15u3Z21mfuLNjzYZx+894ZNhfrZuY5y++6c346PImKN2qnjk3b65LT195X8cxC8rt+8Z3fu8bpFf20MHk2ZdNq9sqbCZ5+YnvC6eQx4dy2trNvC4sqDz7t6/a7duH3PRTJyYRULeRskBLE3+jz44P3X7Xe//557SxG2l0xGjo14fN25d9/zYM0vLNv9+eUHQlf8Mx/oL9nY6FA4jyk7c3LKJsZH/HkhhBBCCCGEEOIgSP1poHtfiEPJzdsz7g21vLzunj14BLEr3snjkw9EmJ1sbZVtaXnN7t6bs9uhrG9suXcRu+0hCB2fHrdbd2bt8rXb9sWl6/blV9dsq1y1keF+91jiMxGFrt64a9dv3fXPZbc+BKHh4QFLhH+Ez92dmbcvw/u/vnIzvO6e3bwzY4tLK14QmOZCiZKP18I77IEHF05MPCZUcHZ+yT/vSmjLzOy87+pXr0f5sOr1hr9/aWX1Qb3jo8O+YyBCFfmyeA27As4tLIV23LLL4VpR341Q7oe6788thmPLNhfur65t2uZm2TqdtreFkgyNSacV/ieEEEIIIYQQYv9Rjihx6EGQIQQuTlTObnLJZBSO9jgq1brnWloIpVqt+ft6Sz0e1lcsFvw1zWbTw9iaoW4ELR7zerykEG42trY8PO782ZN29vRxO31yyt9PWN7i8op99Nkl+4eff2KffnHF7szMey4nXhuX48cm3PuJdt+ZmbOvrty0qzfu2N1wf3Oz4m2IwXMK76dsLuvnlgmfMdDfaxPjw77z3/Z6EdQQy/CGIiwP7y88vj7+7LJ99uVVuxru4zk2NNDnnljnzhy3Myen7djUuCc/X15d99d/8fU1+/Lr6+6VJYQQQgghhBBCHAQSosShhXAySrvVtkazZZ12x0PxEHzIvbQdf1277WIS4WjrG5vuIbS4vGq1et1zIxGWNjoy5PmRgDrJo0RupUiIarkXFaFtvJ/8SiND/fba2RN29tQxO3Fs0sUhmJtfdtHnVx9/Zddu3nPvqJ5iwV8bl9Mnplw0InSQUDlEqDiMDw8mfKIS4XM5J/JIkXw93/Vyor0uJBEOGOrZXi+7AeKdhQhFGxGWroW6EZb4DLyg2uF6jI8OuffX+fCes6ePeVhhb2+P58RCbMOL66vLN2x5ZS3KI9UN3xNCCCGEEEIIIfYLheaJQwviCCLRtRt33ZsIAQURiRxHr5076YJMTK3ecFGJPE2Eyn3x9XW7dOWWLSwuu8iEJ9O7b12wN147bQP9fR4e5/mh7sw+2EmP17EbX1+px45Nj9mbF8+6FxSeRAhKCEN4Mt2+O+vhfFeu3XFvq3Onj9u7b563t14/G9p1ysP/vEyMeAggwtna+pa3HzENDylEovGxIf9MEoYjKBFit7ax5aIWIXN4Mp3Hm+nUdCjHHtRLW3pLRdvYLLvo9PXVW+7ZNL+44m3E++ntN875+Z48NhnaPxbeN+q31It3GXmjKIh0E2MjNjo86NfxUfm2hBBCCCGEEEKIvUIeUeLQEofkRaXhz5EXCRGJRODb4TXlStXuzc7bx59dsk8+v+z5n/BwQlxB+CFROXmlSP4NsQeV7yzX6fh9koTzPALO73z/Xfvuu6+7wIRX0tBgv1VrNQ9rI2fV/flFf+2508fsRx++Y99556K/Ni48/tH33rU3XjvjIXq0cTa85+atGc9ZhQhF6N+xyTEbGx20wcE+T0DOubFLH6ITAhSi2/Z6eR4vKryq7s0ueH3kg8KzaWRowN5645y9/85rnsyd27deP2fvvX3BPgyPef+JYxMuSBHSd+funL+Pa0f7hBBCCCGEEEKI/URClDi0xOISXjvtdsdv8RZCdPnbn3xk/+4//fcH5T//xd/Zn//VT+0Xv/kiHJ+1arXu3kF4KCEmsRsenlTbwduqXKm5JxXeSCTsHhke9LxKeBxth7bg0RQlQJ+3tbVNy+dyNjoy6OF+Q0P9Vijku6/+JnhElXqKLqAhXG1VKi5oIa6xcx4ghvEZPCZELhajyOn0OC8lxCy8sxDEqKunWLTpyTE7fWLavb4eBSF9hBcOhpLLZlzsI0k7ohRtEkIIIYQQQggh9hMJUeLQgjCzuYVogxDVdnEJ7x12l/s//+qn9j//2z97UP5///6/2r//z39tf/vTj+zK9dsuYBGO9/YbZ92z6Xd+8J6Hym3Hha5y9YHYRRJ0wt7IBUUupe3UGw33liL8jR3pllfXPKQuCpcbtrGRQc/x9ChIbt7XW7SenoILTtTDudRdeGr7azg/2kOeKlI14fFE/XhIkcj8USDKXbt513fuq9ebLp6dOjHpO+qxs+CjIPSQY3h3kfDchbFyxVZWo/BEIYQQQgghhBBiP5EQJQ4tkcdS1Wq1hnvu4FlEQnA8egh1Gx0ZeFAunj9lP/zwbfv9H75vf/i7H9jvfP8994Q6d+aEh6vhXcQuc9vxvEyE/HU6LhaVSkWvF6EG76XtkAtqaWXNk5gjjFFXf1/Jhgb7XDBCOCLU7lEkEuGHFo6RXBwIA4wTscc0Gi0XgvDMQhxKhtciQFF21st1Ybc/RDq8ohCvEKwIOcQri+u0M3QxhjYkwzGOP2hP+LxW+5vtEUIIIYQQQggh9gMJUeLQgjiDxxKJyAnNI5RsYKDXvZDYke782ZMPyu9+/z37F//kx/av/ukfevkf/ugH9oMP3/Zk3whGj8K9kJpNV4oQqkhSjrA0ONDnYXfbIYRvcWnVNjbKLvzgTUR4G+F/hLu9KOSnqlTjMMS2i0SE5BEumExGglFMs9G0rUrVPZk8AXr4R66pqC2Z7quEEEIIIYQQQojDh4QocWhBnMEjqt4VZxB8EH8IsTt76pi9fuHUg3L+7Al/7uzpqJCUHMEK7ylEoxi8fpqtlotbeEMRDod3EN5QCFY9PUUPX9uZl4nXs/Md7Wm1Wy4Q8dreUs9jQ+diENEQvFrNKB9UKhl5JG33SorzVRGuZ4YIlfbzRVjC22o7vIYd8xDp8KDCe4qwQM7h6W15mACedvHxnGv2CV5UQgghhBBCCCHEXqGZpzi0IJZ4PqVujigEInIbnZiesDdeO+270sUl2knu6X/ORJ8h3mwi5HjYX93D8gjJGxrCE+rR3k0kA98qlx+0BfGG8L0Cu9ztEK12gvBF2B3vBXb+4zMpcZsRl/BuatQjYYx2EIb4qBxRJFcnp9NmeD11I1oV8nkrFvLerieBNxfvp5AYPZGIPqvUU/B2CSGEEEIIIYQQ+4mEKHFoabaanpsJQarT7njuIzyQCJ9jB7woUXhUSNT9uBxN36QTCVzliotQCDkIP4g+FBKWPwq8hxBxEKEQszyHU2hPlMPpm6FzMQg9eFJxDoheeHjh5cQ54KW1Pa8U4XaIVXhG8RweStlsKNvEqhjPbRXq9cTmeDWFz09nUt6ep10D6t/cKvv5cy58DgIW3lQSooQQQgghhBBC7DcSosShpdXquKeQCy6djgs3eO/g/bMzXO1ZQURCiIrC2iKBC/EGQYkE5HgIPQrEoCgJOK95tPC0E0L/SG5OQnHEH5KU9/eXfGc+PJ22E4XmVcNty0P38HJ6elsehvY9KyR+Z7c9cl3x3lJP0fp6Sx6WWNiRF0sIIYQQQgghhNhrJESJQ0vkUVR3kQYRB6GIXeEQcZ4WgvY4ELTwUtrYKnvd1OtCVCZtafcoerSwgziExxCfi4DD+xDI8KhCzHoU5XLN5haWbWFxxda7ws/IUL8dmx5zAYi2UPBMQnDDIwqvqUhowlvqMW0Jx/Gsir2xPAdVo+UCG3U9iljoQhRbWl6zzXLZzwfvsoH+kidq355LSwghhBBCCCGE2A8kRIlDi4sneC7V2DWv7d5IkUdU1kWp5wPRhnxPFQ9vQwhCzEFgIizvcaFtD72m8EKKvKrwctrY2PJ2Pgo8jy5fvWW3790P51EJbc95SOHxqXEXooAwO+qi4EGFqMV5plN4RD1aiKIdiHEkMqdd9VrdP4u8UYhsjwIB6satGbsT2sLrYHiw345ta4sQQgghhBBCCLHfSIgShxbyJnlCcd81r2PpdNJFqHw+515Bz0NnR2ge9eLt5CJT18PoUcReU3FoHuKTC1GbW17fo0AcunLttt2+e9+FL9o+NjLkHlG9pYK/BoGNuhDHuI09vxDGyEP1KFyIKuTdgymZSLr4xGctr2x46N2jcCHq9j27c2/OlmMhKvbOKkmIEkIIIYQQQghxMKT+NNC9L8Sh4sbtGfv6yi334GH3vPHRYbt44ZQdmxxz7yKEo92C8ENoGiFz9+cWw+2SDfT32YljE567iV35HuchxC55CGMrqxtWrdZ95zkeE5jH7Wyob2Z2wT2Prly/bZ9/dc0uX7vtnzk6MmgXzp20i+dD+6fGPB9TJGqZi0nXbt61azfuuRiFCIW3E0LT2vpmOHbPrt+6595bJFTHq4tzX9vY7AphDffu4jaZStrmxlZoy5KfGyIY7fni6+vensXlVf+849Pj9tbrZ+218ydteGjAz00IIYQQQgghhNhv5BElDi2IMpHnUhyal/TQPPeISj9njqjwr9VueRgct4g7CD/USXlcyF9fX4+LVVMTo57niffdn1uyS1dv2VeXbtgXX13zgtjzq4+/tH/4+Sf22ZdX7d79BQ+3m54cs/NnTvgOfyQHj3eoiz2tMumM3+JtRW4sRCbEp0++uGK//M0X9rNffebeTLQ7Ed5DaF4cWjc40Of5qu7PL9mXX1+3X370pX38+SVvy0efXvL3/+bTr/0x+aqKhZydmJ6wM6eO2ekT06E9Pd4WIYQQQgghhBBiv5FHlDi0XL12x8WTza2KJwXHk+j1C6dtcmLEUsnHJ/N+EuRkQozBe2ku3C4srrq30pmT0zY+OmS9peIjvYMIk0MII0yQ3eyiXFIkGo+Sja+RBHxlzZZDob0IRngt4WGF4HPh3Ak7dWLKw+EIq0Nw2l7m5pdsbW3Dk5bXanUPG6SOrXLVqrWahw/ixTQ9OdrdVS8Vrknbb3mMOMX1QJCiLYTi4U21ur5hm5tla4frR6L348cm7MLZk96eqVAXu+U9LgRQCCGEEEIIIYTYayREiUPL11du2sefXfIwOKQSvHhef+20h9AhuiDg7BbEm/mFZbs7O2+Liyu2uLJqk2Mjdv7McRsP9RL6xo50jyMfjo2ODrhXESJUrVazhaVVuzsz5wIXQlSr3fY6JsaH7Y3Xznh57dxJ96Yq5PNdEeubIF6RH4qk5oQOEv63ur5p5a2ye0sN9Pf6+UciXNLD+vL5rI0MDXiOJ8L4wtttfjGc28x8aMd6OLe18P6qC1oITmdPHbM3L56xd99+zc6dPuY75T1vri0hhBBCCCGEEOJ5SHSIMRLiEEKIGSFueAgBYtEH77/hIXLPC+F+5E26fvOezd5fsJn7i3bi+IS9/fo5F3lKxYKH6D0OPLNazZbNzC3ajVDHvdl5F6DWN8t+HIEM0YeCp9XU+KgND/d7GF2U3+nRkFtqJrSHvFi0b6NbH2IT7x0dHvAcU6dPTj9IZh4LcQhXvJe2cF7zoT3AcUIZEal4P+dHaCCCGO0TQgghhBBCCCEOGglR4tCytLzqogrhdEAuIxd0eh4v6DwNwugId2PHOxKMVyo1F4gGBkpWzOejULfH5IkCvKA6nbYnKifkjTqqtbo1mi0/jjRErqdsJko2jucUtyQff1Jy9agttKviO+zF9eH9FCcu5/wJHYzD+WIhCqGuTOL07nnRHuAo3ld4PXlb8jkPzyuENtE+IYQQQgghhBDioJEQJYQQQgghhBBCCCEOBCWIEUIIIYQQQgghhBAHgoQoIYQQQgghhBBCCHEgSIgSQgghhBBCCCGEEAeChCghhBBCCCGEEEIIcSBIiBJCCCGEEEIIIYQQB4KEKCGEEEIIIYQQQghxIEiIEkIIIYQQQgghhBAHgoQoIYQQQgghhBBCCHEgJDqB7n0hhBBCCPGctNptW9/YstW1DVtdDSXcptMp6+vtsf7+kg0N9Pv9F2El1Lm+vmmroSwvr1kikbB8PmuDA302PjpkA/293VcKIcSrTaVaczu8hs0Mt+Vy1UqlgpV6ijY6PGhDg32WSqW6r9491I/NX1ld9/o3NstWKOSskMvZWLDHkxMjln6B+oU4ykiIEkIIIYTYAxqNpt2+O2vXbt61qzfu2rVQCvmcnTg2YWdOTdtr507Z8enx7qufj2s37titu/e97q+v3LRUMmmDYTJ14ewJe+/t1+zsqWPdVwohxKvN8sqa2+Obt2bsaridX1i2qYlRm5octbffOGcXg03OZjPdV+8e6sceX7122+u/NzNvI8MDvjCAPf7Bd9+yXC7bfbUQYjsKzRNiF7RabZ9obG6VbWl51e7PLz21sEJSrze6NQghhDiqsLa3Wa7a3MKKT0huhMlPJErdCY8XbKtc6b5yd1Bvu90OfVDLFpZW7er1O14Qo27fu29z88u2tr6lvkYIIbZRD2P2ldUNmw3j8dtdAZ9FAuzn8sq629XnAZuMPd7cqti92Xm77Db5rl2/dc9m7i+EOcKalYO9b8vfQ4jHIiFKiF3QbDatXKn6isrla7ft0y+uPLXcvD3jHZUQQoijDZMTxKDNzbLVwi2PCQWZvb9k9xeWvP94HpjLNMOkh7pn5xbtq8s3w+RnwRdGCPsgFKQYCmGAQgghIlhAJnwOO9xsttyOEkZ36859W1vbtHb7+YQiBKxGmBMQ8nfr9qwLXCw8J8K/XDZrpVLRbwmdFkI8GglRQuwCOrBq6NAWl9d8pZvJwNPK3Zn55558CCGEeHlgStNoNNzzCSGq3Ym8aNc2Nj1nFJMWFibq4TW7od2OVt7nF1d8IQRvW+oiJxX5TchHkg/lRXKdCCHEUQPbybi9Uq26cITwxJgcb6jV9Q1bD7a5Uqm5sLQbsO8IWvOLwR4Hm7y4vOqClyXMQ/16inm/lQwlxOORECXELmA1pVqre1jejdsz9vWVG08tkRAljyghhDjy4BHVaLoQhfdSJ0x6CM2g7yCk+/7cks3MLtjm5u76BOq8P7doX3x9zWZDHbXQD7EwgscVXlAkK6coKa4QQjwEj6hIiKq5HY5C6vBmanj4HPmdFpdX/NhuIEE5IX7Xb95zQYr3I2bhAZXNIEQVLJtNyyNKiCcgIUqIXUDnVavXPd787sycd0BPK6xcV6r1bg1CCCGOKts9oriNIZcIz80tLNvM3IKLUs+CT5rC5IYFEELyvrx0w1fgWdnnGJCsnGS4+VBSKQ3rhBAiBvtZCfYTIQo7jDDU6bRdOFpeXfe8UYtLa88sRMW5+vBIZYx/886M72LK89hkZCcEqGIh74KUXKKEeDwasQghhBBC7AFMROp1NrSo+P1CmIwwIUEkYiEDb9rZ+4suSj0LCE6rYbKEFxV5SK5cv+1hJP29JSsVC5ZMJr1k0mlLh5JMaFgnhBAxniMq2MxareEeo6WeguXzUdgcufzu3JvzsDo8TJ+FrXLVQ6TvhveRF4qNIhC3+vtK0e544T4h0tTPLTmjhBCPRiMWIYQQQoi9oINHVNMT4+KwVMjnPJE4kxImRCtrUU4Rjj8LrNKzGx55oe7OztvN27PuHdVb6rFiMW/JZJjmhEJ4HoX7QgghItpEMgSbSag0wlC8MIC3EgsCeJquBruMl9OzUCG/1PKavy/yplp1Iaov2GT3gAqkkim/Lw9VIZ5MohP7dgshngrJDYkl/9VHX9nf/ewjd8t9Gj/88B37V//sD+3dN893nxFCCHEUYWLzf/7lT+x/+49/1fWGyvnziFBMdAgTmZoYsT/4nQ/s+x+85ZOVTCbtr3kU9Dnsvnrp6i27euOOl+mJMRsfG/IJELuynjg2YR++/6a9E/qYY1NjNjI80H33Q8hhwo5OhJUvrax5zhTagnCGmIU31fBQvw0O9NpAf58ND/b/1iSKBL+EmuPVtb6+5TlSYhDBOA8EMuoYHOizvt4ez5MChK3gJba+ueVJ21dCW9janAki1wZ4P94K1DExPmyjI4MedojH1848KyR739go28ZW2ZMNs/sV7SP8hrxc20GwGx4aCOfUZ0PhvPBciEHUow3Lq2ueL4Y6o7DKZvcVj6c3nB/XaSjUy7Ur9RT9ea5rdH02/Zpzndwjo15/EP7D9Rro7/W2cJ6T4yP+vBBib/ny0nW3x1eu3XabnM9FiwLNbTb5+9950/7JP/odGxsddO/SJ2368NXlG/b15ZvuncqGRNi28dHhYL9SnhMW2/Z7P3jPPgx1Hpscs1MnJt2+bodE5w/sQ9eWVmuR11Y8LcduYUOx56PDg24vdvI4ux7bwGSw4WPBvmCfdtp1bBEet4SJLyyu2ELoTxDZsFUx5B0sBhs+GD57KNSBJ24uXL9YcNsO9biND+dCm7bC/XK1avVwTjuhPdg9+gnOC2EQOHe+G66FtykU+gz3MH7K7oYswrDwQ58zNTFqU5OjD+qlX4jbxfXeCHXG1zumVCqE6x3ZY653bymy52J/kRAlxC6QECWEEOJxMPj+T3/x9/Zv//1/DYPZAZ9EZLtC01oYCJOsnG29//Effj9MVt63np7CA7HmUdybnbc//6uf2SefX36QcPfc6eN2Mkxubt2ZtY/D8yenJ+xH33/X+5ix0aFHTlgQsAgjIbnu12EiRV+G2EIidQQgBvCvXzht584cs7OnjtnFC6d+a7KB8PWrj7/0iRgJfm/fud89Enl+ISIdmxq3s6eP2fmzJ+zksQlvDzDpmZlb9DCYa922zHV3/mNSBuwyNTkxYsdDHR+8/4a9/cY5bxvt2ClEcZ3vzMyF67MQ2jJrN27d8/ZRYmErBtGOc3vt3Em7eP6UnTw+2T1ivmsWbbh05ZZ9xeYioX2E2jDxeRrHp8dDvafsQrdeJj/AdcVTgmt0/eZd3yYe8Y7P4fsDrteZ09N2+sRUOM/z9mE4XyHE3vP5V9fcHjNexyYjfqDAM/lFOEJc/8EHb9n/+E/+wKanxqynEIXtPY6/+clv7G9/8lGwE4vu2drXV3Kbkkmn7MtgG++FOv/4x9+z3/neu27/sGk7N5FAFMFGXAv2ATvKffJVYSMQtgAB6cTxCXvz4ll7J9jC0yen/fntPM6ux2GG5KpigQL7t9OuI8KzGIBn16dfXrXPQoltaAyLCuNjw+G9014H/c5AX+8j+6yZ+wtel9v4cF5sroG4hfCzE+wm7Tp35ri3K+6zENFoPwLbZ19c8XZRH/U+LYcXAhv97Xi45j/44G0vcb1cl9uhn7gW/ga43uT4ja93zNTkiJ04NunXGps8PRnZc7G/pP400L0vhHgKDCJZdZ25H7nksgrxNKLB6mmbCMZcCCHE0YMtwRlA403z9ZWb9vmX19zbhZVfVln7+0uetJaBLwPqsZFIMMpls48c1FOP7+h0Z9brYiDOCvloeB+D7b5S0VbXNn2wz0o14hSr76xe57qTKCYjTLIuX71tl67etMvXbvsKM+1MZ1IuhrBi7CF9oW1MgNY3y57nZLC/z5/DG2kjPMfk6ur1O54snYlBM9TBajniESUf6kI0wpOgE+rJhvPCU4gVfVae8TTi/R99dsnDDFmRZh00E9paLLKKjadCzvOpNML14X2cCzmveB6vLWDVndBGxCe8EpiEcZ3ol4EJJG3xlfAw06yEz8ariuvP9fZV+HDLd4CHEtcXrwaErIWFldDH1/0cCKekTVwjXutbv4dzJrwHjwlWzxGejk9PuDfT8OCAn//yyprdDteHa30p/B3QVnLKROeatkJoF+1jgohgthXazffFuXL9/RqG9gohXgx+t/xe2Rzis6+uujcMwsrwcL97M2IPsMfYj6GBfhes/fcZyk4hCoGE12K78LDCQ5VcgNg47HEseCwurbi9fO3cKbtw9oR7SWLfY/uFnZpbWHK7cynYZbyqmEdgI3kNnx3bZYSV2EMKm+w5AINtwF7HbaEd9DeI+pHtCvYS29UT2eViPu9hggj3LBQgjGFfEPbxoELIoh2INFwH+qjY9sV2Pc5BiF3kuuBVFvdZ2DBEI/IeYvO+Dv0MfQXtqzeb/lm+kUboK7B5fB/0bXHfiCiItyrnDAhjzK0Q1egvuM/3yOfGbaItGPf4+2X3Q57D+5i6JoI9PtG1y3h80XfiOcx53rh5z1bWN9wLNrLzD68351kN1zD6HqKwSsqjvL/E3iEhSohdICFKCCHEThARmEyw0o0A8cWlax4GhuA06KFbg74Cz2ozogZiCINq3P+jFfpvQvjanXv3faX7cphsEO7BROnMqSmf3DApYZUXIYqJEF45rOYz4EfMAIQTJio//eWnXgerwYgvtGuEULVQEGgQjSKRbCv0bfM+ycBzIJPOuFDG5OqrMPn6/OurPnFaDBMWJl4nj095HZTe0KZMGLAzaUJ4IUxlcmzEJ2okBGbSQ4jhP/z8Y+9HmUzFYWmIa9SB0MbEgolcT6iPz2byMhBexyQBSCqMZwOTr0+/vOL3CdNjIoF45debsMC+Hp9s4UXGhIPnhkJhdZ/JKNeBvvyLr67bL379uXtWVcOkj7ATPBHGwutoE99TJDAidHX8ex4c7HUR6uyp43bm5LTf7+0t+jHGBXiMUZiwcq58H0x8R0N9I8ODft6Ia2thQoT4xSSKz+UWgTH+/oQQzw+2hN8fGz3gFbURbPNwsGuMxfldj4Tf+UKwbYj12GFsGiKM598r5Lu1RLSaLbe1N27P2NeXb9mNWzMuLOMJhQ3j94xnZxxK9sZrp+2186dcHMEmxx6deGAisHyNB+bl626/Wu2WCz7ufTT60H6xuIGNJ1wOe0mhz6BtcVuwX9iZzc1KsH9Ft+3Y7tFQD/YL20n4Mh5AhOYdD30E9gUPrTv35u1XH39lX3x9zUUoFi6wkdNT4w/sOsIcIhy0mpFQznWKhbdmq+l1I0J9Hur5IlxnvD+x17QT+0+YGzYPIQwvLOw7wh/fBaGCXL/4ersn1JdX7ZcffeXeat7XhOsShZwTYhj6ifDaVCLp7aLN9DlcO+phvnXmVGSTEboQxOiz+M64TthnXk9fw3VGtBoIfSB9R6PR8ogXX6gJ1xp77EJiaLfYPyRECbELJEQJIYTYCYNiwrnoE5hoIAAxAEf4YBUaN38mI+y2RG6QaJU14SISg+EYxAzqYoUZsYW6EF8Y2LPC/jYh3p1oZR1xh9CHibERez1MfBiss3LMQJuwA1aCmYD95pOvfGWdSQSvfe38SQ+xIFcVbcS7h8kSkwD6NiYjDOppIwIJ9SAiMfli4I+HFx5Yb7x2xvs1Cufh+ZJ8ElXynCm0hwE/Ez1EtWj1/pa/HuHszMkp7x+ZNHgdYZKBYMOkhfcykeA+z9H3Is5dv3XPw1/wYEL0Q2Q6Fq7t+TPH7VioCw8ln1Dm8z6hwAsivs6c62T4nP6+XhfXIm+oG94uRDTacurElBc+Pz4v6kG4CpfVV9LxPGOi6eJf+GwmMc0wSWPS6ALZF1fdM4rVdVblz5w+ZqfChDU61xGfbDLZ5XudW1j2yS9eA33hueHQxtijTQjx/OAhhAclIjO/S8RkfnvYm8gmj7knEeHShNXh/YK3D3aI3zRgSwlf5vfPosDnX131cGlELQRrwsuwK+SaYrEAQadaqYXnz9kbF8+4QJ4OdheRytsyM++2FAFqdX3T+wTCmbHt5PrDfmE7aR9CFPYdW0892Ii4bdeDLf7y6xsuAvG52DzmGQjjLEjENhVhvhBsO0IZx7CR8WIB3lCffnHZz78UbI/nswo2GdvOeykISSxWuCgfbDu3CF0IZ+6VFfozvG0RxCKP0pqLfIhBiHScG+eDoMOCB7n8uEbe74X66We4juFCuK1mXoUQxcIJiy0s4hC+99rZk247eQ+iISIR3liVYI/pM7fb7jMnj3m/w3kiZn36+RW39QiE9I/Hw3U+H86RW97H3wQF4RIvM7yoWAThHGlnLLqJ/UFClBC7QEKUEEKInbBizuQEMQeRhBwZTAImxijknpjw1yHqLIXJBYNnPHnoH7bnLGJwzSoz+YWYsLBLnnvhDPTb26+ftfffec0FGCYAiB2E5zFARxRi8sFKN5MeQhFYpSZBL+FrDKiZYLx+/rS9GSZIp45NukiGeMTEhlVmvAPwHmCyw+sJT2DyQ3+HoIU3F8LK+bPH7WLo0+jXmDBRGMhzjEkQYRHHp8d8dZ7JFAIW14NzX1lZ98nbjz58x/NIkT8lFuuog8khkwmuFxM8PI0QxDhXxCwmlBTaQvLx02Hi9Fa4Lu+F68JEiiTnHuaRMPfE4jqRDQZvMj6HfpgcXVwfri9eAdRNLhbyNHFtjh8b93OhTZxDLfT79P0IUoQUnjl1zL7z7uue24SV+GQy5d87uxoSuoi4xYSHCRZt+847F12MiieHtAPxj5wqPgnsKVg+THyYlHGcSacQ4sUgfxPeN9ivK9fvuDdOZGNGbSr8vrExCBUIS76zXrCbCMTTU6P+uwfEZ0QmvJLwqPno08tuV1LplNue7wY7gLCNiHJ/Ydk9nhAy3n3rgud2QjAh1IvQZEQlBKhPgt1BnMfzlDx65ML77rsXXbTBfrkwEuwA/cNcsA+EsiGsE8KMDUEYQTzHfjEfwWsU4ed777/52zY19EEk7UaEwq4iJnFdyIOHpxA57OrBrtE3vPPWebdp1PXQrg/79ULAwjbTNhYi2p22Xzv6Ouwx4c14EdF+BHr6qQtnTvh78Why4Sj0Y4Qlcu70jRzjM+hr+G6oj77qyo07LlbRN2I/8SxjoYG6eb17RKWS/h7EsEa4TohVF86eDH3PuH+vhHezcHH15h3Pr8h97D7Xgf7n3bcvRIsN2PluP81CEnkMm+H7Q4TCLnO9478FsT8oEF0IIYQQ4gVg9ZWJDBMDBvbAwBwhh4EzYg8TCHIv8ZhB9PzCiq+KR++JcoEQtscg/P78og/YEZ2YHDEoZ4LBoJnk5y6MhAEzwhPePExG+DygHbNhAoM3FSu8tAfPIiYbTFRIyMrkBNGDFW4G6P7+VDRpYpLldSUSPijns5jQ0TZEEgbmiCyINXFxAer4pCfUZVLApIpVcES0yFNs/UFeDla0mVTQhu11eKLzMBEiqTj38YjiWiEkMeEg6TcLQFwf6mWyxWv5PCYYTECYOMTvwwOM80mG8/Dr1J0UksNqPdR35+6ce6cB3wvvZ3KJoBW3iWvERIpJI95h5FvxXCvhe0Ao43m+N7ybaBshM3yneDn5tQjXnIkdHlFMfHgPfwt4KHC98Yig4PHm9701QogXBUEf20XINCIIv31sAkI1tgl77DZ5oM93l0OQxrZg66LdPNlRL1pgwBbHxYXt0Ug0j4SZYngm8pbkDsK5e5NmM25H+V3jDYXwfGdm3m0yIcOEhJ0/c8I3d0Dc3m6/3N5ks96uyD5gx8L98A9xjJ3tWAin3+B1nAf9AzaGOmL7hY3FBiHocIxz57zoV0giXg71YL/wIMKmI9jH76XQ72DH2FSB9iEaYQfxHkJEp49B6MOOUgevxbsLOx55lo67rUS8QmzH/gNCEt8Fjzk/rh3X30Mbg/3E8xaRn+tzMvRX29tEO+mD+A4jG5/0PhJPLZ7nWiBOcb3xQGMxot5s+AILfYWLbaGdcX4/vL6KhYIvHsT5s/x6+31vrthHJEQJIYQQQrwAhG8gLiG6MDkABslMKBj8M6hFxPFQhDB5YQBOqAD5NBjQM9mhDlbNP/viqifiZlKE6MRq8PtvX3BRBOIwDzx0mOgQVpIIkxTe74m1y1WbnVvw1XcmLHg9TU+MuSCC9xQTpPi1TCBY1Y7DyZhA+YA9TI6YlCCkxfB6JmmsLjORel64TngQkEB35w53O2HS1AjniwcUXg2Id1xHJkh4geF1wERnO1wXVv19K/NQPxMLwjziSUssGpI7BY8tRCsKE7pIrHo4NN7+Ws6fOnyi2Z1k8lo+BxEK7zMXocL3fWxy3N5967wLdLw2hnr4XvAwY0LK+SEEIuIxIUYEFEK8OM1Gy+0ANpDfWWyDscn8joGwM2wJ4jC/c+wSYghhz9gpQpoJ6/rlR1/a7XCLZxQ2/L1gjy+cO2FsMtAkRCzYAI5hL7APCC3boV68faiLJOd8HqLNm6+fcWFlO3w2eZsQeVZX172vYMEAW7IzXxH2jfoQhigsTiDS7wZEH7yuCPF7ml2P+w1efxsP1au3/PoisCN4sXMrohr2NIb2IAbGfRbwXXCdWCDAPkebfQRbH9rfCve5flyjyXFC8R4me4eoDU0vLCq4fQ/1bL/uy6HvxB7jZcU1YqEBEer186dsaOibORn5vqPQ83u+sy31kLcQkYpQTbG/SIgSQgghhHgBmIAgQMUhXICoEeX/yfjAGwGIcDIG7QhMDPoRdchTEk8CFsOgmNwd5DWhHryHmCgxuEeoABdawqQnFkYigSUM5sOEwhOmb265cOMrwaFNrBYTCsYEjEE7q+EMvlnd91X6e3M+YGelPwrHiMIJyfXh4kyon1AFPK/4XLx/EMwQUvB0QkTjvJnsMUngWsTweb4rHCvO4f08JrSFz2U3K+oinIVJCjmVOKft4M3FMQS72fCezXLZhRu8EbgurPIzYdkO7eBaMrFkEuSeEOloxycmKrSOiQ8TVdrqwlOY5/BaJi08xy110FbOj2vGc0ywuBZ8f7yPeshFw7UgrJEJGp9DG/FsQKzyZO2h/fFrSDLMhJS8M7xuJLyOSSZea0yohBAvDgKLi0nhdxbZgWT4bWZdXIiFqL5gGxEcsCHYnsjWPPSM4jG2mA0oyAHH7xn7jRcToWUI9R7WFz6Hz8KOZPGc7P6OI5sSeSDx28cG8DnYkH52U+3rDfYmStJNaDR9wd1gjxGt2HETW4XnlNvlsWH3OvLPyKZdlMJeYOOpH3tP/eQHjDxYI69ZvMG2Q9sQ5MgLSN+ExMPrCdfDrnPueKBy7pwX5xDDuVAvx8lvRy5D7OXY2JDbYrymENa2i++8nz4Lexrbd9oQi/n0CdRBuB/2lPt4fuGdtH1hgPfy2SxgECJNX0R/4/1TOB/6Wq4H3zsLAvRp9IOdUCfHPN9g+L6x43yXcaL6aFOQKByQz8QDlkUYEr57mLfYV5QjSohdgBHE+ClHlBBCiBgmA4g7C4urPpmgjzh1YtLDAAgZYDe0ThhwMzGgD2EQzCCZZKweLtEdgF+7EeXcQHAZCJOUE6EOEmMjvDDpYeDOcfI/URcDdY4RasAEi12GCEcghwhiD3UjdiBChRG/P0c+j6+6uYxYdWcAzoD+5PSk50gitIKQDgb4hI9tVSo+KYnD9BjkI87MhvNEYFkPkxgG/0wG4tAGCjAJ4BgCEN5iTJSYmDBZ4vwpLmZt4h0VvY5JWgzeAXdm5jxRMLmmCO/As4vVd8I+dopQwCQDkYvkuUysEMDIw3U8vB4xjwkYk0IS/TJ5ZBLHBIVjTFR5PdeWSRY7DZIbhiTpPI+4xCT09IlwvUM7meQyYWRFnbxefIeIVEx6uOVvgTxfl67dss+/uh4mtLc8VxbiFSEktOvi+VN27swxnxQTshdPvIQQzw9eSA8E4GD3EDewk9gPfu/YxHKwZ/xmybWHcIF9JfSW3y42GYHmqys33LsmF36biCzYY7xrsM+IKdibKERtwX+7eEkRMkw4G0I6NhP7hb1FeE8kEy6M8Dl8Np974zZ25oZ7pmJrsIu8znP7hc/CJiP08B7EFmxpLJbz+dhn7CjiEI/xzsKGYYcJTY6FtxjazaIFO6XSPrypWBAgXM8XB8Lchs+gX+B8YoGcJOdcT2wdtow+Dzv8WmgfYc0eOr5NhAI8pngPbcMeUj+5nPD0HR4MfWOwlQheK6tr3na+Mz4b+4iNxe6yIMNzhKxzfejf7s4s+GID3yV5nwjj4/ujv8GjmOtJP5UI3wnfNYV+moUX6vji6+tut7HPS+FzuUYswhC+TtsQKBH76GPF/iEhSohdICFKCCHEThr1pq+uzi8s+YCb+z6BCBMSwirwpEFkoSBezMwuuiARrbjiTdUMA+i2kdSbQTYTCEI3Lp47ZWdDPQyQGWQDYRsMtJnEMFBmZf7k8alwPO19E942hH8xSeA4K+osexOmQp4ldn5CzGIVmFVwPovwPULJfvDB29EAvIjXQMYH5wzsWalm4oNoFZ3nig/mEaHwAoISE5Z0OMdkFLIGeCPhVdXTk/dJAZ/n+Z7uzvr9BSY9YRLodYTzQYiJwk+iPB2xqHbz1qyLSyRtf+eNc56YltweiF87QeQj/xMCEe3lGiMIkpC8v6/HJ0oL4Rg75+GttLiy6l5bCHlcYyY+5UrFxT5EqKvX73pC4wciVJhwkYeF1zIeILTyky8u+8o6z/V0842wgo/YRULgy1dDXWEiyqSTSRcTUf4+SFSMtxsiGQKcRCgh9gaEGWwAIgi2lt8mGy3wG0aU4PfW6bT9t4+dwGbi3cTrsK31ZtNtFYILYVsktkY0fi3YZJKMk6OI3yuf4cJ/sOksFvT397iQgXeQe1VuVTwx+BfBliCO4YVUCHYOryDs3s1gr/GAQjjB3tAWPh8RCgHqzdfOuGDtnkbBNgGeUsVgQwglm51ftMXFKEcd54mwHnsyRd6gacvlH9pJ2ugeYMGuI2DRBmwwnl+EZ5NfMPY4YmEBm+lCVOgnqPvmnRkX1m7dng2PNz2ZOBsyYBMRjGJvsBgWMrCRJALnu2ARAiGfDS+w4YhrHv68Ufb6aQPtwYYiptF39pZKvqjgtjTYZXZfRbDCtk+Gz0WIIpw83r0WW8v15hzoU/iu6efWQnvZqIK+j8UYdvvjO0asw+Ps4oVT9kZoF98d9l4i1P4jIUqIXSAhSgghxE4YSCM6sCoeeUat+CSCiQuDbQb/TFqYGNCPsBsSq948jnKR1H3lGI8qJgEMihEpqIOcTdu9hFjJZeKTSidtoK/kEwD6GUQjJjHzSysunDDg7wsDePcCCp9P4TUIPbyHVXs+g4kEkzN2uyPZKxMAJmMPvJrCpAhRCo8dEsiyExOvY4LAxG15dc0nEUyyuA4eJtEd+HsJdTA5yYR6EbxoD5M4wkwY6BO2wWSASUgcBoJgR/2sXjPxYLLH6j27G7EtOhMzJmKIbzu5NxNt187khzYxOUL0IUl75O0QJjjhM8nHVK1FYS1MyqLrv9wN1bjrE1NEN74PhLgLoQ5yw5Dklu+Uc+O7RNBy74Bwy7Vl4tYbJnrc5zry3RNaw4r9W6+f8Yks7fHJZXgeb7nt368Q4sXBvmKP+Q2zOMDvHpuHSMTvjcfBtPlvlJ1MCYljMQAxg9xQ2AOEFgQPRGXG8eyGd2xqNPy+H4bRYusRmvkMvE+Hgn1jEQEPJmw7c4ZocWDGhSk8ePr6itbbE+1WSj0I04hbb7521j2uENrPnorq8A0lgi35ba+mrJWCDSWMmoUKFg9iYR7PJbxJaRMeQdGCB4nUow0SgFA4RJr+/ihpO+IUn4Ptpd1cP4SqzXLF7SV140WFcMb8h74Goej1C6fsrTfORh6l3TD07WBfWbRAbKNOvMzOnJ72HH94jnINvH/wtpkLSYSX0xe4MBXmWfSt9AOIX3iz4vmLXT11fMr7yDMnp9wmE97N9eazbiAsBrvNtabv4rth98FMJvJ6I5k6/R/f6/nu9Z6aiHZ77eF7kQh1IEiIEmIXSIgSQgixE4QkwhXYwp8BOqu6F8+f9FC3gTBAJ0dRPNjG+wmRhJweDOyXVza8X/FBPyFwrZZPZD54/3UfZMeiTsxnX15zocVzTg31+25JCEtMIBBFmBgxAVtZ2/SBPnmpXIQKr2eywko7HkJssc1KNiIU/RQDcFbrmZhB/JkIU9QzOjLgkx48A5g8cHxxecVD5vhMti9nJjESXodgxS5PTEqoLxs+HxGK84rEoDDID9XHIhRhcExSeD8TM5/QhdfHIRSIavS/TMxIiIuoFE1cHl6XGCZ9JHxnEsZqP5MsPNMQfpiIxDsMMplkwkPb6cvZ8Q5PLTygCMlzEWqDhOZtvy5MtvAYwzOBCRyTsHKVMMtVnyQRcsJkjs9DhOKz8HzgfJkosdX7+2+/5mGFtAVBj9cTKvio8xBCPD/8/u/NzIXfMd6Pq24DGYtjCxChsMcUBA3EJkRvBBy8JBFAsB3cJ3yP97731gX7/gdvuV2KNoiIfrN8DkL03OKyh+thX/l941mKzSKnEX0DueEQ6mPRB68sxHREMcRyRJEfhPppI+GD7N45HOpyESod5deLwfYj5rNggScQ/QA0m20XevCMwvvydrBnveF1QwNRvjrsUiwUcU7Y6vHRYRfP8QilD6nX624TEZwQ8tdC4XlyYyHUEYaIVxGfQ5veev2cvRfsGu2k7p22DO+my1dvuVjHdUWMQ5R/O9jTvlKPX3/awjVgYYL+AJtKmCD9KQIhoZHYdfpMwvfK4btB8Is2rDjjgj72lutNH0q/wfUGcj5xvclTiOBXDNcb0QxR8UffeycSshChuN6IUO4N/Oi+Rew98gEWQgghhHgB8BoihxK5NlhmZ0CN8MOqNfcZ1FIYqOe7AtL0VJTstlKtPhh8MzEitwjhX56DJEyYeA9iCJMYJjWIV0wWGCezcotQxUTB2+Ft8bvhfQkfgJMIm/AvQg5eDwN3vAKYKLHSzsQEUYk6GHzHE4ntg3Ce4xivYVA/MR4mP13vICYglLEwIaJtiDlRiMiSEd4W10WIB4IWXlAIWXE4B8LOu29e8Ekb1xBPMXJYIeZBq0ni8boLVhynLRTOd3sb49Xz2AOCkD8mJLyHa8x1YuKXzkQTSCZ/iGVM+v7w9z6w3//h+/bd916390ObmGx+EO6Tt2lsNNrSnAkfkzkmS9THtXX8WvtV93PkWuLBhncDng14b70ebk+G79RX2rne4RpwLWPPM85HCLG3tNutbshzK/w2E117HIqLUNFvjt8xv1tEHcR8xA3sA7YD8RuhGjvM75gQMOwGv1le48mzK1W33x4K12q7nSRE2YX2ABtA8M9tRPiPvgCPKDyYyFfFrp/YCeyQh7Y9EKjiTREiweyBvQnw2dgM2oGAw+sRk6iDxYsfffiO2zEEMXbUQ7whFA2hfHvichfhQv+ETcP+4ilGiNv3g01+8/WzvmhAGxDYWHzn/XiIIdbhMUVdcVu4htzyOIZrgh1nB1cXkML1bDQafg2ol2tO+zk33svziHScx49/9B378e981/7wdz+wD7/zZmjPOfcuRjRi0QTbTW4pBCj6I0/ivh23y9EiSl9vyR0BEOwQreI+kH6INjy43qEtfH9cl+3nIfYX9X5CCCGEEC8AggfJtpth4gMMaJlE+MB22+o58Bwrsgz+ESQQWfCIWlvfCAPntIsWhH8xQI6hfkQuVulZUWaCFSr1VWyEEQbPOyHvBZMeT2Z+atoH+Hhp4Q3Fttis/O4GJgt8Ft5RTAaYROHh8+F33vCwPiYmTDbINYIgRU6qR8FufAhtb78R5aSijuPHJnzSwPuvhUkTyXKBOvE8Ij8V1+BxEILBpBFPAHJPrXjC3mgr8ij/Uy5MNthVKZogMlHk+jL5YtLzB7/7XfthmMCxQv5Hv/eh/f6P3vfzI/8Wkxi2bO8jv1T4TvHYetREhevD90mICDlGEKAIW3nt7EmfZPL5QoiDAZuAPWY30WQyFS0O8Pt9hPiLkIHY7J6cKULTah6Si4fN4GCviyDYAASXmHgHuXKwM/HOfNj2OOT4UWA7ensK7l2EDcSjJxZYWJzYXv9u6OstumcrthQb9r1gk/GoQnDDqwkPJrx0uSY7ifujk8fYGONMeO+b9k6wzYg1hH7HCcyjHVLLVg3ny46jnO+TYOGE8EAWJQhbZrGl0Yx2eo0EtKjv2v5dINSTLPz3fvh+sMMf2D/+wx8EW/wd+/5337LvvHvRva+4bnguEdKMreU+HqqPgu8BryuEOq5PdL1DHxju0w+Jbx8JUUIIIYQQL0AkFLFDEhMSdk6LV7KTLghtFy4QXJh0IOYg6vAaBuYMmJmgHJ8ec08cQrZi2L2IHX9YjeZzmARQo9cfCtUTCpcNA2+EFyZTTDnIA+IeAaEtTJDi3EyxeEU9sRDG6jW5pZi4PGqSwTkwUWJwj+DCSjoeV2xBTlu5BhSyQtEWb9Qj8MlaIe/vjcNUCuH9TNJ8UsL7um/lM/25QNxWJjhM/BCnYjiG+ESYIPmk4h2jOEc+j7qj7+OhZxrPIUbhqYRQxC6HJNH1Lci7OVe4hnwOK/l4PPDeuFAH3zNeBVwT6sZLgokpJ0DdvuIeJld8v3x+DN5zTO7wHiPUhMeIbk8S24QQzw52D88dRHt+m9gBhJnIXn7TNvE7RXTG7hK6hWDF7xdhinBkbAK2artnkueVq9Z8YQCBBc8n6uV3zo53gI3BPmDzyU0E1WC/WFRAEMOGxl452JLt7cIm492JuE4YHLblUXYZyGdEHW5TB/q6NpmQ7uh843P+5llHcIxrg1hPezjP3l7aRBhzlByd9/EZfg27Cyu+I2poE/0S1zn2Wo3h2tB+Qh7ZqAI3JfoPF/NDXZE9/uZ3sd0mIwzizXvq+KQvpLBwE4V1h+sU3gf0rVEdUbfh1zvYWtrNZ9Ce6PuJdpjdfr05l+3gBYdHbRzSzff7KOFO7C0SooQQQgghXgAf8IbBOANYVsp9IBwmPdvG2A9gYkK4F6uyhHExsGbCgzB18viEr0yPDZOH6KEQxaCfBLoMlhn4P2p4zCSLyQfbbTPopk14BSEwkVPjUZMYnmP1n7C22/fu+458TB62izy7gXNhMkTh/m5ggsNEg2sRi3DRxOWhyENbORe8rZqtyPsMEHHIa8JugkzcuEB8B4hykUj05OEuExMmOtMTo9Hn53L+PZIjBmFuaXndtsLEcPtEi4kkkzfey3XnMwhPxCPLwwKfMIlBTCPnySdfXLG7s3P+nRKGuL1+IcTzg9cOojChvdgP7MjjPI6wV3ja4D3KfcQKwuewxdhkdrXEO2i7HeH3Sv3YWGzTo0DsoC6Ed+w+Cwp4ey4uBZvsgvXjwe6QG4n8SuSwajQbjxWiHgd6GGHJLHzQL2wXfZ4Fzhf7SX4lFk0QqTgXRDVfHKmzyUaU3zD2CovBTt+5e983fSABOf0BNjnuG58EAhO2m/xWeKLhcYvXFvYREY/iCxLBbj64LuE91M173FM43PedXlfWvA+kf34SvMZ3k71+x72/3Juu83z9oHh2lKxciF0QueEqWbkQQoiHIFKw/TZJUpESSGZLHiVyMzFw3068couQQfgHggfJt5nw+Fb+YdBNrpDtkx4mOoQ20Odcu3nXE7gyMKd/GRse8vAEEmoz8MYDgD6KgTWrw4CwghcTggeThrh4KN3MgifTnb1PLo9VXzUmITehbuxQxAoxkyJP4Bve4wl9u++/HdrhCYHnos/Dk+i18yd9NRtxKE6cSzJyzpXJQ/xe6uTz6UvZ5YjBP+fNZyPSMSlEFJsLBYGHuphgIBRx7eo1PLlI9r5m8/PLLqSRiwSRir4arzAEIgQm6qMP5loziWEHPoQrvKe4Vuw0iGcS7WFHJnZpok0k/OW7pd8fHR7wfCTuZRDqZlLLxI5jt+/O+fkwUcJ7aqC/5NeRdiBOMhGLz5kwFa41CdEJW2GiymSLyTJ/F7udLAohfhs2HmATAewKtpQwLvIEYV93wm8OoSoWOBDEyfNGLj0EqqlJNoP45m8TO4gXJvYNG4Yd8I0jxkeDDWNn0T5/Hd5R8wsrbssQrfDO4beOsIP31UawDZGN6NrkYM+wudRJwnDeQ1hwMZ93+8QxvCkXg63GJvO58ftXgn0hMTv263roJxC88PTEo4jPY3EDO4fnK/aP9/vnBtvKLY/JA8Wuobfu3HebjScoodMXz5/yPoQNMfgc3kPbsIts/EAfxbWjDtpAiDYFISjymGJHVfqhrPeN5AmMvZLwWsIm04dwne55X7TieRN5P98h58Q1mQ3HEeawlQhssXdTvHDDtfVcgXPL3t/RH/LdxqHVtHv79aYuPpMd+Sj0W1wrPFn5jDifmNgfJEQJsQskRAkhhNgJQslnX1711V8GxQyOET9IPI54shMmNAxwC8W8h4SwixDbSZNAlRV5hJbtMHlhMM4EhHwfCEQko0W4YtLzcKU67avJCEO8lskBA3nw1fgwgWCAHxf6sc+/vGaffnnF62fCEOevunlrxn7268/tq0s3IrFmYSlMhDZ8IhO/nxVkdoxaCs8hwpw4TpLuM34Oc+H1rC5//Pll+/izSz7Bwqsrfu+de/ftxq17dqW7CxP9KwIWXgiEwhCmSJsQ4Li+tD1acU+42IRQxoQHwYjPoW8uFnMPRDuEIsJLpiZHPDHwyMigJ9Bl8nE7TLI+/+qqi4efhPaxMx/eVHG5dPWWT2R9h6ZQL21jJz/CGpmc8J0yqWHSwzVjUkcbuc8uU0x8mZRxzlx/JlTx9b4UrhnXbSZ8R+XwHiasTF6Z6PK9bxcghRDPB2G6X1254bYA8QN7giCDwP0oEJj5TfN7RICKFgXG/H0IMDvBjvC7RohC2OH3znj/2PSEjQz1u00GwpRX1tbdfmFHEHfw7AQeY8O221TfKfSra96X8Jh+As9Zkq1jiz/+7LLbvCskIA/vRfhBwOG1d+/NR8eCPUT8x94hIJGvDruCeHbp6k37xW++dG8rRHHeS1/hIlA4F0Qc7CLH8fpC+D91fMoFLTyOEKo2t6rhfNY9f1Q2lwk2t+kLBYhJiPeXrt0KdS25vWaDCAQrxHjsMcI7feP508cfCFH0K3iI0rZPv7hqv/74q2/YYwqiInZ7YXHZPwu4NvQ7LGCQ84l+FZvMZhV877VwnddCexGjOp229xt+rsEmx9ebvuPzcL35fI6xmQh9K+IaC0o7+2Kxt0iIEmIXSIgSQggRwyCYwiorYVZMAhArSHCLCMXq+85JTDxYZoDL4PnY1Jh72vjgt1R85MCX/Bus3LKyjoDDCi4JWEns6om0w0D8Ye6nZHcQHq1CM1lhEE7+Krx9WFFHOFkMhckCfdl8eA4hKxahWNlnYM6kAG+p5ZWHK9PcUgeF/B+8F28str++cOaEi2rRyjkr82FSciWaRDAJqoQ2xe/1FfNwnEkDAg7nQCJ13o9nFY9ZKWcyQ78bT+SYxHF+5B3BQwCvIiZyrGIjhDHpuB/qR4iiDna7OhH6YXZPinf1Y5LFpA4vKvekWlgK7Q3XpFv4LK5ffO1ZWY/yPCUtH64Tu2sxqWJyhxca5wW8DoEMMYw6uFaE9THh4ZyZ5HFN+B6Y5NAmrjWFEJhnCSMUQjye2Cbj1cNvHOGH3xnh0AhM2LedRDY56TYUe0rOOGwQ9vBRIhRgf/hNY38QlckpxGICgg3vw5bH9WLH8LTBlmEHeYx9wX5h1xHyY7uI5w82gtcg/NAe+ge8ifCivBEK9h+vWOzgWmgHgpjbl9l5uxsKAjifTa6lt18/516qXBPs6M3bs/blpesunmGjlrtCFDYJUQ0bSb+AyOReZCySnJxyG0W4G/mwsHmIR2ywwQLH+kbXmyq0Zw5bF9rHueLd2t9fstXwOuZLeCXxONoZdto90FZWNlw09EWNq7f8/u27s9+wxxQ+C/tfD5/PuXB+HqYX7PNkmF+xiEMWLAR9zrMTPp9rvrlZ8dfx3pVwXfxct/VhXEeuOXYeG88OsMzX6E8y2Si/oNg/JEQJsQskRAkhhIhhQMwEhMnAZ19cdc8eBrCsouPVQ7LVx+3osxsQOKKV6xUXcBB/mFCx2s1quSdxDZOEGAbjbG/NIJoJD5MFPHWWVlh9Xwv3WdUmn1XbV6jxynrrjXO+W9Ix8qH094aJUN09sQjNqNYaPqFjxRtRijooTLIIQzt3+rh9593XPORidGQgtCVKPs6KN+FztAFxhvbH7yU8gud6CgWf5Fw4e9JeO3fCJ4sISEx6mGwgkCFUMcmJhKi6ex9xHy8EJopM1PB2OBvawcSD7yG81c+DZMNcKwS+jz67bL/6+EsXhFZDfeRtIbxjJHxfw+E67iyD/X3hHBM+oWGSEi6ji4e0l+sGBOtQD7lJOF/aHCUjX3PvAZ/srUbnTHvJ2cL72badSSJiJRNX3ptKKjRPiBcBm4ZdYVEAjyjsBL9xxuDHwngcAX8vQHBGyIhE5kh4wfOSUD7sF16xMfymEa6xZdgTHvvCQNejCe+i2C5iYyKvrGhXvdcvnHQbVuzJu00jfx632MFIXGFxILLJ2HT6JOweXkfsMsctYhbeXnw+9pwk3Nh2PIsQy+m/sFMIWyyq9ITPwkuTnfMiGxVtrEEf4yXYKl7PNXBxLdhcnx8Fm44YhN3kWntIIAsA88uhLHq7sHX0jYSi47XFAg4eueyWypyKvHt4xj7KHlMQ+DwRe7iueNgSbo0AiKcb14U+iXBIPFjpe1N+vaNQSkSo6FwfXm9eTx9KW996/awv7pAfzEP+tDCw70iIEuIxYMxRyDH2jXq0IspAnE6DlQRWgjHET2MqDDjpnBisx/HKGE6MN8jICSHEywl2nPAFBvSs5rI6ziowXjjHJsd98hPnaXoR6IvwRopzgCBwMDm4eP50GJz3+eCdQTPQpxCqQO4O2sfiCaISg3BWrglPqDei3f2K4X2s/jP4ZhBOYbLAjkNM5vAqQlRBNKLv4zy5pQ7KyDC7/0146McH773hglbslYVAxISB1yFE0Q6uT/xeJmNMFLheCFnUQVgeohEiFCD+RKJYzSc9vI8wDyZxtI8wRDwXPAwyTACZTDCZwmuA1ezRocHupKbfBcOf/OJT+/mvPnchi/cOh2vEpGgi1EE4zc7CZ3Pt+UxmPiTkZVJH/hi8LIBrxSSNlX7EN8YOG2FixsSLyQ9CXHzOTOJYucfz6903z9tbb5wNE7PeSIQK75UIJcSLwfga24An543bM27nJseHQxl1W4fn6V7gIs5y5CW6urYZfsMpO3/muNuhaKfMhwsQ2EEEGDyu+I0jbGOn8GzCNsf2gYKIhVeVi0BvnPMQQUQVbAS2FQEcEYnXEh6IV9VG164DixJ42b75+hl7760Lbq/iDRU4BuS4QzjCGwtvUuwrj7F12EnefyH0CXhSsZDONUPIoo+hDurivLkGvId2cM25z3EWExCH8HriMYv3iHbYetozPTHm38fVG3fsZ8Ee46GFWMV14Tsil9ej7DGFsGj6F2wx1xAx6sK5E767HmGQ2FEEN/ImumiXjBYGuE54jnGu2683XmNnTk15zioWYugPuF7Ydc3P9p9E6DC1RYcQjwDRiLhk3HsxroQ4+ICyUul6RM0+k0cUq8uvXzjlg2FgVRa3fga4iFSPSpwohBDi8ONCVCisIn/+9TX3lMVjhsEtXjqTYyN7IkTFHlGs4BI+QYgegs35s8ddBGHSw0QFGNZ5Uu7QbxFmQZgHIg6TFSYZgMDEqjY7KSGE0B8xSWDFOQaxa2V1072Y+GwmHYQ4xHXA8GDUl+FlwOQlPtf4ujDo5/MJ1eD9eCHFIDbRbsI1mDTw2X290fbaO8GDiWuLCIcoxkQM7yE+D5EpanuoI9RD4nB2/+M6IMghtjGhQED773/3K88HwmQD0YpJDyvp8S59O0FA+/mvP/e8LHwW4tr3v/uW/f6P3v+tXDPxd4SHBHlM+I64BtvBKyI+V74/2iyE2DuwffzuCPG6fO2WCxX+mxvud3uMELIXYE/4ncf539gl89TJSV8gKOTzjwzpw3bxWuwY7yUkbycsWpP3D/GHWzyAwEOAq1UX9N3GLCx7GxC7YzuDTUdEwaMKwRu7iIC03VuWxYzlZRJ0483FDp8Vfx4JPNqEIfXQnoYSe1NtB9GKZOh453JOCDoIbNjZ/mDPR0O7Y3tMu/kesN/0VQht9Bkc++VHXwSb/GtfJEGkY+EGL18WFh4HXlRs2IHXKzaWc/u//6s/sT/83Q9coEKIitn5HSFc7YR2cI6xSIaIJQ4OCVFCPAaM67/7z//d/vyvfuZGlsd78XNhwMtqKDHS333vdfvR997tHhFCCCHEXsJkixxVJFX/6NOvfae/733nTfv9H33Hpl2IGvUV/kdB3//v/+yv7S/++898osTq/ofvv2G/8/33XMQSQgixO0jezqIKHqoIUZ3wDw8sRKg3L571+48Dz+Nf/Ppz32ACccmFqH/5J/aHv/dB9xXiZUKheUI8BuKoWa0gpwOru8QVv4gQhcc9aj2rG29ePOOx2wyAWTkXQgghxN6DZ1i91vAwe7yZSdTu4R3JpHs8sbq/fdcqCtuHe46ZyzdCuekhNAhPb4RJEqEyrNw/LomxEEKIx8NcCs8lPJrYsALPWUIo8Z4ColC222MKSdjZZZXNL65cv+3eTv39vR4mTfggHqbi5UNClBCPgeSuGEfEI7yhGIjGRvJ5iHZJSrtL6ofvv2nfffeix4zHuTCEEEIIsbewkMQkp16v+06AiEzkDWGRyfNNVaq+Oo9AFRdyQLLjFmF8s6HvJyz/wrmT9oMP3vYFJEL+tK23EELsHkIAmftEu9ZFu/d5zqZgi3ECIP/TdntMIbTv6vXbni6F+0AuKnJpEWpNiLl4+VBonhCPgThzVHhyPuAG+rc/+cjWNkiMV/+tvA/PAnHHxG2fODZp/+jH3/OwPBKbajArhBBC7A/ktYryqix7KAjiEsIUAhV5tcirktiRlJZjzUbT+3pyVpF35e03ztp3333dEwczidqei0QIIcTu+PLSDfvk80t27eY9z5uFrWaulC/8trdptKDQdm8q7Dc72128cNrOnpr2HIXMr8TLh4QoIR4DPw1WTDGMP/n5J/aXf/MLH8ii3PP8biEh3ulgMIl9JscEOzSwzSmeUkIIIYTYe5i84M3Mzk7kF2EnLZKnk2g33gmXhaftkGyYxLVMdtj56cSxcRsdHvSQPMQrkvJqhzshhHh+2LWPBX/CoK9ev+Phd8yxsMs7YUFgYKDXRoYGXHjCCwqPqGhn2sxvJVQXLwcSooR4Bn7zydf2s199Ztdv3rObd2Z8959nhcEquSiOTY/be2+/5vmhSFaOe78QQggh9h8Wle4vLNvi0orvPEhuEnaQYuLD1uPbYVXedz0cH/GNRdj9lo1GEKi0eCSEEC8OeftIgcKuqOyCh01eWF595I7kfaWiDQ2xQ+qQ7wg4FQo7C7ITn3h5kRAlxDNwb3bebt2974IUYXrENT8rmXTat32+eOGU/cHvfNfee/uClYpFKzzC9VQIIYQQew+eUUx8CK/nltxQJDInMS45IbeTTiUtn8u5+ERYXpzcnJyR8oQSQogXB0/VVrvlYtRWueo22SNRgk3eSSad8h3yctms73JaCLaZ+3ioipcXCVFCPAN4QK1vbNrPfvW5/c1Pfm237twPg9fGMyUvZ5c8dsZ7583z9uMffcfefuNc94gQQgghhBBCCPFq8c3sjEKIR0Ji0r7eko2ODNixyTEbHR5wL6dngfedOTXtpa+3p/usEEIIIYQQQgjx6iEhSohnAHdQPJtIkIegND05Zj2Fgj3JQz8ZDhKWx04O508f97xQimUWQgghhBBCCPEqIyFKiF0w2N9r58+csNMnp1xUSqfSj80XgcfU4EDfg8R6w0P9ln9GLyohhBBCCCGEEOIoIiFKiF2AsHT+7Ak7fWLahahUOvXYHXQQnYZciIq2fGbLURLsCSGEEEIIIYQQryoSooTYBclk0sPtBgd67dSJKfeMImTvUYyNDtl337toF8+fsr4+5YYSQgghhBBCCCEkRAmxC/B+SqdT1tdXsmNTY3Z8ety3dn4Uw4P99tbrZ+3s6Wnr7Xm0WCWEEEIIIYQQQrxKSIgSYheQD4qCF9SJYxN25uS0DQ32+656qVTSjxGyh0hFXqihgX4XqtLpdLcGIYQQQgghhBDi1UVClBDPQX9vyXfBI+yOELxCMW+ZTNrFKHJBXTh7wk4cG7f+/pLnheJ5IYQQQgghhBDiVUezYyGeA8LzCoWcDfT3uvfTqeNTnsg8m8nY6Mig76w3OTHqO+eRV+pxO+sJIYQQQgghhBCvEhKihHgBCvmcnTo+aa+fP2Xjo8Meojc+OmQXzp20qfERT2wuhBBCCCGEEEKIiEQn0L0vhNgllWrNFhZXbOb+gn3x1XW7dvOu/eh779iPvv+ulbq5oUhwLoQQ4uWlU1uzTn3TrFkza4XSaXePCPHs+IA7DLsZerfb7fBnFG79fng+kTRLprjDqyyZzloqX7Jkthju5y2ZyfnzQrzqNMMPphFKrdm0aqtl9VCEeB5iEcRtMrY5/F1hm42/qTbloUySDXM6SiGXs1IhzPFS2GvxIkiIEuIFaDZbLkatb2za7bv37f7ckp07c9zOnT5u2WzGRSiF5QkhxMtNe+mStVeum1UWrVNeCk80ukeEeHZiAaodJjmNRsNajabVm2FS3QhD8XQuKghSgXRx0ApjZy07MGWZ3jHLlIb9eSFedSrNpq3VarZYqdhCuWzL1Wr3iBC7AxEEu9wKdrkZ7HIz2OVmvW6des0szO8SzYd9/UCpZP3FHpseGbHTExMuSIkXQ0KUEHtAPRiulZV1W1vftMHBPhsa6LOUlHIhhHhp6eD11AqD0Hbd2nd/aq3Z31hncyaU++H5evdVQjw7/E0hQrWaLauHiU6j3rBavR3mO+H5dME6qUIYmUdjh0zfqPVMv2WF8fOWHwtl+GQ4lAlFIf/i1QSPFbyhEKFmt7bs9vq63dvctPlyufsKIXaHe0GFW0SoRrNp9fC31QylXa2Yhb+tTrXqXlK4rY72D9hQX5+9duyYvXfunA309HgKFnlGPT8SooTYA1qtttVq9TCgrFs+l+smKZcnlBBCvKx0mmEAunHPS/v231lr5pdmhOg1tsJBheaJ54BJTyixVxSr8LV6x6qUZspqrbS1OtHYIZUpWLo0bPmRU9Z75vtWOvm+ZXrHQxnx40K8apQbDVut1ezuxoZdXlmxm+vrthmeq4QixPPgHlGUYItb2OZgl71Uq9ZYX7Pm5qY1ymVrVipWyGYtF8qF6WP23tmzdnJ83KaGh91TSjwfEqIOGL/cDGC7t9+8/N3nHY5374qXgkhT5ytkoOl3wy8sDChDSSSSlkimLBkKt0IIIQ43ndqGtec/DeUza9/5O2sjRJEfSog9gvFCLcyhq3WzjUrHS2uHxpkdPGYDr/+R9V34PStOvGb50TPdI0K8WqxUq3ZvY8OurK7apwsLdmN9vXtEiL2lVatZNfyd1dbXottQYs5MTtq7Z87amydP2lunTtnksMKmnxcJUQdMp1W3dm3T2lXKut+P6TQr1qmHEl7TIUGaVlxfGnDtbIXvrNFsWKPRsnqjaW3c65MZS+WKli2UrNA/bsWhY5bv02qmEEIcdjqVFWvd/Qdr3/2JC1Kdxa+DsdfKu9g7GII3w1CvGYZ8a2Wz9XLC6s0oYW5MpnfUek6+b6UT37G+cz+00snvdo8I8Woxu7lpXy8v27XVVbu2tubheULsB+0wn2uFv69G+JvbXFiwrVBipoeH7dzUtL1z9ox9eOE194wSz4eEqAOmXd+y5vp9a67NWnP1rrXC/ZhWGPS2t5atzSos+ScQo8RLgbvXN2pWqVVsq1yzzXLVWsmsddJFy/WOWM/QhA2dfMdGz/3A+qcvdt8lhBDisNLZmrfW1T+z1rX/Yp31u9bZnA1Pql8W+8PyVsJWtpKeM4rQkHh4nsr3Wm74pBXGz9nQe/+jDb75J/68EK8aCFA/n521G2trnhdqra5cfWKfCPO6JGJU+DtbvXfPVmdmugfMhnp7bWJw0L574YL9+J137fz0dPeI2C0SovaJdm3LRad2dc1aiEuVVWuF0i6vWAtPKAqPqxvdd4Txbb1s7UbZOs2addrN8IQ8og4v0W54Sbby7ClYMpe1Rhg41hoNm1/csIVQyrWOVUIfmcwULVvss9LwtPVNnLb+UIanz1j/6DFLF3rDsYFunUIIIQ4LEqLEQbJaTtlqJWXVWrRzUzw8T+ZKlsObevSMjXznf7LBt/8v/rwQrxpXV1bspzMzHpLHjnnrEqLEfiEh6kCQELVPNDfCAHZzwRort62xcMUaSzetsXzTPaA87C6UKPzu4aD2QTiefyVxEYeSbt6nTCFvPWPDluvrtXZ4Dpf6m7eX7VYoK6tlW16ter4H8kJlc3nL9/TYwOiknf/en9iJN79vhcFp6xk52a1UCCHEYUFClDhI1qrpUDJWrTatESbYJDSHZLZo2YEpT1o+8uG/tqF3/qk/L8SrBgnK/+HePfeIWq5WPVG5EPuChKgDIfWnge598ZzEWzx3GhVrbsxZc/mW1ee+svr9L8Pt19aYR4i6Yc3VOy5Odepb4bV4PlUj76duibaJbnZLJFapHMISvu9UChEq695Q+b6iZYo5S6VTlkwnrdlqG3vetNsd30mPlc16uK1Xy9aoblmjVrFkKhWqavhWzMW+Yf6ILJFIuZeVEEKIQ0Aj9NXLV6yzctWstm5WJ6ejFojE/lBrpqzeSoUxRLRzU7xOzDghlStZqthvPVNvWmHigj8vxKvGUrVqtzc2fOe8Clvtd8VaIfYc5mXh76sT5nDV8DdHiSnkclYqFHzHvFPjEzbc19c9InZLsnsrXoTwx9puVKxVXrb6zKe29eWf2eYn/842P/5fbeurP7fqnd9YY/nWN8LwxEuKe0IlLFPMW3F40HrGhixb6rFUJhtK2rLZtE2M99rFixN27uyITU3228BAMTyfcmGKJOaba2t28/Nf2ud//X/Yva9+adW1+9YIfxvuESeEEEIIIYQQQhxhJES9AJ1WwxOLtzbmrTF/2Wp3fmPVux9b7d4nVp+7ZI3FG9Zam7F2edm9oNzTSbzUJNMpSxfylu0pugCVLRYtlc1YMpW0ZDLpnlKFQtYG+gs2OtJrU1P94bZkPT05S6fDz61j7nK/sbxgi/du2MKtr2zu2m9sc/GutfCKE0IIIYQQQgghjjASol4AQuuamwtWX7hi5Wt/a5uf/0er3vyZ1Zdu+A54nnBcHCnSuZzl+3stF0omn/dk5Y8Lpyv15uzE8SGbnhqwwf6C5XJpS6Wi15L7AUFq6e5Vu/7LP7fF219bs1b1Y0IIIYQQQgghxFFFQtRzEHlCbVpz7b57PlXv/MoFqMqNn1ht7usoIXk47onHxdGAkLxk0tL5nItQHo6Xy7qHFM8/imIha2OjvTY+3mujoyX3kspl036M1A/kjlqdu2O3P/+ZLd760jaX7lq9vOa5o4QQQgghhBBCiKOIhKjnABGqsXrXarOfW/X6T6xy7R+ssXLHOk2SjSvPz1GE5OLpXNaFKDyh0tmsJVLP9vMhVG98vM/Gx/qsWMx2n0WMipKZr69t2srsLVu6/mvbmLtmzVq5+wohhBBCCCGEEOJoISFqF7A7HuF27cqa74xXm/nMqrd/ZbU7v3YvKM8BJS+oI4nnhnIRKue3nhfqMZ5QOykUMjY20mtjY70uRCWTD0P5GvWGbW2WbXXuti1c/8g25q5bs7bVPSqEEEIIIYQQQhwtJETtgk69bM31+1ab+8oq1//Bqrd/ac2N+e5RcZTBGyo/0GeZYsETk++GTDplPaWcDQ4UbWiox2/zuShEL2Z9ed7uXf3CFu/dsnq10n1WCCGEEEIIIYQ4WkiI2gXtRsVamwvWWLjqnlD1mc+sXV7qHhVHmVQ2a7nekmWKeUukUt1nn41MJmU9xaz19eU9T1R/X8Gy3VxRMZurS3b/5mVbmb9nDSUtF0IIIYQQQghxRJEQ9QwQjtdp1q25ctsq1/7Oavc+sVZ5pXtUHGlIUp5KWTKT7iYnf/wueU8DQaq/L29Dg0XL5zPdZyNazbbVa02rrC/b5vwN21q8rVxRQgghhBBCCCGOHBKinoV2yzrNmjWWblj50l96SF5ra7F7UBxlCMMjPxQeUeSGSmYyLk49D9lMygb6izYyWvK8UdtptdpWqzVsa3XR1mcv29YCuaI2u0eFEEIIIYQQQoijgYSoZ8DzQs185iF5ra0la9fL2h3vFQEPKHbJS2XwhEq6N9TzekSlMykrlXIenpfPpz1p+c6qaltrtj5/2zYW71qzplxRQgghhBBCCCGOFhKinoHm6t0oJ9TCFWvjpaLd8V4NEgnfHS9dRIjCE6r7/HOSSSc9aXm/C1EZS6UiYWs79fK6rSFELUiIEkIIIYQQQghx9Eh0At37YhsdhCZC8tpN2/z0P1j567+wxvItF6UI0xNHn0QyYYWhAcv393micnbNSyQj7bbWSVvZMlYPt+1dKlSbWzX75LN7dvXagjUaLavXm90jZv2DgzY4OmIT596z09/75zY4/Vr3yPPhHlzhtpBOW08mY6lu+3eCGai1WlZtNq0Z7jfbbX/uUVAndVFnslv/47zE2tQb6qyGuqmTukPF3aOvJlwzvodiuH5FBE4hxKGkszVvrat/Zq1r/8U666Hv35wNT8obWuwPa9WMrdcyVqk2rVGrWTv0mZDMFi3bP2m5kZM2+uG/saF3/5k/L8SrxuWVFfv7e/fs5tqaLVerttlodI8IsccE+5tsNqxVLttq+JtbnZnpHjAb6u21iTBf++6FC/bjd96189PT3SNit0iIegwdRKhGxcv6L/8/tvHpf7D21mIUlidvqFcCRKfS+IgVhwctXSxYNpRYiFrpFGyu3Wfrnbw1LWnBXPnzz0K11rA7d1dsbm4jDDgbVq7Uu0fMcvmcFQoFGzp2zk688wfWP3G6e+T5SCUSlg5lpFi0qVLJco/Z8a8VDO5qGPguVSpWbja9ICI9CuqkrvFQp9cfrsnjhKhGq2Urod6VMGAohwED9b7KBoerxPVCxOP6jff0RAeEEIcOCVHiIJEQJcSTkRAlDgwJUQeChKjHwC55rc0FT0q+/uv/r21+9h+tU9/qHhWvAolU0vqmJqw0MWKpTNZ3zatZxqqWttl2v93pDNpSu8ealtqVV1Sz2bbVtbJtbNasUvmmEIWnDCF7peEJGzvzjpUGx7tHng9EKOpEODrT32/9uZzlUynLdAUpxKZ6q+XeUDObm3Z7fd22EKJC5956ghB1qq/PpkOdvaG+gVB2ekbxXkSorVAP9d4NhTp5LCEq6R5lJ0JHdjJ8J3wf+a53mRDi8CAhShwkEqKEeDISosSBISHqQJAQ9RjIBVWb/dLq97+08pW/turNn1mnWe0eFa8CiVTKBk5OW9/0hHtCUWY7/Xa7PWQ32sN2tzNgq53irkPz2u2O1RstD8tjtzyEqRi0CMScTK5g+d4hv30RaBn1TfT0uHh0PBjPE+F2KJ/344hQi5WKLYRyJXTwXy4tRSF0oTzOMCCYjOK1Feq4EAzxmyMjLqYgeMViCiF+1Dm3teX1Xl5dfVDvqw7XCI8ohDy+E74PSiZcPyHE4UFClDhIJEQJ8WQkRIkDI9hfCVH7j4Sox9Aqr1jl+j94Yce8+vyl8KQM3qtEMpO2wVPHrf/4lLXDr4Twu0vtMfu0NW3X2iM21+mzDYsEncPOSKHgXlEXg+F8e3TURRAkIwSjq6urdnN93S4tL9vnS0vRG54A7+vNZt2r54PxcfvdYIB5TNhfnINqo163a6HeG2Gw8HWo91IYPIiHZMO1migWXYB6e2TE3gkll04/EA6FEN8+EqLEQSIhSognIyFKHBgSog4ELcE/BpKUt8rLnqC8XVnjie4RceRJJCyZTvlOeYTnQd3SttnJ2XKnxwUobmvhuZeFSrPp+Z+8467XPRTPw+eCoZ3d2vLOHc+oZwHlmvcjNq2FQv4nQu48EXkXPK3wiLq3uemvE9+EnFxcl/nQwa2FCQe5s/gutCoghBBCCCGEOOpIiNoBDmLsmMfOeK2tJWss37BWZcWVUfFqgEdKIpW2JEJUMsql1LCUbVnW1joFW+oUbd3y/tzLAvmaED4oiFIIReSHIlQOAYrcUCQrf1Z4H3VUGg1b79YZr94Cospqtep1c0w+Pt8EwYmdBNfDNWdFL95VUA6qQgghhBBCiKOOhKidsFtebdPa5RX3hOK+tfDo0ATxVSKRTFgylDhKKmtNKyVqNplcswvJeTuRXDF8og475CMiYflYsWjvjo7aa0NDNlwoeBgdxwgRO93fb98ZH/f8USTSjvM8PQ6SlU/29NhbIyN2ZmDAd37ry2b9vTHFTMbODQ7ae+EzCT8rdUP3RHT9ium054fiup8Mt4Q5kiNKYXlCCCGEEEKIo46EqB0QkteubXlYXru65knL2UFPvEIkul5RCCtdYSBrLeu1mk0k1u1Cat5OJJatJ3H4/y74gZO3aTwWogYHPV+U53MK58atC1FjY3YMISo8hxD1JDmE4yQ/J0k5O/FRd18u900hKp22cwMD9l6ol93hSpmMi16vuszC+XP9EOoQoLju3HJ9XIiKXiaEEEIIIYQQRxYlK99Bu75lzfU53y1v64s/s60v/6x7RLwqJNNpy/QULNtTtJ7RYSsOD3aPmG10crbWydvd9qDd7gzZcqdoLUtY5zkkhHarbSurFVtc2uqGhD78KWayWSuWeq3QO2CFgXHL9450jzw7iGnZZNIFIMQgdrjrz+U8KXa8Qxt5okhYvlWv2/W1Nc8VVe+G3RG6t51YRKE+PKFOhjqpbyCfd1FrO7yXQu4okkqStHwj3Cc0cGe9rxJcJ64fwh0i3tlQ+D5iDzUhxOHhQJOVp/OhFCyR7TXL9Voile0e6ELoLjv3htKprZrV1sOTh8CWJlKhhP4k12+JwlAwcrnuIk53YYJUB3iVh9KhzbU19zz/1pO+0+5kyhK5AbN8KOnQbj+Xrh3mere77a6G613f2Pd2K1m5EE/moJKVx+NdFljZ5ZjFQxZqeRyP1Ph1Mp4lZyq5Vz1FRXh8GEa4tLUQ2kzbGV8yF9gJ7SY/KXMAxv2HYVfruN0sZjNWflK7ud6kHdmen3ZPCddDycr3HwlRO2hXN6yxesd3yit//V+tfOkvu0fEqwJJynN9pVB6rTDYH8aofd0jCDcJa1rSNjp5W+kUbcty1giP288hRDUaLbt+Y8kuXZ73Aad3YN1fY0+pZCOTkzY0ddqGTr5jA9MXowO7gBblgzGnsKvdYC7nAhSdaxwCxs+fz0WQImk2eaLolMhZtFMw4h10wnQMhPcNIkCF+3QcO0PKYrNCx0aHQSdNLinEqFfZ5CBExZ0s4YwIef59hGMKyxPicHGgQlR+wIWcRGnKEr3Tlsj2dA90aTVdEPGydss6G3f3VRR5ZhDMkhlL9B235NB5sywiWsZFHod0B/XNUDZCm+952z3dge9C/C32BbQ7lGT/KUsMnLbQ4VsinIfFEx+ud2Mrardf73vddu+fJ7SEKCGezEEJUbEIlU+lfLxLJAH3WTiMpZF4wx/GtnNbW94exrw8/20Tt3sojNMZ/+N1vxPavRTaTD5XriPCzrfN9utNyoontZvrzSI685V9IXyXEqL2HwlRO2hVVq2+cNVqdz+yytW/tcq1v+seEa8KqSxCVK/l+0MZ6PfbndQ6Kat0sr6bHqm4n0eIqjdadunSnH36xYw16i2r16PVFCj19dnEsWkbO/W6Tb7x+zZ67kN/fjds94iiPMnrBjOAFxQrDY/1iArvRUhBeGJ1iPI0qDfurOnkKK+6EBV/H/F3IoQ4nOy7EIXXUGHEEoVBS/ROWbLvhFnPmCWKo5ZIF7sv6tIJtrO2EYk6XWGkU56P2oSnVDtMIg5qd188hxDKMiVLliYt0RPai3jWfzI81xNOKx29BsL16jTKXmxrLrQ3tHuT2/vhfNbMGhU/twOBNuFthlhWDNe5dyKUY972qN2hT+t6cnVoU2ibt30zTEC2QntpN9c9fAf70W4JUUI8mf0WohCfGJexUDiYz9sAXv+hIOj4uC0cjxcNGdtSWGhlYx4Ki7lsQsNYd98EkkdAi2LvLdqLmDMc2sw5+Hg9PL8TIhZYgF4JhWtJ+zmX/RL3HgVzEsbFCE4szNJe2j0U2u+eaE9oN2IUu4HTfq45i957ioSoA0FC1A5am4tWm/3cqrd+GcovrHr7l90j4lXhWYQoPKNaXU+o5xGhoF5v2VeX7tunn92zrXLdtrbqvq0/lDByx6Zs4uzbdvKDf2rTb/2BP79bMPJxwdg/zusGM4DwFHtH7RShYnh/3OFRngb1UhO3uM/G5/cqgxfZ9u9ECHE42XchKpmx5MR7lhh5w72JkuHWBZ5UPhJztsFuvi42tRuRiFNesPbcJ9a++w9+34WRcOxAIPyuDwHnWGj/dyw5+qYZ3ly5/nAsEnOiniK0mx7A292MBJz6urXvfxza/rF1Vm6Ea3zfrBnafhDQ7oFToe0nQpvfsuTk++F690XhkDvbzfXmu6bdhBQ2NqN23/tFJEbtQ7slRAnxZPZbiMILh+iB4319nj5hulTyqIJCKlrIpcTjaB83h1vCwxBBEHJura/bnVDmymUXSg6K2HuLzYPODwzYqdD2/mzWvaEeN16Pd7/Gw2hmc9Pbfntjw+6EclAQpYHwx2ZJ5JWdDre0m/QVvvD9hHbz/c9sbdm90F5Si8yG+3tK+BwJUfuPhKgdNDcWIm+omz/zW4p4tXiSEMWvBeGpahnb6npEPa8Q5aF5N5fs8pU5F6EQo1qtaOBZKBZteGzYRk+8Zsfe/WObvPgjf/4oEQsx3smHwu3TQCCLO6E4tn2/icMP41UlHgshjj77JkQRFpYbsERxxFLHfmTJye9GAsng+Sis7Sl4eF5tw9pzH1n79t9ae+WqddbumFWXo05qv0Le8CgijxWi09jblqSMvxsJaJmCC2uJODfUDnyo2RXSXECb/9Q690P7F7+MhDRC3ji+HyDqIe6Fdvu1RoQafSO0/b3oWChPbneY7Ia2ebtnfmWdxS+idoe/D2/3HomTEqKEeDL7JUQxFkUUQciJRRE28mGHaI49adznC7jht7pWr9vtrphzNbTzZrhPNACRBvsFsw+EMcQbNhFi8xvywSJEMa6mPI1yuIYIZ3G7r66uej5XPI/2qSd50G48zUYLBb/e7Oo9VSo9c7s9JDK0GxHty6Ul/5ugzXsmTkqIOhAkRO1AQpR4khAVe0LNdXrtdjtKVk7OqGCuuq94dhCdFpc2bW5+w8PyarWmddrRz5Fk5YVS0XqHxm3o+OvWP3HWnz9K4OZMZ0MnxCoIMeFPwwWo0MnginsvdD7E5e8ndJS0sScU2hivjgkhjj77JkTlhyIhZOTNyCNq9M3IK4c8UY8RRLbTadbCILlunY0Z66zesPbsr62FZ9TyVRdM9tRrazuIUKUJS/SfsuSxH7mIZsURS+QHI0EHj6JgMx9FNNTEyyiU8pJ1KkuhzT+x9p2/93Z7QvDGZvTivSZTisIHQ7tTp/7IkpMfRB5cxeFwMFzvp7XbQx677eZvYubn3u720mWz6sqeeUZJiBLiyeyXEBXn7WQjnjeHh13I4THPYxtYOH0c2AisW5y0nPHpJwsL9tXSUhT6FtoZ/ZL3nlgkY0Oi97u7VI8Wix6e9zhPqJ146ozuuBohDc8oPIy4v1+JwON2I0BxvU/39Xm7n+TBtZN4QZprfG111YU02kzb9wQJUQeChKgdSIgSjxKifCwajlUsa+VO1m60h+3r9rjd7/RZw1LW7jy+k3ocaE6Vat3K7gnVcWEq/jUmk8FIp1OWyRet2Ddi+dLDnfuOCgg6uEGz+sQKDreZVDjnR3RAcdggqx24P7MCci10NrhA7ycMQIhdp3OkjfHOg7STjlQIcXTZeyEq2AxEj77jljr5B5Y8/ruWGDpnSZJlPwcdwvEIGbv7E2td+U8uSJFg23NG7Qe5AQ/Dc0+o0PbUid/rHng+Wnd/aq2bf2UdPI3WbnoOqX2hOGrJoQtRu0//iaWmPugeeD7idrdnf2Wd1dBuPNH2AAlRQjyZ/RKiyEvEQuPFoSF7d3TUFx6fFwSpj+bn7YulJQ8bQ9jZrwTmhOMxln59eNh+PD3t7fZd8kLZLbSbxV28jH41N2efLSw8cuOivYB2s3HPe+Faf39iwo7R7nAejxr/Pw3azZyA8uniov3q/n0XB19Y/JMQdSCk/jTQvS8C7XrZWuv3rbl6128p4tUiGQxkmtWEPCXvt4TftSxld9uD9mVn0r5qj9ud9pAtWY9tdXJWNkp21wVhq54qWDNbsFYYbLZzcemxVrhtZvJWT2as2u648n+UylYouP/S0RFuR6HzRJzaCR0NnlDEgNPRsNJEbDgrTY+qey8L4heJED0sMBTkJ7yknqejF0K8RLBr2vIV66xcDUZo3YwcRy8SrOAheX2WHDhlyanvuWeOh7mlc90X7BLE8ETarNlNBo4AhXcOYtQ+4KGEJ37XktM/8MTk7gn1InRCz0pOrHAenfKiWXm+e2BvIRl5avr7D9sdvoMXIm43IXuE5+2REFVrpkJfl7Jms23t0OfF68SEa6byvZYuDljP9JtWmLjgzwvxqkHeJTxfSApOQnA219kLWAh9b2zMPaFI9L0Xnu+MZRlDMm7dLyGKtiLi0O7Yi4tF0id5cD0O3oEnEl5giHzL4RrHCdn3uvW0G+8twh/Jx+XtDp/9OM/UJ8E7eC8CHOF68+XQFwZeuN3h/Ynw99UJc4Bq+JujxBTCHLEUzmEK77nxCRsO5yCej91Lj0K8giBEEYK32OmxS+0xuxLKTKfPlsPjVSvamhV2XdZDKadLVs/3WbPQb62egQelWey3Rni+linaVifhsedHrdDRsfJyt7tiRIJE3JofBSIVgw68oa6srNilUFj9eFS9e1pCR+weWGEgweDnxtqaLYTHuAQLIcSuIIcSO7axMx6JvvtPvJAoQkLzBLmZCiOWHDzjoWdGiN+eg+AVhovZkiUGz7pXFDv7vSjU4V5KI29EYXLPEJa4O6J2k0T9QbsLQ91jz8+Ddg9diBK0+1RICPEywq+XULY4OfmjdmrbDYhACC3nQn2knCDH6H5ZCLz1yWM1Xiy68MUC6ZPyWT0J3kd95MkidxN5p1h03Q+hgM/Be4twPNpNlMHziGdAu4lUGAt1ebvDfYRECRwvB/qehHgGEKIIwSM5ebWT6SYp189HCCHEM5LORyJUaSraHW+PSGSKZj3jod5xM+7vNXhsFYajtucGwmews1+2e/AFIK9UOrQ312uJfKjXd917Tu+wR9FtN6F5D9rNZ74o3XYnsiUX5/ya70W9QogDBS8aRBHEEPd0T0a7Gr8IvJsQszj9BPW7MPKC9T4KRDPELsSXZ8mr9KzQburFUym5h/XG0G7yw1L/XrUbbyrajSBV2qd2i71H35IQzwCiU9NSVrO0VSxjtc7z75YnhBDi1SNBsu+eCc8RlcjuoSt/psfDzxKlUBBb9hrajZhTmjRP8o1n1B4IUdRBiBsiVAKhqzAYPivfPboH7HO7CbN0jzbuS4gS4qUDgagvl3OxiJ2RyVP0vB5FMQgieCZRHzlGEYkQufYjr2gsvOAJ9Dz5lR4H14Nd+Dzp+T61O65/r9pNLbQbDzG8ufaj3WLvkRAlxDOQtpblrWFTiTV7Ozlj55PzNpCokKbcEnsePf1qQLJCEkSe6OuzswMD7hZNh/0ocNul48JlmB023gqFzpeOfT+7GuruDZ87FT6X+Pvzg4PeybGKJoQQuwIBIz/ooosRUrdXpKKQPzyL9sRT6cAJlhYhJ5lB5ek+9xJAm8P3mMCrS0KUEC8dTIIRLPZrLIkXFB4/+1V/PDZmPL2XHlfUh0iEmLYfnly0G5FuLz3FEABp92BX+NuPdou9R0KUEM8AghNC1GRizd5KztqF5IKEqBeEDgjXX5JEIkRRWJl6FKyY0CESB//myIgX7rNytZ+dDXWzwjJVKtmpvj7fNY9VHFbNhBBiVyASFQaNpN94R+0Z1It3DmJU6rc3ezj0kBvqgRD1Eg1LSRTP95gpRveFEC8VjPFioYhNE/YaxJEHQtc+1E8oIULUXntcUd9APu9178cYm3a7EJXaux2oqYV24x22XwKa2HsSnXhbDuG0ystWn7tk1du/tsqNn1g1FPFqkcpmwpi+1/L9oQz0+21MtRPliLrX6bcb7RFPXt6ypEV7qe2OVqtti8tbNj+/4bvjbP8pZnI5K/X1W7F/yHoGp60wMN49cnSgg2PlAg8jkhYiSj2NBrvnNZu2XKnY9W6Cc3az24/tZYGOjFUh39o3tPFYqeQCmhDi6NPZmrfW1T+z1rX/Yp31u9bZnA1PPv9GBYnh1yx1+k8sdeL3LdF3whK9k90jL0an0/ad3Nr3fmbNT/7f1r7xl90jewReXKVJT9Cdev1fW2rqw+6BvaG98EV0nW/9Tbjm983KC90jL0jc7ukfWOrc/3XP292a+aW3ux1uOxt3wwBhpXvk+VirZmy9lrFKtWkNdmrt7giWzBYt2z9puZGTNvrhv7Ghd/+ZPy/Eq8bllRX7+3v37Obamm94s9lodI88H4w7GYeyY97vTk8/1iv/efnl/fveXnZyo73sAL2X/KMTJ+xPTp7082C8uldiF5sBsZnQ54uL9otwDuxwvZfQ7n9x7lwkdIXHe9FuNjXiOrO50Cfz8/bxwsKLtTvUl2w2rBXqXA3f4erMTPeA2VCYD0wMDtp3L1ywH7/zrp0Pfzvi+ZAQtYN2dcMaq3esNvOZlb/+r1a+tMcDOnHoeZIQ1eok3Aeqahkrd7JWt9RziVBQrzfty6/v28ef3LVWMHjt1sOtRnv7+23y5CkbO3XRxi780EZOv989cnTAmwlPJ8LcWMUgpv5pIDixJWssSLGT3n6bMFyIWb1BgPLVm3BfCHH02XMhavCcpU7+gSWP/164f8Z3zdsLOu1mMI5Na9/7qTU//Z+tffO/dY/sERKiHomEKCEOFglR3+SPTpywPw6FxN94du2VFxA7RN/d3LSvl5ft4/l523rB67wT2v3Pz5xxr6i9imxoBHvJLtw319fty6UlLy/UbglRB4JmVDtJpkKn32PJwoAlMnuYNFO8NLh3EsJQs+W320klOpZJtK03UbPx5IYdT67aieTKc5VjtmxD5fuWXbhl2flQwm2uW4orMzZYXbaxTtWmc2nPo3TUCtvkkueJjv9ZRCigs4rD9OKwvkfVvZcFjy224mXlRiKUEOK5aTesU9+wTm3VrFXrPrkHtOrWqa6Gsra39ca0w+SpWY0KotcegSdXJ9Tdof2NcphJbPm57Bn73G6/1o3NqN17WL8Q4mBgUZMFzWq4xaOGxc69XNxkkRnxCZFkPxZN66FuvH44BxZp9wrq3Qz1VvdpsZfrjojIdd+ziIZQT3w9uOb7vUgt9gbNqnaQSKYskSlYKrc3u6uIl5B2x1rBQDartTCO3dvVi520w2c1m6HzC7fbSSSTlkpnvfA3KYQQ4uWm06xZp7xkna25SLzYK+qhro0Z64Ti9/eaVmh3DaFrZW+FIkIK2w0Xczrl+e51KXcP7gHddpsLf3vf7k5tw73mvN3NSvegEOJlAc/6pWrV1ms1FzEQjvZSvqiF+tbrdf+cvRSKYvD4ib2tENL2CgQi2o3AtR+pL6iX644YtVftppW0ey18l/vVbrH3KDRvB51Ww9r1sjWXbtj6R//WNj76X8KAoxUNPMQrASJQOpe1dCFvvZPjVhof6R4JY9k9DM2r1Zv2+Rcz9uuP7nSfeUjf4LAdP3fexk69biNnPrDBE291jzwEN1y8g+KQMULIngY/d37wdLh0jKx2YKxlsPcfT1oZvq84QSPeXfKwEuLwsteheR4q1nfCkpPfsdSpP7Lk9A/pcF54saG9esM6859b695PozCx5cvdI3sEO9mlMpYkx9W7/y9Lnfxx6IDyL5xwvVPftE5tPbT5F9b66n+x9p2/7x7ZI+J2T34QhRR6u4uh3S8WfvOg3Tf/mzW/+l+tM/dx98iLodA8IZ7MXofmxXx3fNxzLbEZTfEZU0U8DsbZeOTUw++Xtv7FzZsuGCG47PVImw10KKfZ1fkJG/48C7Qbi8MteaHIszS7tWX3Q+Fc9pI3hoc9HPJEN/dqKfv8jh/e7lAQoT5ZWLBfzM7aQqViC+Xyi7U7vFehefuPhKgdeChWu2GNlTu24ULUv7VOoxoK7u66VK8CiWTCkpmMpYNB7zs2Yb0TY90je5+sfGFx0+bm17vPPCSbL1jvwKD19A9bYWDC8n2j3SMP6QuGm0TahLhR2OHiaWCsWfHBSBMDTlI/Vg4QpsT+wV8HO4MQhsiggV34EBDJjSWEOJzsuRCVCpOEXJ8lR9+01Pl/YanTf9wVdF4sDUB7/lNr3fpra9/9mXVWr4V23u8e2SuCBUMwGzhpqQv/0pLHfmiJ3mlLhvIitNfvhPbetPbsr6x186+sE85jb+m2e+R1S535x97uZN9JS5RebPOPB+2+83dRu5evdI+8GBKihHgy+yVEvTY0ZN+bmHBhZLynx8fXzwtj7Pkwxl4K5aP5efvp7OyDRd+9BuGM9BG0/4Px8Wfa9Odx0D5C5ggj/Ju7d+3nod2rwQ5xjfe67cfCdT7T32+vhfHw68PDvtPd80Lb4lDCn9+/720vhzaz2P5C7Q7XQULU/iMh6jE01+/b5if/zjY+/d+ttbVk7fIqKlX3qDjSJBKWTCUtFTqi/uNT1js17kITZbVTsKVOyb5qT9gn7Wm72x6wpiUtmKvumw8OdnKjw7wYOiBWF6bCfVZx8Lp5HHSGrMxcD504CQivhE59IzxGjBL7h3s/hUJOLAY7dL5DYcDAd4inFELVfmztK4R4fvZciOqSGDhtqQsIUf/YEj1jZkW8bqPf/27sAKF+hIS17/08tPM/u6BDrqg9DfvbTnHUUtM/sOTE+5YYf9eSY++EBqdCSe6u3a0weSS0bf5za9//tQtp7YXPrbN2u/uKvSXRe8zb7GXqQ0sMvx61eZeeaL/V7tlfeqL1vRL+JEQJ8WT2S4hi/Hx2YMDOhHIulPEwVmPMthuv9dgzBy8c2sli77XVVU/4jbizH5C7lMIcgGTrzzIP2EksA9BG8isRpvjXd+/az2Zn9zy5ekx/mF8NhvHv2yMj9v7YmE2WSh7h8bztJhxvsVLxNiNE7QmhXglR+8/Bz55fEhKpjKVKo5YdPW+p4rAPWsQrQjBunqw8GGBuO+Rx6iQ9HG+202+ftyftcnvURann9YbaC1D7cT29vb5uV0Onx04RrAg8iZXQcdMpfrG46C63iFL71UGKh9Bhkh+ATp4BCtvKsrtHnCBTCPHqQMJy3ynu9n/3sDrPX9TZ/WIAuYkIxWvPfWwdvHRq63ubC2knjXJo73UXjvAI6lSWu7mRdrmeSWJ1PIoWvwxt/8Tay1eiROv7hF/vbrvba+E6kevqeXI60e6Vaw/bvXLdw/SEEC83jM1uhTE0AhdjM0QNxme7gTGe51aq1Wx2c9NFKOrZj9xQMXgCMY6fC+N5F7/COZDbabfQRhakb4dz/yiMTwnH2892c53wtmJnvkuh3cxjOI/dQOvidjP/+TTMa2i3eLmQuvI4krEQdcFSPcO7XjkTLzeITx12zWu1wwOEqISH5M10+u2z9pRdaY9960IUxpcQOzrPq6HDowPFu+lJYPhdiFpaioSoUIeEkP2HDpOVMgY7eKERx04HjIfafuQNEEIcYkhyjZhx66+ts3bDvWw8F+UuQYhqzfzChSjCxay+EdW1XzQr1llB0PkstPtmmE10BZ1dTlg88Xl4f3vxKxd0PLSttn9ClJHTKW73+u2H7d4l3m7qiduNiCghSoiXHsbOiDAIGghRhNUxPtsNjPF4D0IQaS+uhTE5QtQLhYc9BRaSXYgql+1yGNszD0AI2w3x+JTF7Tvh3FkovR/qI8Rwv8DTivnIPYSo0G6uPeF0u4F2I0TRbr63zxCiQrvFy0XqTwPd+2I7hOF1mr5zXnP1rjWWGCwqfOmVIpm0bKlo6XwuCr1LpWyx02tznT7bspyLUN9GSF4M8lcc7nW6r89OhEJ8eDGTiV7wCDD8vkNI6ChZkVBuqIMlG/6mBvN5myiVPD6e7wx3ZL5HheYJcchobLlI0lm5GkbO613RYY8mFUxOWnXrNCqRN9PWvCUI+2pWH4pSbheiPsbDwqorHh7oHjmE4c38whNldzbuRULOfopQDwjtZnyEKBU+l/Z0ygvWcSGJaxPKtrC3DudSD9eRtuOVhCcRXlyUpa99t7x99eJ6QNzuanS9tuYiD7L6RtRGCG1+cL0Z73Xb7R5b859FbSYhPI/3od21ZipM0FLRTrqhb45DT9xDP99r6eKA9Uy/aYWJC/68EK8ajF8RLRjLen7TfRBLPIVFKIT9IfIwVsYq8GvcPlYjnxJtIEQQQYUFYbx7vlpa8jYSLoZQEv2K9x8WNRF4aBPCGu3nOdq7Pfk6z8U5lYiSQDTDmwohh7QdLHD7ImnX/uw3XEe+R675WmjT9pxUO9vN+W11230nXPM4woN2Ix5yfM88uUI9ifCZHf4GwvdJiSnkclYK862p4WE7NT5hw2EsL54PCVFPIJFMWzLbY/X5y1af+yoMOg5ikCcOCxjvTLFgqVzWB6jJdNoWrWTz1mubnZw1LGWtUL4t4vh1EhWeGxy047291pvNPnG3DzxyMOB0kKwi0GGJgyMXvhtyD5CsHBGKW75HkBAlxCFj34SoUAfjCcQcBBF2uUPUSBcxBJEgksqE27SPQ5x23cUqPHra93/jeaE8rxJtq6wc3PgEMQcBrRzaEtrtAlQtDNDD84lMT+iYsqHtuaj90G5FnkTlRessXvId8jr3Pwrn8FHokGZcGDoQ4nZv3ndBLPIeC/0fz4c2W7rb7vh689r6etTubk4ob/fsr8227u9LuyVECfFk9luIQqBBDGGs7PWHx+T4ZIGXsRrj63isxmcjmuD1RGQCnj0IUYg6tA8hZ48kkaeC9xLtRThDhIoTdZNziXEneaRiEH4QbFiQRrzBC+qL0HaEKM6FOg5KhEJcot14Q3HNYxGKBVoWbne2O/Y4o92EISJCfbm05I855z1td6hLQtT+o2Tlj4EVMhKBsjq58fH/bltf/p/WXJ+x1ubCwQ34xLdKIhjB4sigFQYHLNVTsnRvn922YbveGbEb7SG73+63dcsHoxklMn9WMLL1RisMNlvhD637ZJdk+Mxk6DSS6YylM/lw//G7qrFN62AoJFhkJzYEKTrLJwlRdDL3gjFl9YCOEzdWjDudgdg/EAzpWNnlkESYiFDsdMjOIUKIw8l+JSv/BggfCE6DZy05fNEShSGz3IAlsiWzdC46DmHc0aksRcLI2q3IG4kQM8q36a1dmvJd6BKlaUv2nzTL0/ZIkHIYSyH6EI4Y2twObUfIQYDba4+iZyYRJpN905YI7U30TIQyHrXbhbTuxIfrTdL30G7aHHlRhXYjnu3130AXJSsX4skg8uxHsvKdsKMx4zV2cxsuFGw0FAQddjtGmAJEKkQUFnYRyMjZigD1PDma9opYvGEXbTbDYVOcgWzW5wsxjPkJ6UP84fqthDaTW2k+tB9votgb6SCJxTJ2lqbdRHewc+HOdiP+VbrtZj5DihH+Dval3eGzlKx8/5EQ9Rj8svilCX/0V//Oqrd+YbXZz6169yPr1JQT4FWAVY/8QJ/l+kqW6++z/OCAVZN5K3eydqM9bF+3x+1+p889oxCjnpVmq2Mbm1UrV0JnFf+ZdckEQ5zBq6lYsnzvsKWzj9+K9Xhfn53t73cxg84SI04HGXeSjyJ2ycV4k6sIMcp3zQtF7B8MXvh+8IZ6c2TEvdd8xecJoqEQ4tvlQIQoJ9hsRKd0PtxFmOqGiHmYWGzP2USjGYlOCDgU2vJtilCQjDy3XHiiIPIE2xaejI7Tbm9nO5Ruu1nM83Z/i8PPuL1x+/2aY4+3Xe+43bTZ206796+vlBAlxJM5KCEKK4A3EV5Q3FIYW/N87BGF8MFcERGEsbWXcP/bEHJiaBntZPEz3W17HD0RQ5t9dtttO95UCFO0/9tq+bO2G4u4/ZrTbtq/L+0O9UqI2n8kRD0DtftfWWPhqlVv/dy2Lv03a20thj/QMEDBpVscXYIRzBYLlg6lZ3jQesZHrBMGrESLz3V67XZ7yJY7RWuGx8+SKwp3+3q9aeVy3eYWNmxltcxYF6savSDQPzphQxPHrDQ8acXBKcvkS90jv814T4971SBCsXqzG1FjNXTgxLSzAoI7626TMordwXfDdzQYvquTfVEuLyHE4ebghCghJEQJ8TQOSogSQkLUwSAh6hlobS5aq7Ji5St/bZsf/2/WXLtn7UY1Wh0TR5pkJmOpTNpKE2PWf2zCEqm0tS1hVcvYVidrdYsePwuVSsNW1yq2tLRlN24t2ez9394l6MTF9+3Mez+w0ZOvW08YdGaLA90jvw1eNsWuABWv1jwreEXhlksSRlYVvs0VnFcBX+lB2Oy6H/PdCSEONxKixEEiIUqIJyMhShwYEqIOBAlRz0CnWQ9jz4ZVrv+9bX72f1h94aq1Nu5bu7oeDuryHWkSCQ8z6J0cs/7jU5bKZvzx8ySWXl+v2Oz9dZuZXbNr1xe/IUSRGyqVStqF7/2xvfn7/9wmzr1rxaFjlin0d18hhBDiIJEQJQ4SCVFCPBkJUeLAkBB1IDw9nkiEq5SyRDprmZEz1nPxT6xw6vuW7pv0nUyiHA7iyNIhL0fbWvW61TfL1qzWwjzk+UIy6/WWe0QtLG5atfrNzjOXz1pvf8n6hsesd/SkFQamLJVR+JYQQgghhBBCiKOFVJRnINHdSjndO2656XctN/W2ZYZPWapnxBIuFuzeO0a8RHQ61qo3rL7VFaK6q5TPSrsd3t9qW7XWdK+o1dWy1WrfFKLyhaINDI9a3/C4FQbGLNszaMl0d9chIYQQQgghhBDiiCAhahck0jlLFgYsM3rOCmd+1/Knf2Dpgelou195Rh1pWrW61TY2rFGpWru1u9CMZrNlW+W6bWxUbX2jZptbNWs0vllHaWjcJs69Y4OTpyybK3afFUIIIYQQQgghjhZST3YBQlSqOGjZkXNWOPf7Vjz7++H+WUsV+vyYPKOOLs163Wrrm9YoV6zdbLpX1NPSq3GcQkje+nrVllfKtrZWsa2tujWakVcVuabID9U3Om1TF75rQ8fOWybf48eEEEIIIYQQQoijhoSo54B8Ucl8n2WGTlnh9A+teOGP3UsqkevxY+Lo0Wl3rN1suWdUfatiDc8V9WTPKHQqQvI2Nqs2M7vqScrL5Xr3aCRC5Yt5GxwZtP6xaeubPG+F/glLZRA1hRBCCCGEEEKIo4eEqOchlbVkrs/Sw6csfwoh6o/cMyqZ6/Fj8ow6guDd1GpZs1a3BrminiFED28oF6I2qnZvBiFq1bbKte7RSIgqFPI2ODxgA2NT1jdxzvIDk5aUECWEEEIIIYQQ4ogiIeo5QEBgC/9kpmip0ohlRs56qF7p7X9pxXBLMvNU70SUO0ocKVq1mlXXNqy2vmHNSs1ajShM71EgQN2+vWJ3763aykrZd8prNtv+95PNZqzUV7LxM2/Z+R/+Sxs9865le/otmUqH4/pZCiGEEEIIIYQ4mmjG+yKk0pbM9Vq6f8oKp35gpbf/uRXOIkS9Y+m+Cd9pTxwtmvWG1TY2Q9nyHfTifFGPYmOzZrfvrNjs7LonKSdBOTvouRCVy1hPX6+NnX7Tznz/n9vIibcsrSTlQgghhBBCCCGOOBKiXgA8VxJ4sGTyluoZtvTAccuOv2a549+x/Kkf+M56uePftczIOUv1TVoy3x/lkEqkujWIl444RK9Ster6hlXX1n0nPQ/ZQ6SqNW1pectu3V62u3dXbG5+3VbXyuH5hv+9ZHNZ6x3ot4kzb9rJd37Pxs68Y6WR8HdTGrBkUn8XQgghhBBCCCGONhKi9oSEh+Elsz2eK6pw9nes9M6/sP7v/T+t973/mxXO/Miy4xct3T9hifAaeUq9/DRrNassr9rW/JKH6tUrVatV67ZVrtudO8v28Sd37NLlObs/v+4heo1G29LplPX0FGx4fNLOfvBH9tY/+n/Y1MXvWzpfshS7LiokTwghhBBCCCHEESfRedoe9OK5aNfL1mlUrLk2a/WFK9ZcvWetjfvW3FywTm3T2rUt67Qa1mk3zLgNRbxckCcslc1afqDP0sW8NcMvqdpo2u3bi142t+pWrjYtkcp52F2xb8B6BwZtcOK4nfrOP7bJ175nKbzpsoVujUIIIQ4Lna15a139M2td+y/WWb9rnc3Z8OSTN6kQ4nlZq2ZsvZaxShg3NGo1a3fD/pPZomX7Jy03ctJGP/w3NvTuP/PnhXjVuLyyYn9/757dXFuz5WrVNhuaO4l9ItjfZLNhrXLZVsPf3OrMTPeA2VBvr00MDtp3L1ywH7/zrp2fnu4eEbtFQtQ+0WmROyiU+pa1Kmt+izjVrm12hagNa1XX/bZT3Qz31zzsS7w8sDdiIpWyVC5riWTC6vVqGEBu2crySiirVq23rRr6yFzfmIff9Y6dtNLQpPWE0jd63IoDY+F9aU9QLoQQ4nAhIUocJBKihHgyEqLEgSEh6kCQEHXA4Pnk3lKhtCor1q6suVDVLq+Eg49Oei0OP+1W02q1LatVNqxe3Qpl05rthDU6KSsMTlnfxFnrHT9jeQaTpaHuu4QQQhxWJESJg0RClBBPRkKUODAkRB0IEqIOGN9hrR2F4nUaVWu3auE2lGY1HOy+SLx0dDpta2GwmnVrhe+W23YnYW1LWDpXslxpwLLFgXC/R6F4QgjxEiAhShwkEqKEeDISosSBISHqQJAQJYQQQgixAwlR4iCRECXEk5EQJQ4MCVEHgrbpEkIIIYQQQgghhBAHgoQoIYQQQgghhBBCCHEgSIgSQgghhBBCCCGEEAeChCghhBBCCCGEEEIIcSBIiBJCCCGEEEIIIYQQB4KEKCGE+P+z99/dkSRZlif4jHMGwMA5HM5Z8IjMjGSVld1TPWd2Zs+Zmf049WX2nN1/trd3q7o6s6oiKzN4hEc4dwfnnBoMxhlG7lMzdzgC7gHuIPfnIWEGUzVVUVExUX1X33tCCCGEEEIIIeREoBBFCCGEELITm83cJTlMcZr3vF0ix8vWVkXK5bJUKhXZqn6mmL5nc7rE7vKJzWH6IiEXFLsZk112uzhNwXtCjhUzEG9tbb06HpMjhXdWhBBCCCE/wRg6NoeIw20JUjR8yDFSKVekXCyZ17IaPzVsMLpdXnF4g6Y7mr5IyAXFYcZgj8OhBe8JOU5UhMJQTCXq2KAQRQghhBCyE3iiuENiCzSKuAL4wPqckCMCRk65IlIoiZTKWy88oizrx2CMbbvTI05/TNyRZnF40A8JuZi4HQ6JejwSMcXjdHJEJsfGlhmHS8WiFPN5My6bAXobbpdLIsGgBH0+cZk+SQ4OhShCCCGEkJ04PGILt4u9+V2xBVssryhCjhDITfmiTZJZu2QLYgyeihpACoRQh0scvoh4470SaL8jrlCjtYyQC0jQ5ZKeSES6wmEVpBiiR44LeKbmUpuS2UhIMZerfmpRHwrJja4u6W1uVjGKHBzb1nb/X3JkaIy/adqSuakolUpSNKVULJu/y9U1XoJB1Ga3idPhEKfTIS4z0LrMq+MUqqx4WpfJ5iWbzVnu4nCT9bjE5/Wa+p4eXRM3c6gr2rtcsl71PR497kDb3xTU3+l0ats7XXhlLgZCCLmobJXzIull2cosS3n4n6Q88Zls5ZPmAl986bFCTpatkrnAm4JXPQcncB6QHwwhmsgVhnIoPwyEelj1huAEzSldsEsq75B8cUsKReszgLxQDndAvI19Er32dxLu/5W4gvXiDMSsFQi5YBTMfXzW2FMTGxtyb3FRBtfXJW8+K5pCTh6MZBUznqGUq6/HDUZftdmq5bBCpNbY1Lt2LPrelHIuJ9nlZclvJKRk3pezWbURnXaHvNN/SX535450xhulLhyWgLGBycGgEHVM5AtFKZiykUzJyuq6rKwlZHllXRLm7514XC7xeNwSjYSkLhaWpsZ6idfHJBT0V9c4PWymMvJscEyeDoyJx+0Wt9sp3Z2tcv1KjwT8p0cVTqez2tbriaSeg43kpnm/KclUurrGS9wup7pZhoIBbf/GeJ3EG2JSH4tU1yCEEHLR2KqURIoZU9JSWXosldVB2UotyFZ6QaRcrK5FTpKt/IYKg5LbMOcgZyyHV0Mmjh5j5LgDYkNopjcmNn+D+ejgDwkt8akkW3g4WchKuVSUfMUr+S2vMeQcptiNQWQZVg5vSNyxNvHUd4q/5ap445fE4faJ3RRCLiJl8/spmrKWy8lUMinTqZQkzPtkoVBdg5wkEG4yZizLFIuSNgXvj1uMQrJ65AgLwG4zdqjvkE4DqC+cR+AwUjClbMoWhE3Tp7YyGdky/auCz8xY3RCJSF0oJF1NTXKlvUOiwaD4PB5x03HhwFCIOiYghKQzWZldWJbh0WkZnZiWodEpmZs3N1A78Pu9Egr4paOtWXq6WuTq5R653NcpjQ111TVOD0vLa/JPf/5C/tmUoKlzwNT9kw9uyz/8/S+lvu70CDcQ/mZNW09Oz5s2X5LZuSWZnFmQRVP/nfi8HhXRmhrrVFS72t8l/X1d0mPeE0IIIeoJld+USmJcKitPLYGKnDhbm7NSWRvWVylsipReDZk4chAe54+LzWfux8JdYov1abjcQamUjaFTLEi5kJNCekOK+axUnCGpuMJWUnxTbPDAMrhCcfG3XlcxCqIU80MRYgEPKHhGQZCaS6dlKcPx+G0AYXA9n9fzsJLNyrp5hVB4nEB4Qohmg8/YbX6/RA/pjYToGRxHxhxHOm/qn8vLVrEoDvM5trx9tL/U2irdTU0SNvtFSN5pjFw6a1CIOkLQmVfXN2R1bUOmZhZUCIFHTmIjJfmCufFA7P/WT3+gtTAyuPzBO6ettVH6utuls6NZWhob1DvnbYM6Fs0Pc25xRf7l376S/2GKeg3VReTDd27IH377ocSi5kbqLTO3sCxjE7P6urC0ql5QqHexaG7+zECjSUB3gGPD53a7XVym/aPhoLS2NEq7OQ/9vZ3S00VB6rQBL7fR8Rk9z/AkjEXhTRiRRtMneWEghBw1W6W8uViYG9RcQrYyS+Y9PaLeBpXVAanMfitb5lU9owo/9TI/EuD15PKJzRMRe8v7Ym+6I+KtE1sgfjiPKHMPiKftliCVl0qpKFt2j2w5PNZ2NQ9Z1SPK41cxyuENi83pFrsphBAz/Jp79pIpEKM2q9445OTBOZhLpWTWlKnNTX2PUMnjoOYJ1RIIaJ6wtmBQPaL8roM/GAC1VDoQN+ERpd5PsAlNgZ/T9qQz8IaCFxQimeAFBbuRHA4KUUdIwQyEMI5RHj0dlmdD45pLCYYxRBoIGw310eraL0kihGwDoWNJWV1PqhAC8eNyX5fcun5JrvZ3V9d8e0DIyZhjmZ5dlD//5Wv502ffSGd7s7Q2N8h7d67Jr3/xrgoCb5sHjwflP778QSam52V5eV1dLRFyFzFtCuEsGglW13xJKpWRjc2UJBKbsmbav2COtc6cL4RI/vF3H8mnn7xTXZOcFtAP//L5PXnwZFC62ltUtIV4e/Vyt4ZZEkLIUWLdKpmCh0kV3Gjz1ultUJn/Qcqjf5LKwg+ytTkjkktUlxwxSFSPULxgsziu/G9i7/1PYnN6jTWEZ+SHy0mimP6kWUm0G5nt7ZbnBN5YMHTUQ8rKZUkIwc/HGn/xf4RW0ZR9O8D7aWxjQ8vg2pq+Qhw8DvxOpwpPV+vq5N3GRumORMRtxkckrD8M23vOi35lXncbbR1mX7W8woBj8uGhEHUEQOxIQEhaT8rA8ISW+cVVWV1PqAjS0dYkTfE6aaiPSST0U9dqCDypdNZ8Z0Vm5pbE53VLe2uTdHe2yKXeDunuePseOfDo2kimZXJqTj77/HtT7qnh39XRLHduXtbwPIg9bwt4xiBs8NnguNx78EzSGQiAdq1TzasM74OBn+ZWyObyeg7gyYbtIA8Wwg6RL+oX5rjeu3utuiZ526hnnvm9TZh++Oe/fKPC49X+Hrl2uVt6utrkyqUu9WojhBBy/ijPfS/lkf8uFfNqCVHr1SVHBLySnF4rHK/+itgbroq97WOxN73zIlk5jQ9CCLFCJEc3NmQ0kZCBtTV9RZ6oowSeUCjNgYB0h8PqDdVrSqPf/0IYImcXClFHAEQM5H8am5iRZwNj8nRwTJOPh4MBuXalR3710V1paW7QWfF2CxuCWyAK8hmNjM/oTQ7yFSHMCB5UddG3n3spm81r3iV4e33+zX354psHxvjvUaHs5tU+ee/uVRXd3haoDwQohESiQETq6+5QDxkIZvDcQtvv5kap7W9+BmtrG3oOVswrZgJE7q7+ng7NG0VOB5gAALnX0A8hRD16NqJC4fum1MRbznZICCHnk2MXoiBC+erEVndZHN1/EHvHL9UzSry4D+NTcEIIqXESQhTyQSEx+Y36evmopUXiPp+G4yFMD3A8PtswuPEQIK9TLpfXfDVTM/MyODwpSyvrUi5VdNa761d7NayurSUuDXVRDV3DTHg7Czx1ELrX0hyXvp526e1qldamBv3M6/FU9/Z2qWxVJJ8vaKhhqWgNMhDWPG6XOJ0OOI3rZydJqVRWT7TZ+SWZml2Qial59YSCCIXE75e0LdukxbQl8gehnV/b/ubcNMZj0tUBL7R2TVTe0dpkljM56GkC3lDJzbTOiAhPNujoEJ4gGiK/2tvoh4QQQs448HZy+cUWbBF74x3NC2Wr79fQPHEHjbFjV4OHRg8hhBwvGGXhBYXE5MgJhXA8eEJBhEJ4ntvYnxyPzwcUog4BhJBUJqueQuOTczIwMmGFdQX96oXz4bs31GsosEs42G6EQwHpam9WMSTeUKciyWnJdwOvoXyhKBlj/BfNcQO7w0ruDSHKjAb62UkCUWJ5dV290aZnFjU0D+F48IS6btr9Sn+XtLc17RqOtxsQ/SBGdZv2RzglBKy9fpecDMhVhuT/yKeWyxX0IuR2O3XWQ7fb9Ta6ISGEkLMOckJ5wmKLdIu941Oxd/5a3+tMdppAnBBCyEmAe3t4PMEbCgIUckIhHA+eUAjH463++YGheYcAnlA6S9vkrPz1yx/kyfNRaW2OS0tTXH750R35+P2bR57AGx5YEIRyVe8khCohuTZmkACIlYVBjgIRJRwK6o8WAs3rlGOITPAySaUzatxncjmp9Qp4PUFswsxzK6sJmZxZ0ETsj5+NyPt3r8vtG5d0Zjl4fsErZTvwGIOHEuqZyeY1pArdrdblECYHLxafzysB8128+rx79wBDnR8/Gzb1GZHBkUk9D1cvdckvTNtDCIQIBU+n4wDHBiESubMgPsI7ByIJzkUNl9Oh58Fvjgs5p3BstfOANsD3McsivOhw/BBTUHw+j1TK1jlJZ7N6TnDOa2BdbA/bxbqvC0WrVLZMP8nr9/GK8ErUsYTZeswy4LDbTL284jV1CwWt/lIDfQv7xXlDX0c/gYcY+pUmhzTbwDL0G5xSu9kWliPR+86+gO+iL2B99AfUqWTaUPtDdR10TxwLxFfLSzCkbYVi5VHLyMLSmgxrGOysjIxNy1oiKe/cvizv3LqibQIxF/0IbQMBGO0Jrz2gYmoevx3TJub3U/stoU1wPAC/FfRJDa0128L3Ibjid1DjKNuFEELI3jny0Lxa3qdwhyVCNd0RR9fvxBbrMxcEl9iwnBBCyE846tA8WKm4D4cnVJPfr+V2PC7X6ur0MyQmf50tS84mFKIOAZKLPxsck+dD4/Lk2aiGiF2/0qshebeuXZLLl7rUOD1KIFqsqXixJnMLK+oZgln3ssawBxA/osbgrTNGPJI3ow5eY1TDsMaPezdgiA+NWkLO0vK6imtICg0gekAUgFChgoAxsHG8z4cmNEE5ckP1dLap8ANRZDsw9qdnFnR7s6bAawniAwQYGOcw7iE2QLzr0Bn44prUfa9AhPjymweaHwpeaZjxDl5o/+WPv5K2lkZtexz3cQARA95wSHCOdps3xwdRAgnda8CjDceH3EWYBbG5sV7r4zSDackM1JlMTvNaffHNQ52BsLO9SWeAQ4gmxJKhkSmZmVuUxeU13U8NrNvb3SZtED1NeV0fQ1vDS8wq5rwuLpu+klaRpCZsQaRB/jLUrZbsuwbCHiGUYYa6pwNj2k/6+zrUYw/nsGwK8nHh+DGMwDPuUk+H3L11RWeI3A6817Au+gB+J+jHGuZp6gjBDECkg2CDWSPhSXj7Zr+VV81sd3ZuSfczMTknw2NT+ttDe6OPxeujmktNRSxzPI3xes0JpuGVpq0gAAHMarm2ltTfzqIpaBf0Gfx+al5+mCggbPaPbWLWSnwfv5/tAulr28WcOxzPftqFEELI3jlyIQphd6YgFM/e9onY6q+KPWqug8gLpeF4DBwghJDdOGohymHsTAhO9T6fhuNBgEJS8gbzt4pQZh0KUecLxz8aqu/JPoGH0ODwhHporCaS6iXT39cpN69dUkMYM+Rp2NohgaEOQx7iwYwx4iemF0yZk9HxaU2uDS8lS7BYVQMfhnIyldZ9w6sDApQKUdu8OgCMZnjyIN8OBDV4dCEJNELd5heXZXFpTbe1mc6oaJKHV40x/JfNcePzvu42FS/q68ISiYReHCvqCpEBRj7qCOEA2x0YnlTBBiICtg2BBV4/EAhQNwgqkapHzm5JxWugPVD35EZKE8M/eDKkwggEHnhmQYyCMHEUbb8TnGOIFhvJTRUypmcXdJbEoTFzLsx5wPnAeUCBSAhhamurokIePHVcTpd63MBzCp5U391/Kn/+7Buz5S1xuy3BEIJKIrEpgyOmb5ntjk7MavvNmXOP8w/hA7mQsK4lEkJsexkrDQ8deO1gJsbp2SX1HkLoKLaFOkJAgRi0sLRi+jAEIcvjCqJjY7zO8uIx20K/wDmC59F3Pz7V70GQ8ft9em7R/7EMMxUuo9+ZOsMLCcIb8nTBO0gFN9MX1s2ysfFZDV8dGZuRcVMnHAv6Qk2onF9YUYEHYlnMfB9iG+qB/gvRdcT0oxHTn3A86OdFU2fUFWIU6goxEvVFDjOIWmF4IZntwDsKfSxt2gP7GZ2c1dkfVdgyrxPmnEGkwzlDonrUFWKdelaZ48W24BlVY930/d3aBetDHH1Tu9TXvf2JBwgh5KyytTknW2vD+iqFpLmRyVWX7BMITPCE8jeKLdQu9tYPxNHxS7HX9VviFJbR4CGEkNeC+/x1Yxuu53Kyks3qa9HYIPsFIy3u9yFCxTweaQ8GVYhCgnLkhEK+KCznmHz+oBB1COBZ8dQYm6PGwIYQArHhxtU+uXPzsibHhifFmwSVvQLhAeLPzOySPHwyJD8+fK4GLryWsE8kNYeA0NhQp94kMMzhNQVxAUKPy+VSA9hjfszbwTKIKD+Y7cGzAwY+PJUaG6K6LXgnYdswsiHArBmDGsIBRChs+3Jfpyb2hsdJKOB/IXStriXUCL//aECeDIwag39OxSPUocEUzAYIAQUz08EXZnMTQpcx/M1+EF6FNnuTJxPaA3mCUBd4ZkEIjIZD0txYp54p8D7Z7sFylEA8wrkYMPv94cFzc3xjKjiZ0ViFj+amBm07FIQ0IjwLohAEPxwsjg8FIXdoR9QdYYVoE3wH60HMgkACsadSKauQAmEG5w+iCIQmtDG2j/ON5fi81v5IKj87v2zqOK7iIsIosS2M3xCb6mNRiZv9QaQJ+P1mnzmdMRCCj8tltmHqiW1uptIq+EA8hNBZKpY16T48vRYWV81nSyoI4lxilkd4Z0GYRH4tCDdWP0xqH/jy24cqdkL8wSUHQqFVTF8IBdWTyWb6HvZRKJU0VxpmPESdcGxoY7Q7+gpEIvR9hMyhD8GbCzMb1todXkc4D03mc/Q3uzE4FpZWZdy0KcI4HzwerAqEW1pP1KP2+0G/QXugf6H+aAOvaXd469VIbMCr6qftgrA7iJNvahcIw4QQQg7G0QhR5mLoDuhsePaW98TR9XuxN78j9lCbfm55QtHgIYSQN3FUQhSEJuR/gvfTtfp6uROPS2swKGGPR+0AjMYck88n9Dk+ADBgYQjD4EdYD7xjAAx0hMQ1GYNWPZF2eCDtF+wHBd4cEB5gxEO0eDYwpoY1BBuIQDDar/R1aoFBjnCrjc20TE0vyP1HQ+q1A48mGMfYHoQMCGcIbYLH0r37z9TTZHkFyb4d1ZnjOjQ0Ce/rYxH10klupmRuflk2zbYBhJCAz6uePBggsF2IRBAf4M0DgQv1xXcAQspgkMNrrBaqBu+g1XXr2OClA28S5DJ6E6g72h0eMKgTxBuP1y2NxuiPhEOHbvfdqJ0LeBlBAIOXFzyxcC4gjnh9Hj2e2nlAgThRLJZlaSVh2ndGxs0xQvzTcwpxqpqzCSDHFzzJ4JXzdGDUtNvUC68cJE1HHi7MvhiLRlQEhLiHMDe0AUIE0SbYLgRDtAe8jOAtBqERYheESYg9mM2xu7PFEhF7OqStNa7fhXfS5My8iqoIA4TXV0n7uJVHCfVDQcggzj/EGPRJeKF1dTRraGa/6TPwBISYg21CtMPxPB8cl6+/f6SiIdoOYmerORbManjZfAf1gRAX8PnMPsqSMt9Dn1eq1x3sB9uFQIY2gRcYxEq/+U5zY8Mr7Y4+i+1B8ENfQJ3xe4FXGfoj2gTCFnJRYVKAXlP32ndRf4QDrpvjG5uYUeEKoh7OE9oWbfy6dsG5fXO7MD8UIYS8XcxFBd5OnojYQq1ia7ghdnhCNVwX8UarnlC8NSaEkJMAt/lITB42tiRyQvVFo+oNBVEK4Xj0hDrf0CPqAECAgpENw33IGLYIM4PwBI+fPmPcY9Y1iDSHBV5EECwQCoR8QY+eDavwYn6RauC+d+eaCkY1DxB4dUSjIV0OLxKEbyFkKRYJS0iFMbuKVDDy4bkxagztweFJFargzdNmtnOtv1tDC5FjCcIKtgnPkmAQHi5FFV0ARC14f1293KMCHEQBtAmMdhj7CO+D1wi8b5Cr59qVHrN+r4oq2F4UdTLfwwgE7xQkQ4eXDuqKtoQ3yeuA0Y/6zy+ualgUxI2WpnppMdvF9uGBUktQfVTUxLvJ6Tn1MpqYmlehKBIJyju3LsvdG5elq7NF21C9a0yxhKuM9d1iSfMfYR0cJwQtCIFWiOWMih8IY4PAibrDuwv5mnCeIUBhe9ZwvaX9D95U9fXwLoP4FlRPJ3j+oK8gxO358IQKP9g32hliCBJ6o3+iv7Q0Wv0F5x3iH8QntDs8hBBqWfPOgoCF5WhjJBi3vLIc6smE+uHcQmBEX4FnEc4rcoXh+OABBU87eAihrTrbmuXW9Uumf/WpCIXzhDoghBJ9ACIOQhYhsCJH1J0b/eKwO/Rv05Tq/YT2gciGtnM6nDoZAOqBfFK1dkfd8VtUIcpsG22Fc4Y+ifA89FV4W6E9ervatH3RJ/FdhIfi+PAEBp5OCCtEni8kvUcdIOYh7HW3dsF26+uiu7YLPCQxm+ZRjAuEEHJROZRHFAQmeEL56sXeeFscXb8Ve/yG2EPtIi6fmIsNDR5CCNkjh/WIgieU1+mU1kBALsdiWuAJFfF4VIBCIecbClEHAEY2vB6QOBmeLshrA+8XiEEQoWDowyPisNS8W5Bo+v7jQfnm+8cqJsGovWsM799/+oHmRFJhAQKMKaiH06zjMEY6DGZ44QQCXg0T1NnIIkHdJjyQng2MW4mfF1bUUwkhhRAK3rl9RY1ohCNBkMJ7iBkQCyAuQZBB2NLtG/1y82qfilQQUrAM3iZPno+oyJXczMg1Y/C/d/ea3LpmhSxie9guhALUBbPDIVcRBDOICqGQX0PGYNC/DszABw8eJLBGLiuEKaIN2lqbVMBBSCGO9SiB8AYB76lps6++e6T7xz66O1rld+Y8/PLjO+qJUzsPKDh/EEGQLwseavDogbAEDx7LeyalYXg4F5jNDetim02NMRUY0W4Q7yBuQbzCgA8hRj2NllYFM9whdBLthvcYr5FLCdt79GxEPasgUsFLDm3/q4/vqkiCtqqdWwhRmmNsdkm9jHAe4SWE5bUQz5rggn4PcQ2zwt0x/e+3v3rPSgje1qRCDgQXfzVhPc7p51/fl3v3n+uxQlx7985V+bvffKjHhDph/2gnXGaw/rw5JvQtCFMqRJl9QISCYQBPKHhzYTmEToTpISwV5/rd21flFx/eftHu8IaCpyAS9xcKJdMmS/LNvccqzOF3Ce8k5BH79S/e0/MB76zadyHGaZig2efy6roeN8Q57N/tdupyiGq7tYvHnLvrV3t2bReIkBShCCHkcBxKiIK3kzcmtlCLilCOa/+7zpbHnFCEELJ/DitEeY3NgRxQl6JRea+pSZOTR71ecZnPKUJdDOh/fADww0PoEgo8TvBjgUcEjFU1No/ox5MvFDSkCMIChC8IIRAd4E3S1Niwq9gFrxiEK0GA8HosUQDhYRBvICzAywrvES4HTxUcA8K9kEgZIXMw9mH878QcsgormPofygFC9XCsKLh5g1ADwQGiFgx0eGPVx8IqaEDIQr0BhBSEOSE0CgmdkSg6k8lrnSEqYF2IKm9Cw6PQ/houZQ14qIclFlhhgq8DxwBvKnjIYLa9//+fPpf/+k9/eaX8y799Kd/98ETDFTX/kwEJpzVh+MKywMsJwh48aRB+tX3WOoRpIdk1BCa0L7zl0MYQ3uAdA88lCDkQnpAXC0IJqNUfOYUQhgchA+vuB2wT9UN+KYTPoY7NTfUqBqKuyBVWA55BmNltcHRSvaFw/pCEHKIM+g68guChhfBBzBAIwRBhlBC+auugD0AY3Q5Emem5RU2OjsTfOE/wUIJo2dnWpIImBJvtFxicQ/TNnNnXlvnn3mW7GvZp6oNzjoK/sf8Xv7ldQF2QwwneaxD9AM4DQhIRbrpbP4eXVdC0Q02QQr4s7A/tBe9Eq+/t3i5o69e1CyGEkLeE3VwjIDYFWzQpub3njzo7njjc5n4Gofw0eAgh5KSAJ1TA2ALtoZDcamhQT6iY1/tiZjxycaC1dAAgJMBwR4EoBeHD7XFpsmJ4tByRDqUhWPB8gVcTjHoYxAgR6uvuUFFjNwMc+XdgnCOJNYQIAAMeIUbYHgx4eOjAc0aTKpfK6oHU0daoeYPgeYOwpJ2oAY5jNuvjeLFvGOAQNyAq4HMIURBCVIgyn8FzC6IFprWvCVE1QQFiDYQeCDaom87YZvaNfFcQAd4E6oIp8rEdbA+g3dH+8Lx5sxBVUc8teAtBiPonCFH//JdXyr/821c6GxqEJ3gpAYS8wfsNCao1d5PXo55KnR0t6hFWA/XBdyDyWDMZrul5g/ABjzkIbphFDyJj2hw3QhKB5kCCEBVHwnUr1xeEof2AbaoQNTlneSF5kLeqQb2L4H20vb/gGFBHhHwizxRyM8HzB+tBTLFCBS2PvGyuoO0GgQX9T2eEhOBitrczH5cKUbNLKkRBPIXwh2NSIQrnNvjS46gGxDv0TewLwo9ud0cfRLtCACqWiirI4m8kVsd5eN3siBAMIYqhj9XyuDWY84DwRHjc7dbPsS20A8RQ9CkIY9gf2kuFKPz2X9MuOL+vaxdCCCFvCXg71YSolg/F0ftHsdeEKIhUhBBCTgy3uf8OQogKBuV2PK5CVLSamJyeUBcLClEHAMYpxBAU8z99mAbvCvyAMPPXUT1dQ74cJP6GlxE8MuBlAUEHoVUQjxCC9xPMDxjrQdioeWWgnjDc4XUCzxBsE/l4IFzAmwfeMhCNYIC/TsjZLkRhu1gXhjqELxjkCI+rTVWPnDn4HHWAIDI1u/DCA+mvX/0gf/n8e/nx0YB6JsFo7+tp13w9ECqCECrMdt+IaXIIgHoOah/hfQWfVT94DTg2CGgabuX3vhAyIIZAENPp99cSslmd7a7mcaX5nKbmVMTC8aE9IbLgvEB0wfHg+P79r9/JV98/lAePh1Q8RH4hJGZHjqy+7jYJhwNaR4hoEF/QpiAc8ut5gHCEGQAhJkIMeoH5DuoCUQt1xWFiOfISQfTA9pDkGyIgwtZwbhGahleEjsLzDDMuImn4Xz6/J198+0DzN+F4IKLcvHpJhUiEFyKsDW1SEzAxixyEKpfpG/Aoaq/O/lYLm9veX1T8mV1UAQjed5jtr7m5XrcLryGc79r3LHGprGIcEn9D8MF+cV6w3nbgVWaJP/kXbYZ1kTfqlXbaBtZFWCvEXGwffTtm+jl+P1b9f9rPUS+0J9quthx9C22ufc78/bp2wfl7XbsQQgg5YSAyuQIafmdveV/sXb8RW/y6ClLiCZsxmmM1IYScFBCg/MY2bAuFdGY8CFDNgYCG57nNvTdEKI7HFwsKUacY9TKqJkaGKOJyujTpOHLOwLPEbt+f1wVECYSaoaQzOZXL4MGB3Djbw8t2Q41xUx+IADD8IeTAGwoDBoxyhBBCBElns2qcwxiH2Y4cOo+fjcjX9x7Jnz/7Rv7Hv30t//znL+Xeg2eaNwnC2q3rffLBuzc0x5PlTbL/bvlCpIFI8QY1CkIh2hCzxSGfF5J413I7IdG7CnHmn4oRVdEEQHDCscAzCkJETfjBrHBIyv31d4/kX//jW/lv//JX+dtX9zWxPJZD9LjS3y3Xr/SqIIXzhnbR+pptQOAA8MBBeGTcnFvkItoJjgjHBrFGj9EAIaYmpOHY4Y0E4Q99xhIMHZJIYGZEzP42LF9//1g++9v38k9//ty83tN8Xqgjkoa//851TeANMQV9Aueg5vkD4a3m+RONhqv9xa912AlmZ1ww7QQBCO0HDzuE5iF3GfrM9gsMhB2EeqLuNYFNhahdwu20LhoOV9BwOGwHxwexs3aOdgLxCd5pOGeoP0S7CH4/u9RlP7yuXeCl+Lp2IYQQcsI43GLzhMQW6RZ72yfi6P692M17yxOKXquEEHJS4I4bs+NBdOoMheTdxkbpjRp71vytjhzWauSCQSHqAMCAhfFb83yAJw6EIhinMKh/1i3nZ1DRB0KF2RZCgjbTWfUugeigxefR8KbdPDqwbxjKqA+mmQdQmPEjx+cbmykVK+CNA1EG3ifwVKnlk9qJJXBk9Ds4PogglhCFMESnDhzwaEECbdRVj98AIcNhto8wQHhgYba9bD6v+wwEfNJQZ4XhYday3q72F14qOhj9jECAxVgPpebCCe8a7BtC2ZtaH+uj7siF1WH2f/lSl9ahpblBPYOQ6wt1RJ4itAmEEQARr9Zu1n7teo4gjqj4Ywrq4Pea9kSYVmO92X6TJh2H4IWk1RruZc4bzi/aDEIGzgmA+AIRCh5Tu+X+wnmFcKXfKUJss9oY27NEI7PMtC/qh3ZA34CoBqEHSebh0bWZSquXHTzOopFgNSdXk3pqQZCrCUwQbNC3a+IPjh1/o+9BSNN2qoZ91sA+IUKhHZB4HuIkjgmiD84r+izEpe3nFjMJQhBN1cLezDHieGohrtvBcaj4Y44RghXqg3UQflo7RzXwW0E/RVug71qiq+3Fb2e3utRAHdCWaKey2Q7AemhjfVJj/n5du0DA29kuhBBCThjkfXJ6xRZoElv9NbE33dGcULZIl4g3Yq7xDjOu8/aXEEKOG9w3I/eTz9g2TYGAJibvDod1dryYsbPoCXWx4ZX4AECEQOiOFb5jVwECIgw8jWAsw5g9DFbIUkkNXQ0BMgXCAqZ/35lfZyfwMkEIHrxjYNwD1BGGN+pliSYpNbTxOQx5CEM7PVBqYP9IuI3cQxAYYIQ7XY4XdTGVUYMdwgpEIIgAqB/axgrdwwx+dvWMwWxpv/vVe/J//K9/L//7/+0P8p//7hfy4bs3NSRPw7F2E2B2AduH+IA6Y/vghbeQqd+b2h/f9Xm9GoqIPEy3r1+Sq5d7pLOtWT/DzHEQmjAjG7zEau0C0QntaX3fY60HcaK6bmM8pl5d/8f/9vda/k9T/vi7j+VuNeRwe+JxtBHOUS3vEMD2otGg7nO3UDMcUSFfVA8m9AscY+284hXiDIQq9B1LhLLOq9VfLKGrljT8v/zxV/L/+L//Uf7Xf/it/OG3H+mMepjhDXnFtoM+iPOPhOrYDs65loA59zv6C/o9POIQBogk7KgxhBnk/YL30W6gDZAoHQUCEy5E6I9oA+1b24D4hiT7KDjXeozou+qZ92pdVJRUYc5qYyQVRz6pmhffm8C2cSyviqqmL5v6OCB4mTq+rl2w/Z3tQggh5ISBCOWr0zxQjp6/F0fX78Qe7bI8oShAEULIieGA3WTsu5ixva7W1cmv2trkUiymn6nzQXU9cjHhFfkAaPiQ+UFtDyGCWAShBq/wRIIxfFBBCt9C+BYEC4QhQWSAlw48XF6XD6cG9os6QGyCcQ/wPUwfj1cIHzXPJhj+MMxh/MPY3g0Y3Ai7m11Y1pnYcEwQjCCs4NghzOAz1FGP2fxDHWsz98HbqpY/B0nWr/b3yK1rl1SUwuxw8ITCehCtIOzsBQgvEIMsocVqf4gOCEnLmGNDu70OFclMvXHu4NkDTyXk27I8vCzhDAUCg57fqjhWO0Z8X8WHgF/DChvqI+pZhCTf8Cq6df2SOb4+c3x9OjsbvIxqx1cD28IMdypEFS0hqrZNiFr23drBfAfnriZeoZ3RXh5z/BD90GNq7Y86QqRBCCLyTUFggyCEc9Db3SbXr/TITXMOEIrX192u3luoI/a9nZr4BvERU6min6APqSizo79gPcv7aJu4BqFo2znaCfphLbcY3lt9HLNP/lRcgsiJdXCeUS88zYbog+P86W/CnH/8Z9oD60KcRX2xTVz03gSOFR5U6OsQV9GWOI5IKKh9DgLYftqFEELICQFPKIdHbP642Oouiy1+Q2yNN8UW6zMXpJi5xuCehbe9hBBy3EBgggjlN/ZP3NzXIxwPnlAo9dUZ8ugJRXhFPgAwOpFPCCILBAy7MT6RsHtjI6VGLAxYiBYHBT9MTCMPQxtCEcSQnzOga8BIhtcTvFMQKgUgBjQ11mkeGwADGqIFfvwQM9RAf40IVJsCf2p6QcP6akJMzftjt+ED4kBdXUQ62ppVbILodLmvS3q6WlT02RlKtV/w/XA4qDPRwbsJIPQPSd0TiaRpAyvcba+gPSyRY5u3jTnG3ZJmQ6RC6BzOPUL6IDihIMQPYg/W/7ncXSpEVb3dal43OMcQviDEYP87MV9R0Qr9S4Uo8zfawWuOH+29fZ/oKxBNkHQc3lgQnpAs/YqpY2tzXGfn2wvqZaUhaqZNIOSYOuL4dwNiT9G0nfYtVG4P1PoWEpvjPfo9ko+jHXZ6FmnooTlHeVOsvmuOsyou7RTurHOEZea3Y5ZDLNrrhQ6egslkyvLSMr9p1CkUtBLJQ6yD6LWfdiGEEHISmDHe5RMbBKf6K+Lo/oPYWz/Q8DxxwHubYzQhhJwUaouY++MGn0+Tkr/b1CQtgYDek+PemhDAK/MBgBCDvDcw9CPVGc5gKMMjCuF5mHUNya0hCu0FeHkgqTJy+Ki3kjF0IUY4YUSjmB8ystPAKwTbtGaHs0oNGOdWDqG8hkctLK2oZxRECnjuwOsFHkAwmLF9/a4ZB+AUiVDDnUMCtoXvI1H61MyizoQGsUfzJxkD318LczKDiQpaZrvYNuoJEQDGe0NDVPNAQYxCom4k40ZdsBz7h+gDcQXHjH1hn3sBQhByHCHcLxIO6DFC1EH44OLyugpx2Cbaay9oqFUGIZAQoioqcMA7aHvIYu0Y9TjN+9psg5d62tUTCqJUfV3UEg0dVp4rHA/qhWND4uyaAAiPLeQvQh/B8au4Z/YDgQgCGPaxE3g6YRuWF1UJzW72BdHGyhuGejrsGNyt84C/0S8b43Xq9QTvrB5TR3hvYf0aqA/6DLyZUCf8jTbAuUF9NVeS+RvnzPL42X3IsM4nvI+sPo/uhX4Gjz701+1o3zL7xG8F/WpuflnbQr2c4BGlAuCO0DyIhaYdawnCVayF2IT23tFelhBl/XbQV2s5t7R+2v5W///J78ccK9oXv9+llTVTz6Lmk4LoCAEPXoVgP+1CCCHkmIHI5Kx6QsV6NSeUvfNTsTfeMZ810BOKEEJOCNiTuEeHCFVf9YS6EovJzfp6zREFTyjct+/1ATE53/DKfAiQ1wdeMAgvg3EPg35qZkF+ePBcX+H1shdgiH9z77E8ejYiM8Ywh0cGjGL8SOGBgdw0EFVgJMNrB+LFTpEF6+N7S8trOrsbwukAxBIkjIYRXRM6YDzDWFdBpCpuYHr87UDMmTTHMG1KLfcVDHAITTC6IZyo4GLWRR112x4rbxLWg7CQTKYlb+q6GyosvBAjFnRf2OdewD7gkQUhEHmPcIwQHSCUQYzCbHBofytX0c9TqwvaAqCNcD63h+apsGP2iXbDerX18d3XeQDheMYn5/TYllfWVOyBCAMBBN+FSAWhBtuG8GK16Wu8dyDsmHVxnrE31Mv6nhWepoJU9RxAxMS2dRZD0wbbBZedYHuzpv89HxqX+aUV/Ttv+hg8r3CMlvfVVrVNfpoYvAYuOggRRF9A/SHsQNhSr68dAiPaBZ5QmndsY7MqLpm+ZQ7bac5tTczbDvoq2hr9FO2NfbzwiDLnZDdqYhU8pvCbQV0g+qI+aMvtIFQSSfUXze9mbmFF2w6iGAQohJaiv2Gf+P5+2oUQQsgxAoHJ5Rebv1HsjbfF0fufxN78jtg8EXMRMNdvClCEEHJiQGgKmPv4Jr9fc0LdbGiQRvO+FopHyHZ4hT4EVpLqOkuI8lWFqNkFuffwuUzOzL/IlfNzwCCHEPX42YiGKWGWM00mDkPaGNswziE8wWsHhrDljfFqUm58hu8trazr9PkLS2v6eXtLozTUQ4jyq1iB0CcY+i/Egh0hYjUgFkyZY5iaXZQ1CFFZeBhZnjgQAF54gUA8MEb4SxHEqisEEE2K/po2QP1h0MP4n55Z1H3tVYhCmyCfEjxVtP3NMULEQY6ouYWlF0IUxJS98FKIgnBohR5CiLKSW1eFKNNmAXOMOGasZ82aBkGwpLmIdkOFqKlZmZye1/OiQpRpZ5w3JB5XD6zKlnrtqKhk9oG23FWIMqjXDkQd8/2axw+8oiCG1HKWaWifufHOZqzk4egzbwqVQ7+ZnV+S50MTpt+s6vbRx1S0+Yng4tG23w2cd62/WY5+C+HI2g5mktwhcpp+OjO7pKGU6xCi8uhbaMOX4tJOLycNhzN10/Y29bGEKLt6De6aU8tQqxO2VSxYXm8qRJljRltuB+cUomhNyF1eS+gxqxAVi6h3HI4LbbKfdiGEEHKM2Mw10xUQWyBueUJBiGp6x9ygRcwiTNbB21xCCDkpIDghLxSEqGt1dXKj6gnFkDyyG45/NFTfk32ytWWFccHYRY6btDHe4Y2SzxWMSQ2vFEsMgNhihfusvyiLxuAdGZuWgaEJ9UaB1wyEBORQQvgaQr9g6GLa/ZpQhBxN8GxCmBaM5vWNlG4f24PY8WxwXAZHJmV5JWF+7KIhcXdvXZau9hapr49awpMxxDdTGd0/clpB+IB3CIQhCCvwpJozhvjE1JwgJA/iCYQZeH/VkrC3tTZKR3uTeoPFImEVBSCWwQvqZVhiWT1dIBZA6Nl+7Chjk7MqvI2Oz8jy6ro5VlHPrXh9rNq6Pw8EFngUoW615N+oC45RRRDzNzxulk0bIefPzjqgzUbM/p8OjGk9MCMdRJCWxnrp7+vUmeRqIEQRwhI8a3Cu9ZhN20FMglCHc4xtol3h4QVPqKHRKT3HqA/EiqAZlCHYoW2wz3HTBhBJ0L7I33Spt0PFr93AfvGdweHJF+GRvd1WWGDE9BcIghBI5hdXJZXJqHCDfgOhBP1o1ZyXFdMGSAyOes7MLcnw2JTZ3oSe6/VESsMdEboHcQp5ziZM++A84fxB8EN4J5Ky47zvBPtAaCDaAd5O6LcQgiBIoQ9gea1voc3RPhAqLUHNpSIT2rS3q13zWsWiIf0d1MB5xLatdl6TkqkjkrGjHXCucU5q5xX1x3mEuIhzimNRYa1Q0MTi+P2gP6wnTN+ofmdswvTH56P6in3hnNy40qP5zdpNP0DYJfaDbY6b9tpruxBCCDk6tjbnZGttWLbSi2LbKovNHRJb022xt/9K7PEbYg+1GUvIYwlUNHoIIeTYgB22ns/Lei4nG+Y1a+7lEY4HT6j+aFRagkEJ6wNypIHheEx+CoWoQwBjF8ZyxBjEieSmGt8wVCEO4T08TBaXV/X9ymrVU6laZuaX5eGTIbn34Jka/DB+ITI11MckFgtLKODX7cPYhVAEEQqeUxAxEsaAhuADQxoeHNje8Ni03H88oN5AAIYzRKhPP3lHPaK8Ho+KARAsIETNzi2pMADxCTOEQSyBkKOJyWcWVKRByCBu5GBoQ6SAsY/jg1CAfEPwFKnlaELdIcpA9LHEtw19D+EKAsn2Y0eBaPb1949kdGJGt+v3enSGuZbmBq3/XoDQEQz6tH4QiVbXk7otbB95siA2oN1XVvE+8ZM6oK0QDjk0MlVt24oKIF0dLdLd2SrNpj41cGwYcC3BwwqzS5n2wnbXzX6xL2wTYV0QeCAuQoiC4AKvJ53BLhqWoN+nbfL42aiKGRCK4N0FEQoiDMTI3YBHzxNTV3guQXyBUNlj6ohZ8JBEG4IWBJj1Dct7DfnGIIqpgGn6H8QW9BmEnqGeEIMemP4HMRBCIIQ8a3bDRv0O8iNNTi+o6AKPL3gG4dxApEPf2gmS66PuEEjRnyGG4ryjT6EPw+sJ+aDgMThi2gftgu6IbcJbD/VF/S/3IZ9Ym4RNv0KfqrFhfl8qRiU29BjQDyEAoy3hCYj+Vjuv8JDCbIHwUkKfx3nFMeIcQdCDcKh91Px+au0xMDwu399/pr8LCH3oix+8e0Pev3tNZx2sCVvwqpqYmt9zuxBCCDk6XghRmWVzE+AQW6BRHF2/FUf//yz2cIeI21w3qpN3UIgihJDjY7sQlTb310VzX4ycUB81N8ulWEyixvZ0GfsEYzHHY7IbFKIOAX5UtYRrMHbh9QLBx8qVAxEJ+XYK6qGCECSIIzCY8R7iAMJ74FXTGI9psmsY4RBB4vVRFSdgSON3a3mWIMGylSi9oOF0efUoWTVGNbaL9xA8IIphhjrMlAZvmbZWK3+SeqWYOkORhviU3pacGsY16gqPLniOwMsIwhC8PVAgFFjGvBXqBZEGCbAtzy2/eoWhjjDyzW2ivke9NVG1+ZdMZSxhyBQcN4QwiBTwHos3WMm0+y91aojjdi+YnwP7gGigXl0lq/3hcQRwXjRE0BwP9odE8rU61AqOBY2C7yHMrwOJ1c05gCdZbZa0GpghzRI24BUG7x/TnuYVCbQhTr04v+Z8ZLJZ9UiCdxNEij5zbrs7WrUtNYQzX1QBCN438NBBG+L8d3e2vKh/DZwfCEMQdB4/G1aPKIRYYtbAro5m3S4S56MPWn1kS/sIzgmEEpupJ44fYYtoe9QP9YT4WKsjhEUIYdg/RD3k9ULbQIiCIIl+02qOA95SOAYIMzvB/nE+sS+IdPCes2a6s/oYRBwcA0Lg0N7o8w0NMQmbvoXP4JmE47xyuVvbAm2CpOU1sEwTtpu2Q/2xPYC2RF+q/Y1t18fgWRe12sEcPwq+j36Jc2jVJaftAfES24PnFI4BXk3oA9dMPdAm6J/4PeO7m+a4IHhCiNpruxBCCDlCMiuylV4Qm7nW2aK9Ym+4JvbGm2KPdJsLv9sSp8xYjkIIIeT4QJKLFGxSYzd4nU6p83pViOoIhyXkdr/IC8XxmLwOClFHAIxUiDVInI28UQg1gnCRMsYuDHOIT/CcwSu8MJAjB0Y5vtPcVK9T/79355r09bRLc2ODikmWmGAXjxtJsz0qLCD/D8QeeETBiLZCzqztQihqqItIr9nGu7evyN1bV1RU8JlBAQKBJRRYOXMgVkCkQciShtNBYMrm1OMEy2DMQ4i5fqVXmuP1KvbgOBaX1tSARz0hcoWDAa0btgsgCIVDQf0M9YHQlTDHurC4bB27KdgfRDR49bSafUA0u3m9T65e6lYxCKLZfrCOCzmjfOrFEvB7VbCAyAJxAd5KGyoSVdt/W0F9IXxBLOrsaFEh8NrlnqqXUeiVuiCEDPuAkIG64ykAziEEKOwDnlfYZmIjZQZdJFP3Skdbs9y9eVnPL/JYqeeSOafw/oGoBK8geBFBSIII1NkOIerljHZAQxxNO0IAefJ8VIZGJ7XfwButs61JwweD5m+AbQcCfoma/dTOM8ITZ6tJweFBVzt2CEUIq8Q+79zolzumnuh7OEaIUOhfmqx+dlEvIjhXTaY/qceeOU+vQ3NYGfAdbAP7zeZM30puqmcU6oh2uWH6FkIxIeZgHXhs4bv4HP0LghxEuhrog/C8wzaWXsyMaNUT7YOCNodwFG+IavugbdGe+E2qCGXaBH0enmEb5vsQv9aq/QJ5RNAPcK7QFuiTELM075lZhn4Gzyu04UHahRBCyOHZym/IVnZNbC6f2JvuiqP5rthC7RqiZwZ6swaNHkIIOQlgZ+TMvXvB2FwIyesIGZsqGJQInDKMvYSRmOMxeRM204lgC5IjAEYyQrxqBQYzvEPgsWElY8Z9kpWQGSFZEE7gSQHRp9MY526PS4WOmrBTAx4j2BbC8BDahG1DLIBnB7xzAEQOeGcgtApCCkKGXgeMd2wDXh0Iw0M4WY36WNgY8jHp7miRHrMdc0unHiNI4AzhBKLBLWOk37x2SQUReNTU6gvRBAIXDHysi1xJEBggztSAuADjHrmwUF+IH7WZyY4CHBc8jTQscmVNZxJEnSCM7aQpHtP2R0hVJBTUsDx4tUAYeh2a68uci9qsb8hZhPOLsDIAoQUiCI6vvbVJzwW2V0vkXjZ9BF5JX377QHM+4bxBwIAHDkQweAJtB3WHoAfh5dsfnsiDx0MvzpF6kvV1/sSLDKIM6oZzi4KZD3fOivim/oIQNpxzhBgOj06bi4joOjgerAcPoNeBekLYQX8ZHJnSsDccA7yisE8UCE3wesLvBevOzC9pwnrU+6P3bsr1q73aTyCI1tBzaNbHdh8+GdYcV+mM+W2Z72BdeCKqoNje/MJDqRbmCJEVidE1R5VpF8wSiDbFd2vDH84Z8p7hGLGN3fI9HaZdCCGEHJ5Kal621sfMDUdBPaIQmofZ8ZCYnBBCyMlRNvfQyA2F4scDe7db3MbWQSQCHtYS8nNQiDpCaiFIMHyRp0cFKGM8lyqY4c5ap6YOQ5SA5xC8NWBwQ9CBiIFlO9VjiCjIsYMwJ3jhYB/YLoSf2snDrHHYDoxveMjUjPDdgFcV6oeQMnjMZMz2akAgg2GPWcIgiqAmCOWz1s/odyF8oMDrBl5FtfqiK0EYw/T/m9Vtw9iviTRAQ6XMccLjC+F/XlNPvEKoOQrQ9vCEQhth3/CAQZ126+QqYHjd6mmG9kOd8P5NXlkQMLLmPCD8Dm2CtsF5gIcUQEvgWNCOtXOhoZHmuNFOWA8hmcgzhWTxWIZ1EWoHkQZtuh3UvWL6D2aegwgGEat2jrBteKWh3ttBfeB1hr6CcwAvtlr9arypv+AYcVwQleC9BSA6Yh14Km0XiHaCELjarIKW11Je+wUKjhXeZNgW9oljs8JMc1pH9eqrj6pHF/I8QZStoedwy/p9wSsJQixm0MN30J+QKB3eT/gd4ZxCmELfBPitwHsK5w2hlNgfvqehjLqG1e/xXRwjPKvwu9zJYdqFEELI4dkqZs1NDLy3K2JzB0Wc5tqlXqucHY8QQk4S3NvDG6po7A7YOcgHpaF4ZtlOW5aQ3aAQRQghhBBCCCGEEEJOBD5CIoQQQgghhBBCCCEnAoUoQgghhBBCCCGEEHIiUIgihBBCCCGEEEIIIScCc0QRQgghhJADU5tQAhNB1GZK/TmcTqdO0IEJJwghhBwtmky8UJRi6eWkUa8DycUxSVBtEqpaIeQ4oRBFCCGEEEIOjM6sm8nIwuKqTM7M6+ymP0dfd5tc7e+Ruli4+gkhhJCjAiLUw6fDMjA8Uf3k9fi8bulsb5Gu9madOR0zQmOGd0KOEwpRhBBCCCHkwKwnkrK8si6PjNHz9fePZXxqrrrk9fzu0/flf/7jr6Snq636CSGEkKMinc7K//v/+2f5pz99Uf3k9UQjIfnkg1um3JbGhpjU10XE4XBUlxJyPFDqJIQQQgghBwaPNMuVihSKJcnkcpLOZH+25PMFDekjhBBy9GyZf/lCcdfxd2fJZLPqQYWwavqokJOCQhQhhBBCCCGEEEIIOREoRBFCCCGEEEIIIYSQE4FCFCGEEEIIIYQQQgg5EShEEbIPMDV1sViSVDojq2sJWVha/dmS2NjUuGtCCCGEEEIIIeSiQyGKkH1QLpcll8vL6tqGjE/OycDQxM+WmbklyWRz1S0QQgghhBBCCCEXFwpRhOyDYqmkotLi8poMjU7Jw6fDP1smpuYklc5Wt0AIIYQQQgghhFxcKEQRsg9KpbLk8gUNyxufmpOB4fGfLZZHFIUoQgghhBBCCCGEQhQh+wA5ovKFgqwnNmVmblHGJmZ/tiBPVDZXqG6BEEIIIYQQQgi5uFCIIoQQQgghhBBCCCEnAoUoQgghhBBCCCGEEHIiUIgihBBCCCGEEEIIIScChShCCCGEEEIIIYQQciJQiCKEEEIIIYQQQgghJwKFKEIIIYQQQgghhBByIlCIIoQQQgghhBBCCCEnAoUoQgghhBBCCCGEEHIiUIgihBBCCCGEEEIIIScChShCCCGEEEIIIYQQciJQiCKEEEIIIYQQQgghJwKFKEIIIYQQQgghhBByIlCIIoQQQgghhBBCCCEnAoUoQgghhBBCCCGEEHIiUIgihBBCCCGEEEIIIScChShCCCGEELInisWSrKwmZHR85kWZnJ6T2fklWVvfkEKhWF3zzWymMjI9t/hiG2OTszI1syDziyuSSmeqaxFCCHkT2VxellbWZHp2Ucan5l6MqXi/kUxV13oz5XJF152dX5ZJMw6PTsy+2M6CGZOz2Xx1TUKODsc/GqrvCSE/Awb7TDYncwsresO8ntisLnk9HW1Ncu1yjzQ31lc/IYQQQs4muXxer3/PhyZkcXlNC66JEJDmzevy6vqejBa/3ycup0OSqYxuY2UtoYZQOpMTr9ct4VCguiYhhJDXgXFzemZRRSSMxXMLyzqmLiyuysj4tCyZ9z+H3WEXj8et75ObaUlsJM021nU75UpFgkGfBMyYTchRQo8oQgghhBCyJ7a2tiRfKEo6k1WDZ2hkUkbGpmRyal5FqFy+UF3zzcB4whP7geFxLXjyvri0Kul0RgrFUnUtQgghb6JcKutD8tW1hHqn1sbUodFJWVtPVtd6MyWzDTxcn5qZ17F4YHhSpmcXdJzO5QrqMUXIUUMhihBCCCGE7BuE6MHYGR6blolpCFEJye9ZiNqU8UljNA1NaBmbmFWjqWgMogqNHkII2ROVrS0VkuDJBM+o2pg6NDol64m9CVHlclnWN5Lq7WoJURPqXYVQbEKOCwpRhBBCCCFkT9jtdgkGfNJQF9W/IR6trm2owZNOZ9Ug2gt4yo6cUksr67Jivg8PK6fTIbFISEPzCCGE/Dxul1NDmX1ej3qrrppxddmMqyjwlNoLlcqWhlTDKwrfx0MGiFCRcFBCZtsusw9CjhoKUYQQQgghZE+4nE4Vofp62qWhPqp5RRyOg99OQtjyuF3G4AlIa0tcerpazftQdSkhhJA3gdxNyEeLUhcLi9fjEYfTUV26fzAmI38fHgp0d7ZIS1O9ilyEHDUUogghhBBCyJ5wOBz6lLytpVEaG2JqrAR8PnEY4+Ug4Gk+ttcYr9NJPZqbGtTjihBCyM/j9XokbsZijJ0YR2NVMeqg+LxufRiABw0tTXGpi0XE46aXKjl6KEQRQgghhJA9YbNZYhQEJDyBf+f2VenuahW321VdY3+Ew0G52t8td25elsaGuuqnhBBC9gME/WtmLL17o18a47Hqp/untTluxvUr6vWKhwIImbZh4CfkiKEQRchrwMxAhWJR46uRuyKVzpj3WY2hxueIp94LSACYM9/B91GQQyOXM9soFHUZIYQQclaAQYJQPOQMgQfTtcvd0t7aqCF6+zFWsC5CQCKhgIbjXe7rlFiUIXmEEHIQgn6fdHeasfRSl4ZPY5ze35iMsDybelVZ43qT+HwecToc+jkhR43jHw3V94SQbSDh6vDolNx/PCiDwxPy5PmoPBuckOGxKRmbnJOl5VVNtvpz2Gx2FbOm55Z0ForRiRlJbKQkm8vr8mDAr6+EEELIWWJrS8TjcclmKiPziytSKJb0Ic5eHtT4fV4Vnro6WuRaf490m1ef18ukuIQQckAg7mMcxuQRyWT6xUP1nwNCE0L84AF169oluWlKvD6q+acOkwOQkDdhMx10b24dhFwwIB79858/l88+vycbyZQO6nv1gnoTGNRv3+iXq5e75drlHrlj3hNCCCFnla+/fyT/9OcvZHp2Qa+Xe3lIE6+PSUtzg9y40isfv39Lr4mEEEIOx8Liinxz74nce/BcpucW9e+fA+F3CO1D+S9//JX8/tMP9GEBIccJJU5CXgMSr7Y0x+XW9UvS0tSgTxkOA542IIdGKOiXVnPz3dvVJnXRcHUpIYQQcjaJmWsZcpPAuwkPW/YCvKH6ezukt7tNwuFA9VNCCCGHAZ5N7W2NcuNqr8TrotVP3ww8UWHrwOZpitcdePIJQvYDexkhrwHJWFub4nL7er8m7sPfh6E2RXUoFNDt9XS26s07IYQQcpbBtQwJx7s7Wvccbo7v9Pd1WkKUuS4SQgg5PD6vRzpam1SIaqiPVD99M26XS20T2DxN8fpD2zyE7AUKUYS8BngwWfkrmnVmoDYzQEcjQXVfPQh4StzR1iyX+7p0ilUIUl4Pp0MlhBBytkGS3NaWuHWtNK/1dZHXXt8Q+tHZ3qylpbFeYpEwpwYnhJAjAnYKxH14NsHugNiPMXm3hONIRI5IDayLsRs2D8ZoJicnJwGFKEJeA2aawJPdhrqYzgyEG+z6WESfGhwECFGalPVytyYAhBvsYcP9CCGEkLcNZsxDqDmMmfaWRn3FbEu7AU8oTAuOa2okEtLvMhkuIYQcDbAtkAoENkybGY+v9vfomLybzeE0tkgkHNIH5JgtDzYPckPtZ7Y9Qg4Kr/yEvAYMwhCLcDMdb4hJX3e7NDXW69/7GaBxg40nw7hJx9MGPAUOh4Iaf80nDoQQQs46eAKPvCS4znWYaxyMn1AwoNe42lUO100YQnWxsPR0tmk+EjygwXf5UIYQQo4GjLUIrYMY1dRYJ5f7OlVkcjmdr9gvdvMeYXwtTfXS09WqE0jAxoHtsx87h5CDwis/IXsAN9eXL3XqzTVCEODKutdBGhcCPG2AmAXPKjyV8L/mSTEhhBByVgkG/fqwpbuzRaKRkDhh+FRFJohNMITqYhFdDsMIeRMJIYQcPRhzG+qi6oHa2GDG26r3qfVQwCYOpxWWhzEbk0001O8tsTkhRwWFKEL2QDgc1LC69tZGiZvBHAM3nhjshYDPp7PkYaCHRxVuznExIIQQQs4T8HCCp1Nnm7nexeuq1zuXGj7BgE+fzmM5HuogRG+v11FCCCH7A2IT8j3BdmkxdgjG5EjIynWLNCPIIwWBynp40KrjNSEnCYUoQvaAywzaPp9XnywgkR9iqeHOuhcwLTUSBXJmIEIIIeeZWih6NBo2xk+TPsAJBwP6OYyg29cvqVGEHCTO6pN5QgghxwNC9OCJivH3xtU+aW9rUvsFDw3wQAA2DWwbfAZbh5CThEIUIXsA4QUYpDHrRGd7iz7RtZL5VVfYBdxg4wKAJwx40oAbcnhSEUIIIecRXPPg8RsNB6WtNS7d5rqHhORWrpJ6uXGtT2egRR4SrEshihBCjgfLDrGr5yk8nzBZUkdrowQCPn1I3mbew6bRWU6NjQNbh5CTxPGPhup7QsjPsLW1pTfUuVxB1taTkkpnpWI+w+c7gfcTBCskCbzS363vMUU1LgqEEELIecVcFcXpcIrbGECZbE62Klty42qv3L11Rb2l/MboYYJyQgg5GSBKIbKjWCpJLl9QD6lrV3qkt6tNJ5DAMkJOGt4FELIPMAsQppzGU4RoNCQe7+uFJTxxwCx5rU1xaaiL6DSqzIdBCCHkvAMP4uameuntbtdrZmtz/EWoHib/4JN3Qgg5OfBwHGMxPKBqOaH6uqzxGbYNIW8DClGE7AM8wcWMeTGE25kb6h4zkO8Mt0NyQCQCRMz11f5uvfFGLDYhhBByEcDTd1wrkaC8v7dT3n/nuuaGIoQQ8vZAGN61yz1mXO7QB+oYp+mdSt4Wtq3dYooIIbtS+7ksLK3K+NScDA5PyHc/PJWxyVn9HCApIISoX350V/6X/+k3OmMekrfSG4oQQshFoHatxGupXJZKBaF6dnpCEULIW6RsxuNyuSJiE3HYIUJZefqYr4+8DSiBErIPMFCj6BTVjfU6RXVjQ0ynQ0X+JzxViESC0tHeLM1meTjk18StzAtFCCHkolC7VuKaiGnC8TCGIhQhhLxdMEkEct1iXIZtUhurCXkb0Dom5ABgxp+meL1Og4qZgGLRsObEwJMF5L/o7WrV/Bj4jFNUE0IIIYQQQgghFhSiCDkACL/z+71SH4towr/+vg5pjMfE7/NKS3Ncrl3p1QSAeAqMJ8IUogghhBBCCCGEEApRhBwKr9ct3Z0tOgUqBCjMlIecUFcudUlLUwPzQhFCCCGEEEIIIdtgsnJCDkGhWJTkZlqWltfk4dNhGRqdkl9+eEd++dEdDcsjhBBCjpJUKiuZdF707m3L8ril5+1L7GgPh01cbru4PZg8hM9cCSFHS6VS0aTf+XxJMpm8FAslM9a4xOngA+jdwNXJ43WaMdmh4zNSmfCaRShEEXIIyuZCVCwWJZvNy9LKuqwnNtUjqrU5rjPnEUIIIUfJ0yeTMjQ0K6WCTRxbbmP4uMTtxqQYNICAxxg6Xp9L6uM+aWwJSijCh0KEkKMlny+qADU/vy4jQ3OyupySSCgmoUC4ugbZjtNhk5aOsI7JXp81Rtdm7CMXFwpRhBwBmJq6VCqZUhanyykup4NKPyGEkCMBT99h+KB89eUz+eGHESnn7eKSgHhcPvF6vOa646qufbGBgRMIuqSlMyw9l2LS0BQQh9PG2WsJIYcGYzHu+ZPJjCwtbcjY6Lw8ejAui7ObEq9rlvpIQ3VNsh2nyyHd/THp6IlIrM4ndXEfx2RCIYqQowA/o9rFCSESdDklhBByVMDrdnJyScvzJ+MyPDQtji2/BDx14nX5xe32qmcUMQaP0y4ut0Oa20PSYwyf1s6whKMeCQTd1TUIIeRg5HLWA4HJiQV59HBUpiaWZXlxQ3Jpkbpwk0RDFKJ2Q2cVj/slWu+Vviv1cvV23Fy3GDly0aEQRQghhBByCsEDjlKpIutrm/L990NaFmYXjeGzIn53TGLBVvG6g+JyesRBIeoVGluD0n0pJt39UWlpC6kBVCqXtU3fFnhQ5XTgYZWV04sPrAg5/dRMZbyuJ9KSMOXxg1H57F/vycLcujhsTvG6ghIJNknITyHqdeAhAbxTP/y0Q379n7rVe/Wg4FzgtJj/65iOvzGuOkypwfH19EMhihBCCCHkFILE5JMT8IRalKGBKRk0ZTOZkvRmWgLeOgpRbyDeHJDOvqi094Skvskrbp/I1NyiLK0kqmucHEigjjCUaCQkrU310lAXFY/bxZl1CTkDwFRGUvJ8oShDg9MyPDgj46Nz5nXKjMU5cdjd4nOHKET9DPCKQvnoNx3y2//cI17/wa9ZeKiABPHZfF4SGynJ5HJSFwlLfV1ExSiMtxSiTj8UogghhBBCTiFLiwn58stn8uTJhHpCLcwuvXj6G/TVU4h6Aw1NfunojkhTp19CdQ4pSk6+/fGZPBuaqK5xcmDyEohOXW1N8s7Nfunv7ZBgwCd+n7e6BiHktIIxdzOVk5QpX/z1oXz1+WNZXlqXfC4nsmUTp8Mjfk+EQtQe+eR3nfK7f+gV3yGEKIiCmUxONpIpmZxdkLVEUrrbW+RST7u4kavXFHhIkdMNhShCCCGEkFPE2tqmLCysy+TEojx6OCITY/PqCZUypQaFqDcDIaq9OyINrV7xhCqSLiTlL1/dlwdPhqtrnBwaMuJwyKXuNvnlh7fkzvU+qYsZwzUUqK5BCDltQIAqFMqSzuRkbHROxkbmZODZhIwMzUg6lTHLy+a37RQXhah9cRghqlC0cnTNLa7I8PiMTE4vyPJaQlLprDTH63Tm8v6edhWkQgGf2M24C49UcjqhEEUIIYQQcooYHZ2XBw/GZGhgWqbGZ2VleU3KyG9UfpnfiELUm6kJUbEml9h9RVnPrMuf//qd3HswUF3j5KiFiFzp65Df/+o9+fDuNWlurJP6WEQ/J4ScPjATdjqdl5XVpHz71VMta6sbkklndDwGFKL2z2GEqHQmKxubaXkyMCZ//TqmCVcAALiJSURBVPqhPHw2IrlcQYqlkgpP4VBA/vDp+/J3n74nTQ0xcbldr+SNIqcLClGEEEIIIaeAjY20rK+nZPD5tDx+PKaeUGur65JJZaprvIRC1JupCVGNbT7xRUQKkpX7T4ZkeGymusbxA4MpmTIFr5sZ6WpvUiPp43dv6JP7hjoKUYScNsplTBIBESonM9PLMjY6L0/NeIySy+bUE6oGhaj9cxAhqlgsqTfU/OKqjE3NqwD14+MhGRmfkZI5X/BeQ949r8ctn7x/Q37x/k3p62qTjtZGCcAzymbNaE5OFxSiCCGEEEJOAYODM/Lk8aQMPp+UaXOzvbaSMDfgxVc8oWpQiHozNSGqszciTe0BCcfcKgplsvnqGsfP8Pi0Cl8IIUGpi4YoRBFyytH8Q+m8LC4m5N53z+W7r59JciOl4dE1T6gaFKL2z0GEqFQ6IwnT/g+fjcqX3z+WJwPjsp5IymY6qzkTAULwEAbd3hKX9ta4vHOjX373y3elzYy1TqdTc/WR0wWFKLIvKpUtyZcQo7slhdKWFFHMmFwqW9NokvMLpkjdMue/smUMIhT8vWVOvnm/pZ+97AAOh008Loe4TfG6neL1mAuAw26MJc5iQQghO0kmzU12Ii3Pnk7Ko4ejMjE2J+urCclmstU1fgqFqDdTE6J6+mPS0RPVWfROmkfGaHr03CqPTQkF/RSiCDmlwBMKJZFIydzcqpWj7/6wPPxxWL2gtntC1aAQtX/2I0TBEwphd8gJNTY5p0LU9w+ey/TckopOADmjsI5OCuF0is/rFq8pNy73yG8+uSv93e0Sb4hKNBw0Ngg9o04TFKLIvoD4tL5ZkbVURdZNSWYqks5tSSprBu+fPrAl5wi4vZZKRS2yhVIyF+y8VEzZqpRMwQV6SzC8e9xOqY96pS7sk3jUL411AQn63eYC7eYFgBBCdjA0NCtPn0zK+OisjI/NyupKQvK5vJRLPzV8alCIejMUoggh+wGCRjZXkInxBXn0YFQGn0/J8tKaFjWXdzGZKUTtn/0IUQhrTmWyGor3xbePZHx6XsPzCsWSRCNBcbtcsrK2IZupjAQDXh1jC4WSKUWJN8Tkcm+73LjcLe/cvKwJzJ0OBz2jThEUosgbKVe2VGCCAJXJbUkiXZHF9bIsJiqymixbYlQWgpRZr8yudJ6BEFUsIiFgwVyMUYrGSIKhlJVKuSBbKJWi2KRsDCObNET9pvikpT4obY0hqY/4pN78HQ54JOBzq3eU5UZLYYoQcvHAmIrpwDOZvNz/cUS+/ea5LM6vyNoKpgX/+fAxClFvhkIUIWQvwAsK4zHy8y0tJeT500n54fsBGRmcVi+o3TyhalCI2j/7EaLmFlZk0VwTv7r3WP77v38j6xubps3tEosY26I5Lj6fR4bGpmV+YVUa4zFpbaqXxEZKw/iAz+uRy70d8ulHt+W921ckGglxttJTBIUo8kZyxS3J5rdkeaMsI/MlGZ0vSiJVkUTafF6oSK6AED0rVK/CnnSuwVDx4oKMkDzBhbus3lCVcla2ShmplFKmpM3AUjAXZpuG5gV8LhWfGmN+idcF5Fp3vVzurJNoyCseN9xo+WSCEHLxQMjB4MCMjI4tyNjwjAw+n5DNzbQmw32TJ1QNClFvhkIUIWQv5OAJlS3I+OicPH08bsblKZmfW9YZ8tRMfoOpTCFq/+xHiHo+MimjE7Pyw6NB+ds3D43dUdHZRpGEvKu9WTwel3zx3WMZMOshOfnVS53qHVWbJGI9sSl1sbDcvNIjd29eluv9XeoZRU4HFKLIriAXFIQlhN4hDG98oSzfD+Xl/lhBhalsgd2GvATik4pQhXUp59elWEhJJpdT11jgsNs0PA9i1K/udsgnt9vUSyoa9Irf6xKkjWLuKELIRQA30ngCj2nBv/j8iXz//ZAsL67IwuzirknJXweFqDdDIYoQ8iZgAqMkk1lZXduUxw9G5asvHuuDgbKmnPj58ZhC1P7ZjxD1w+NBeTowLk8Gx3XW04DfJ72dLSomQYhy2O3y3/70hdx7OCC3r/fJ+3euSi6Xl1y+ILMLKzI4MgUDQxOW377Wp55RH9y9Vt06edtYWb4I2UEqtyXza2V5NlWUr57n5ZuBvEwsldQDConJCdmOze4Su8MvdndMHL4WcfqaxeMNi8cD48ghFXOhT2UKsrSekYdDi/Knr8fkywczMj6XkKQxxgrIeE8IIRcAhOKNji7Ive+HZGRoWpbmlyWVTBmjh9dWQgg5KfL5kmymcjI5sSDffvVUnj4ek/XVDcvbn34ap4K6SFi6O1rk7o1L8ttP3pHf/eId+dWHt+XGlR7BLKS70dLUIO/euiIfvXtdhanb13rlUnebNMVjKmSR0wOFKLIrm9mKTK+U5MFYQT57mJP/eJyT0fmSZPLWLHmEbMdmd4vdFRKHJy5OX7u4A+3i9UXF6/HolKm4nm9mCjK/kpJvn87J/+ezQfm378ZlaGpNNlIUogghFwfkhRocnJHPP38iz56My/zMgiQTmzR8CCHkBEFycnhDjQzPyV8/uy/37w3KyvK6ClF640reOvAa7e9plw/vXpN/+P3H8l/+7hP5+19/IO/evCzxumh1rVdpb22UT96/qcIVRCuIUVf7u6S1OS7BAIWo0wSFKPIK+eKWbKQrMrNSlufTRRlfLEkqy8H4NIHc3kir1N7gkI+uuOVjU662u6Ql5hCf+2V4GyLdIn6bdJj1bna55Nc3PXKnxyUNYbs4zC+/FgmH9z63yKUWp/zdHa+8d8ktfeZ9fcguLqe1zt6xme2aYveIw1MvrppnlNtp6mwNNwj7LJbKsrCSlh+ez2uBQAUxqrwHN2hCCDmLJJMZnR0PickR+oFwvEwmW11KCCHkuEFodC5XlORm1ozH0/LV5480P18mnaUn1CnEZQyRgN8rkXBQ4g1RfcVnewGiU3dni1zp65T+7nZpb4lreDQ5PVCIIq+gQlSmIrOrlhCFcLx0juLAacJufrUuh6jA9PEVj3x81WMJUXUO8XteClEQrKIBu3TEnXKr2y2/uemVu71uiUfsKmRhOda2hCibXGp1yt/dtYQoiFL1Ybu4nS+3t2dsdrE7tgtREfF6XDpdKraGmRiL5YrMr6bkh+cLWiBEQZyCSEUIIeeRmhD14P6ojI7MyPLCijF+MtWlhBBCjhvcZ8ITanMzK8ODM/LV549l4PmkjsXqCSW8Dz1NuF1O8fu9EoUQVR/TV3y2F0IBv/R0NMvlvg7NKaVClPmMnB4oRJFXWElWNC/U2EJJFhMV9YZi1NTpwuu2SV3IIc0xh3Q2OqW32SWX25zS3eSUoO+lcASBqSHikP5Wp5beZqd0NDilKeqQiN8SmSBqBb12aQg7pLXOIT1mGxC17vS4pctse7uH1V5Qbyi4WkGMQrie0y8Od0hcnqjYHV6soOvhgVMmV5SltYxMzG/I6GziRb4oQgg5T2xspDUU78njCRkyBs/UxJysr21IsVDcV3JyQgghBwMTRGB2vPX1lAwPzcg3Xz6VoYEpWVpck1QybZbT2DmN2I2h4nQ41AvK43bpKz7bC3gA7vd5Jej3qVeVz4t0IZyp+zRBIYq8wkqyLE8nizK5hJC8iuAemV6qpwuIQwivgxgFj6fGqF1Fo864Q0WlGna7TeqCdhWq2hucEgvZtcDTKWK+Z8ZzFatCfrO9iLU9fA4PqhudLhWt9itEvYKKUeaC4QyIwx01r4jLfrm9kulcWXNTsLqRkfHZhAxPrUtik0IUIeR8AcPnyeNJefRwVMbHZmVtZV1y2Vx1KSGEkOPGCskryOrqpnpAff4fD2RibE4K+bwuI4ScPBSiiMZDYya8QnFL1jcrMrVckpWNss6QRxHq9IHrZaG0pQnll8x5Wlgvy7J5TaQr+nkNnFckl1/bLMtSoqyzIEJoTOes843t4PyWygjJFP3+nFkH21o377N5S4g8CC88o+wO859P7K6wOJw+TVwOgQxg3wjT20wXZGZpU8ZmE5JMUYgihJwPEIo3M7Mi42MLGoo3Nbkga6sbks/lpYyBlxBCyLECkalQKGlS8pnpZRkcmJLx0TnzflGSG6mqJxSNHULeBhSiiA6/yA2VylVkPVWRxURZ80TxPvl0AgEKyeThufbVs7z8+8Oc/Pl+Vr56ntdzVwMhlSPzRV3+bw+y8pdHOflusCCDsyVZSlQkW9iSUkVkbbMiE4sleThW0HWw7p9/zMpjs33s63DYxebwisMVEbfbLz6PR1xOpyVSVUnnijKzmJSR6XVJUIgihJwTIEJ9++2g/HBv0Bg+M7K6tEZPKEIIOUFK5kY3nc7J/Pyq3L83JJ//5YGMj81JuVSiJxQhbxkKUUQ9U+D9hNnyklkrLxQ8ZJg3+nRSKEGM2lLvpcHZojyfKsrgTEnDKeHtVAPX19XNiozOF2VguqjC1ehCUb2j0nl4RVnnHoIUPKCmVkryZLIgT832UOZWLa+4w6CeUXaX2Bwecbm94vX+VIjCbHnryZwsraUlnS3ozHlMWk4IOYvAsEmlsrKwsC6TE4syNDAtE2PzsraSkGwmS08oQgg5AZATqlgsaVLy2dkVGRuZk5HhWQ3HS6wlzf0vRCjeaxLyNqEQRVSMSOW2ZDlZUSGDw/LZAKFzyxsVK9zOvId9s/PhDv4212EVrhYSZQ29RAjmTnA9TmW2ZH61LMsJyzMuc4jQvJ1AeIIA5ff5xO12iX2bEFUub0m2UFIRKmdeIUxBjCKEkLMGjJ+ZmVX1hBp4Nimz0wuysb4hpZIZiAkhhJwImIk5ncm/8IT64ftBWZhbNveXJamoCEUIedtQiCIqRKVzFc0LhfA85BYip59cUVQwSqS3JFdAvqWfPtuBYxHC7+ABtZqsyEZm91kQ8T2ss7RRkTWzzaRZD9s/OsckmzidLvF6feIyr9s9oiqmv0F8QoheOlvU2fSKqDQhhJwR4AmVMUbP2uqmjI3OyfffDsjQ4JQszi/LZjJFTyhCCDkBMBaXzHi7mczIwvy6jI7MycP7I/L00agsLa3JFh500s4h5FRAIYqoCIEk1xAi4C3D8ZkcB1tmuKlsOaRiXnfrYgjH28wUZHUjq6IUIYScFfL5ooyNzsv33w9ZU4LXBChOCU4IISdGoVCWdDqvodH3vnsuj+4Py9rahrnHLPNBOyGnDApRRJUo5B3CDGt45TBNjgMIUeUtp7kRcJi/XnpE1dAZ9DIFWdnIqlcUIYScFSBEjY4tqBCFWZmWFpYllUxJ5ajimwkhhPwshWJJUumcJUR9OyAP7w/L+qolRPFJOyGnC9sW5eELT7G0JQOzRRlbKOnsacNzJZ3en5CjAq7QhfyGFHMJSWysSjKZkFLpVbEpFvbK33/ULR/fbJXWeFA6m8LVJYQQcjpJJFIyO7Mqk5OL8uTRmIyOzEg6lVER6rgJ+uolFmwVrzsoLqdHHA5XdQkBDU1+ae+OSE9/TDp6ohJvDlSXnByPno3Ko+dWeWxKKOiXP3z6vnz87g1pbW6QhrpIdU1CyEGBKZvLFaVQKMnQ0LQMD86oZyoSkyc3Uhqud1yP2e12p7gcHvF7IhIJNknI31BdQl7HJ7/rlN/9Q6/4/Ae/Zm2a6+zi8pqMTMzKf/vTF3Lv4YDcvt4n79+5Kreu9cltU8JmvCWnGwpRRIrlLRWgZlbLsrBeNq8lYTQBOUqsmaSSsrmZlEQyYS4gP03eGwl65NO7bfLulUZpqQ9IR1OouoQQQk4nU1PL8sO9YXnyZEJmJ+dkaXFFtioIcT/+WysKUW+GQhQhFwPcYyaTWXNvmZOvPn9kymMzFq9JIZ8/9vBoClH7h0IUqUEhiqj3E2ZUwwxsmO5/aaNsBvXqQkKOAMxQktxMaVlNbEgiuanJJLcTDrjl45tNcquvXuJRn4pRhBByGtnYSMvy8oaMDM/JsyfjMjo6K4m1DUlvpqtrHD8Uot4MhShCzjeYpRSz4+WyBTMWz2o43uDzCRl4PimpZPpYPaFqUIjaPxSiSA0KUcQM1FuSyGxJMlORzZw1Y9rRzZZGiPW0amMzIxvmwrG0BjEqLYUdQlTIXJDeu9Ig17qiEg26pT7srS4hhJDTxejovDx4MKYi1Nz0oqyYG2LMjGcZPicDhag3QyGKkPNNUfNB5WVtbVP++tl9+farp5JJZ03JnNhEERSi9g+FKFKDycqJYreJuZG1idsUj9tmbmxZWI6uWH3KLl6XXTymuFwOcbucrxSX0yFOh10cpjPabT9NZk4IIW8beEJBhBoZmpXx0VmZn102n21KsVA8URGKEEIuKvCEwgQR6+spMw7PyeMHozI5Ni+rywnN0cfZSgk5G1CIIoQQQgjZAwjHgyfU48djMjU+L+urCcnn8tWlhBBCjhsIUdlcQZaWEvL08bh89cVjmZ5eNJ+X+ECAkDMEhShCCCGEkDeA2fGQmLyWE2psZFaWl9Ykm8lqSB4hhJDjRT2hCkUdjyfGF+T500kZHJiSseEZWV/bkK2t488JRQg5OihEEUIIIYS8gdmZVZ0dr5YTKrG+IYVCobqUEELIcYNJbjLpvMzNrcqjB6Pyw/cDMj+3LOVKSWcrJYScLShEEUIIIYTsACEeuVxBksmMTE0tyZMnEzI2OierKwnJpnNSKW+JzWZ/y8UmwpR6hJBzDMZiiFBpM+4uLiaqs+NNycjgtKytbsiWhuNRiCLkrEEhihBCCCFkB0iGOzmxJN9+MygDzyZkdmpOkomUuXHC5Aret16cDrfY7Q4VpMz/qrUmhJDzRb5Qks1UTsPxvvzbI/n+m2eyME9PKELOOhSiCCGEEEJ2UCyWZWlpQwYHZ2VmekXWljckly6Kw+YRj9P/1ovrhRBlo1MUIeTcks8VJbmR0RDpxw/HZPDZlCTWNtUJSse/n3iKnlyxb3tP91RC9geFKEIIIYSQHTjsdgn4AtIQrZeGSIspnVIXbpNosEkip6D4vTFxObzisDmrRhAhhJw/EomMTIwvy+L8pmyVnOJ1B00Ji98TeevF5wlrfdwun7lmOKs1JoTsBd65EEIIIYTsAN5GAZ9f6iP1pjRLQ6RD6sLtEgk2SzjQ+NZLwBsVl9Nj6gnjh0/iCSHnk431jEyOr8hSVYjyuIIqAJ2W4nWHxO2kEEXIfqEQRQghhBCyC/A0cjgcpjiNkeFSQ+O0lFp+KCs0hUIUIeR84na7JRQISigYkYAvJkFvtfjq3nrxe6Pi94TF4w6Y64SrWmNCyF6gEEUIIYQQQggh5NTh83ikLhKRWDgqQf/uIXJvr4TF66FHFCEHgUIUIYQQQgghhJBTh8NhF5cLs5W6xAnPVMcpKlVP2RczmBJC9gx/MYQQQgghhBBCCCHkRKAQRQghhBBCCCGEEEJOBApRhBBCCCGEEEIIIeREoBBFCCGEEEIIIYQQQk4EClGEEEIIIYQQQggh5ESgEEXOFZVKRcrlspRKJSkWi6YUDlXKZjvY5hbK1lZ1LwcD339Zv8PX7ehLUUqmoH6HPVZCCCGEEEIIIWQ3bMbgpMV5walUtiSZ3ZJ0fktSuYps5rbkrPaKTDolm5sbkstmpZDPq+BzUOx2uwRDEQkEQ+LxeMTr9YnNfHZQIPLk8znJ5bKymdyQbCZdXXIKsNnEYY7N7nBINFonkViduFzu6sLDU65UJLmZlY3NjCyupWQ5kZFiqVJdahH0OeXdy/VytTMikYBbYiFPdQkhhJw82UxRpsc3ZGZiQ8aH12XGvC/tGLfI6aWhyS/t3RHp6Y9JR09U4s2B6pKT49GzUXn03CqPTQkF/fKHT9+Xj9+9Ia3NDdJQF6muSQh5HdPjCR2LUSbMWJzaLFSXkLPIJ7/rlN/9Q6/4/K7qJ/tnM2XsieU1GZmYlf/2py/k3sMBuX29T96/c1VuXeuT26aEzXhLTjcUosi5EqLW11ZkcWFWkomEpFJJFaMOCkSZpuZWaYg3SSAYlnAkquLUQcnnclqn5Ma6qeOcJNZWq0tOB06XS1ymtHV0S7spXt/RDeAUogghZw0KUWcbClGEnA8oRJ0vKESRGhSiyLkQolKbSUmnUzI/MyXjY0PqcVTI5zRE76BAdApHYxIKhaWjq1d6Ll0Rr8cnDqdzX4KUhuEVCrK6siQz0xOyOD+rYlQ6laqucQqwiTjsDrE77NLe0SNtnd0Sb2xR7yiP11td6eBQiCKEnDUoRJ1tTkqIyheKsp5ISiqTk0rZ6h+xaEjqomF5Oji+qxD10bvXpSleJ7FwUHLm+7lcXlzm3sLlelngpUwIoRB13qAQRWpQiCLnQoiam5mSpcU5GRl6Jk8f/WAuUptijkLw30Gx2WzicrvVU+id9z+RT375ewmFI+Lx+sRpbhj3Si6bkXRqUwWyxw/uydjIoBSLeSkVDy6SHQs2/c/yiOrslkuXb0hP3xWJRGPW8kNAIYoQctagEHW2OSkhKrmZluHxGZlfWjXXduu63t/bIZd722VgeGpXIerDd65JQ11UQgGfJJIpWVtPit/vlYDPK8GAXwLmPcQoQgiFqPMGhShSg49byLkAwpDb7RGHw1lNCF7SnEzwRjpoKZqCbUGcsdvs6gWFHFE2fLAPIOpVzP+QBByeUfDUwutu+3yrRZO7F7W+DodL2xJiHCFnnWw2J1MzC/LEGIJz88v6NwxGPochhByWghlLllcTMjG9IM+HJ+XHx0NyX8uwzMwvSd5cV2vo/UBlSzKZnAyNTskX3z2Wz799JH/79qE8eDIso5Nzsrq+odsk5LgplyuSMddDePTNzC3KsOmTS8a4z+cLuozXSELIcUIhipwLXG6PJhX3+fzidLk1v5PNdrjuDQnG5XSJ1+tXkQueUZar/PkWZ9xutwQCQXPcXm1HQs46aWP0jY7PyI+PBmRyZkFvvIslCFHVFQgh5IBA1IZ4NKlC1ITcezQo391/Ll//8ETFKRj1NWDY46HUZjorjwfG5N8+/17+9W8o9+S7BwMyODYlS6sJKRQOPtEKIXulXCnr9RD9d2JqTp4OjMrc4orkVIjCDMrVFQkh5Bhw/KOh+p5cUHChyZfMzVRZpFDaMqW64AyBmzuHwyHICYWLZzAU1pCySLROYnUNByp19XFpbm2XltYO6ejskcbmVhWk1DNqH55CWxWEcmypxxE8tSCaIfdUJBLbdb9vpdQ3SL053vqGRunquaTJyusa4ipIOZ0Hd52tgfOTNx0LuTTS2YJkcvA2e/UOx+2yS0u9XxoiXvG6HeLzMCyBHA1riaQ8fj4iT56NSDaXl3QmKyljCOZ0Zs2yOJwQrm3q7UgvQFKjVKxIMpHXkljL6evOcYucXvxBl7nWes31zSeRmFcCwaObCXY7uK5tbKTMdS0v6+YVIXoFc73f3MxIOmeJ3gi9g9cUroUBv898pyADI5MyPDEr64lNHY+am+qlu6NZ2prN/UcsLF7P8dSXkBpFc/3bTKVlbS0po6YvQkjNZs010vTHjHktmr6N1ApOc410ON6e70IyYY2/tbG4UDAGCzmzdPRYIdMu18EfdkOsx73cmhk/B0enVEBF3j1MAoFXFI/78PYLOV6YI4rojfVZzxFlCVAlSayvycrygmTSacnnc1IuHfypIsLwwuGIBDFjXtQSjWrhavsxViGMoaRTSVlbXZaNxLrkcllzgT/4jH7HAY4NidhrgpQ/EBK3B+GOh/eKYo4o8jYZn5qT//7nL+Tzbx5I0BiBgYBPerpapaOtSTrbW6Svu10/c5q+/jZvtsnpgjmizjYnlSMK4jZylUzOLMqX3z/WAoG7ZK77kVBAIuGgbKYzsrC0pvcOrU31EjTjDf6GEeXzusXv88hvPr4rv/nkrnS1N0vUfMdDIYocM+i7yyvrMj27KN/ffyo/PHguIdNnw8GA9Ha3SXdHq7S3NkpnR7PmLntbMEfU+YI5okgNClHkXAhRNQqFvORzORWhCvB2KB9ciEJeqEAgZAbKgHpMwDPoMN4SyMOUN3VCjijUsVA8PUKUzfyD4IRjxPH6A+aYHUfnkUQhirxNEJb3X//5L/Kv//Ft9ROR7k4IUY3S09kmVy51SV0sosahz+dVTwQmCiYUos42JyVEIZckcjqtrm1oON7n3z2S2YUVmZtfEbfHpQnI4TWVTKX1fgt/Y3xB+BNm2WttaZCutib55L0bptyUhrqILt/P7LyEHAR4Py0ur8rE1Lx8/s19+eKbB+r9hIcyPV1t0tvVqtfKS70deo30eT0qkGI51jspKESdLyhEkRoMzSMqOp310LyXWIIKZrvzeIxB6fOrsHKg4guIx+fTPFFWzqn9eUL9FFM3c2OJXFPwNPKabe+637dVTFthRkANP6we71EBvZuheeRtgUSsA8MTMmZuWGrAY2FzMy0rxnicmV2UpZV1yWSzggStXvP79PkohF50GJp3tjmp0DxgN9dL3Htgtrt4fVQnKMFsesgfhRw88DwpmZusyhYmU6moeAXBuz4WlvduX5G///UH0t/TLg3mux5z/2K3H/Z+g5CfB9dBhDclNlI6oQcKbIItM84h9AmhpitrCRWrcB3F+m6nUz2H3ScY9sTQvPMFQ/NIDXpEEb2xPi8eUeR0Qo+o3YExAiMFMyjBcCHHA26u//TZ1/q0dye4oXaZG+u2lkbpM4ZgX3eb9Pd1SYu5mXG7nKZgBsnqrJk0DC8U9Ig625yUR1QNjOfIuQMB6ovvHsnn3z6U8al5WVhes7yfqiImxhKIUO0tDdLR2iiffnRHhSh4QbmcDnpCGWCaoD0h2qHtdBY38zc5WtCuK6sJnTHv+/vPtOwEXlAIL21va5Kr/d1yua9TxVZ4SEE0dbtfpqw4rmskPaLOF/SIIjUoRBEKUeTYoRC1O7gJfPRsRB4/G1ZvMXI8bCRTGp4HQWonuHGGpyLyYtRFw+qRgJwYSBzc2hSXNvO+lleKBuLFgkLU2eakhSjcTuNah3EdAhTKdw+ey49PhjRZOcZ4hMEjtKmhLiwfvXNdjaWezha53NshdoddxyIK3paoh4TZMDZHJ2fUmxUPbcjRUi5Zs+ZBPJ2dX5a5heXqkpcgBA/CaTgU1Otjc2O95XFiXjvbmqS1OS4ut/XQ5riukRSizhcUokgNClGEQhQ5dihE7U4qnZH/+s//If/1n/6iLsbk7QOvhGgkpDfaN672mhubfr35jtfH9GbbYYfHgmUo0mA831CIOtuctBBVA7fVyBmFsLw//fU7+fNfv5fpuSUd7zFmIIF5R2uT/C9//KX88oNbOuYwhORVMMELPHVgaH7+9X3NX4TZBcnbx+/zSlMjQqDi8s6tK3qdDBqDH8nM4UW83Xv4qK6RFKLOF0chRCHn3uLyuoyMz8j/789fviJEQYSCGEUh6vTDx7uEEEJIlVq45PLqujwfmtCZ9r767pF8fe+xjIzNSGJjUz0emCuIEPI6NOTXGOWXutvk9798V/746w/kt5+8ozPj/eHT9+W3v8DseE26DmfqJGcJCKzIKTUztyQ/GuP/z3/5Rr4218gnz0dlZn5ZUums5pKinwM5TpDHDP2sWCrpfZvY4N3ueJFOgY8Jzwa8+hFCCCFVkJMEObuWVxLyfGhcvvjmvnz53UP55t5jGR2flo1kVYjaomcMIWR3EGIH75AXQtRvPpDffHJXiwpRn7yjYU1YB+sSclaA4Y/rIISoHx4+lz999o189f0jefx8RGbV8y8rpTKFKHK8IK8qhCh4n5YrWyo8QYCyxtSjnXCJHB+cNY9oGN5xzpqHi1GxWJRcLiupzQ1JrK9KcmNdNpOJA5YNSac2zfYyun3M8kZON+gDnDXvpxTM7wKzuQ0MTehTRnJ6QJ/FUzbcUKOv4lxhlhbk0kDyXITS6PTV5l6HhuT5hLPmnW1Octa87cAAqhW7zfKMwuxQXrdbouGg1NeFJRT0W95Q28KYyEsw/sIzFSHrtdnccjmGY50WYDfgHOHBDYQp9GHcw2TNOUpupvRcIRcakpmDw/Zxzpp3vjiKWfNwLcY/gFlJcT92rb9brl7qlMZ4TMdavUcjpxoKUUQvKMctROWyGUklN2RleVHmZqdlZWlB1laXD1TWq0JWNpMRl7nIhUKR6p7IaYVC1O5QiDr9YHyEkI6nvMhXMjY5Y26y88aYjIrf7zU3OjAyz39fvYhQiDrbvC0hajswwCE2QbhGHp1wKCB+n0cNpO25dMirUIg6W8BLeD2RlKWVNZ2BL2vOXWNDnUQiQRVjD5vEnELU+eIohCh4P/m9HgkGfDrzMSabuX65W670dUgsEhKv5/iS55Ojg8nKid5YH0eycnStcrlkLhgFWZibkZnpcXMRWZcNU0qlg88QZjMXNYfDIf5AQNo7eqSts1vFqEAwdKEHHfXeMAZzPp8zbbym7YxzsLXHECK0q81uMzcOMYlE68TjhZF9NAM5k5XvDpOVnw1gRLpNwRTWmDkIU1h/8uEtaWtplIDfa2546JV5HmGy8rPN20pWTg4Pk5WfLXxej/h8XoljYo+GmFzq6ZAP3r0hHa2N4nA6xGnu2Q8Dk5WfL44iWXkNiKCzCyuylkhKQ11EmhrqXvS52sQy5PRCIYocmxAFYQSiCMLonj25Lw9/+FYQnpc3RRPLHQI8RfT5/CpCtXd0S2f3JWlr7xKn6+LOPAMRKpNJyfraqowMPTPluVTKJb2h2wsQ9xxOp/T1X5NLl69LXX1c2/go2pRC1O5QiDr92M1YAwEqEg7Jpd526e1ul872JunuaJVwOKA3O/jtkPMHhaizDYWoswuFqLNFY7xOZ5q93NdprpOd+pCmubFOZ9LD/fphBQEKUeeLoxSiNK9nNqcRBggF9Xrdet+GfkeP09MPfdbIsQOtM5/NSiKxpiLJbuF2BykI0UttInFwTj2vTlJRLRYKZt9JzVmF96eBQiEvS4vzMjE2JGMjg1Uxap9l8JlMjo/I3Myk5vJCSBIhFwnctkBY8nrcUhcLS2d7s/Sbm+tb1y/J7Rv9cscUiFHRSEhveihCEUIIuSjAyIeXMPKctTY36PXx2uUevUbevNYn16/0SHdHs4pQCJ+iVwo5TtDH0BfrYxEN07M8oRj2fFagEEWODQwCLpdLvWrCkag0xJskiPC5Qxpu+nTFbANJyiPRmDS3tJvthk/0YpfNZmR5aV4WF+b0/WkA3mZTE6My9Pyx1q1cQh6mvT+919C+UkkFqJmpcVldXlRxi5CLhM3cwOAmG15QPZ2t8u7da/Lx+7fkVx/f1ZtthB0gHM9ubn4IIYSQiwTCnpDvrCleL7eu98vvP31ffvXRHfngnevS09Um4WCgmgONQgAh5M0wNI8cW2heDXgMjY4MyOCzR7K4MKviTSGfqy7dP1C6nS635jG6cesdU96VYCgs/kBQlx0nEGsqlbIsmWOA6FMoFqS7t18aG1s0n9LbDA1cWpyTrz//TIaeP5JUKqUhkfvBenhgk8bmVmlsapGr12/L5Wu3JFbXoMsPA0PzdgfheH/+7Bv502dfq2sxOR6KpbJp3+xrk92i78OzCYnHfR63hMNBaaiPap4L5INqa4lrwXJycWBo3tkGoXidvRHp7o9Je1dEGpoYmndWQGgecr4gPO/7H5/J9/efykYyVV1KjgqYgAhtwuywmA0W+XZ2A6ISrpGYmCMU8Gsi8ubGerl145JcvdwtoWBAwkH/sV0jGZp3vjjK0DxytqEQRY5diMINBWa5W19bkdWVJS2HCWfDxdDj9Wly8iaIJs1t5uLoVu+r43bFhPdTJp2SidEhGXj20LxPS2//VWlr71aPr4bGpuqaJ8/mprlAjw7L7MyEzM9Oa9kzMMTtVq4bCGsoLW2dUtfQqB5th4VC1O5gpjzMBjQ5M28MXM4Cc1wsrazLjw+fy9OBseonL1Fh22GXaDRs3Vw31UtHW5PeZMPVG4JUwO9Tl+/jFrrJ6YJC1NmmpT0kfVfrNEdUY2tQonW+6hJy2sF9KUQRTMu+uLwqS8trOusuOVpwD7KxmZLV1YQMjU5p2Qm8mxCGHouGpKU5Lp3m+ogcUC1NDVJfF5FYLCxuc//tdjmP7RpJIep8QSGK1KAQRY5diNpObTa3w8ya53A4xevzi9frVUHKa8pJkVhf0/xUEKEeP7inOaJ6L12Vru5L0nPpsvT0XamuCS+Lk3VLhrgHMWrd1G9sdEjGRwerS34em/mHROUup0v6r96Q/is3JBSJqpfXUdxYUIgib5PR8Rn5r//8F/nX//i2+on1hBfTSmM2POSDam2Ja+6n3q42TbiKm2w8/UUhFxMKUacPXFYxu2vNg3fXqyzWMaWtKyKXbzRId19Uog0+CYV5TSFkO9msJfRNTM1rQvgvvnlQXWI9pHGY4vV6JBTyq/iEayO8hPGwBtfIk4JC1PmCQhSpQSGKnKgQlctmNJfRYWbNs3JPudUF+KTD4aYnxzQR+OjwM5maGDOGSloaGpulpbVDbtx+V27eec9cvN9Oojx4niFxO+qkydxXV6pL9gbqjNxbDfFGqY83GePcp3lwbMZYPywUosjbZDchCk93kQcKXlBIuNoYr9dZf5ADqqEuam68A3oTjkSY5GJCIer04fU7VVDymusFxGSIUjtxuezi9jiksSUoHd0RibcE1ODxeCkqE7Kd3YSomgCFyTrg7dRoronwhML1EXmh8IprZ9hcI08KClHnA30AaMpHv+mQ3/7nHjOeU4i66FCIIicqRJ11njy8J/e+/ULzQ6VSSfVCghBWV98oH//yt6b8Tv+GQHbSQtRphkIUeZvsJkT1drfpjHhXLnXpTHgIw/P7feohRQigEHX6iDX4NOQuWuc119rdhWKf3ynBsEfXqYv7JRB0V5cQQrazmxClnsBOp1zq7ZC+nvYXuRJxjcQyhOqdNBSizgcYs51Ou3zwabv8+o/d4vXxfuui4/hHQ/U9uaBAdMqXRIplkUJpy5TqAvICJP5eX1tVAQoFM8sVi5iVbktDAxAuiGTpmMkPApTP79enSsQCenfedCzkeEhnC5LJWW23Hbe5QLXU+6Uh4hWv2yE+D59ek6MhuZmS8ak5WV3fUPEJyVVvXOlTEQp/x+tj4vN51MuSv1tSo1SsSDKR15JYy+nrznGLnAwQlyAstXWGpbM3KvVNPtmSorkO5yRXyEo+n5FQxCNNzWGJmetI2Lx3e+1mnYokEpsyM7Uoc7Mr5vos4vFYwhSezCNRM7yJV1c3ZGpy0VznkypuOV2Wsb39gdLqyoZMji9IKpWRcjWnHzyyamNGwVzflhbXzT3CgmxspCS9mZWKufbBeK+tgwkTEuubsry0ruuibG1VJBB8mWIA28lm8rJq6jI5Pl9dZ+uVehNyFCA3JSZNSaWzmgy+aPoeHtLcuNIr16706HuE4NVFI9r/4CVvfwsPWZMJa/ytjcWFAnNqnhbggerxOXXMjdX7JGLG6XDU85MSiXmlpS0krV1mDO+JSrwlSI9zIuwBhOwBJCjHTHlItJ5MJjS8sFyGYocZR8r69/LivOZlQkhcxdzcEkJOB7h59vm8Eq+PyrXL3fLpx+/Ix+/flPfuXtMnvggzwE02b4oIOZ34Ai6d9Q55nzr7otLWGRR/yCYVW1ZyhaSksuvi8VektTMkze0hqW8MaPheoVCQhflVef50Qh7eH5bFhTVN0FxLD4BXGOMQhgaeTcjw4JQkEin9bKfoCCHquVlnYmxOVpYTksnkdL0axUJJ9/XsybiMDM2osAXRafs6+VxBvzs5sSBDZl/YHoSm7WA7qVRWt/X08Zg8eTT6k3oTcpQ4HQ6JRULS3dkqd29dkd/88l356L0bcvNqnz6swWQdWOdtiFDk9ILu4HI7xG/GZ3iftnaGpb07smvBDKaXrtfLjXea1KvV4WBfIvSIIgZ6RO0OnkBumZu+cqUsczOTMjTwROZnp1RoKhTy1bVqbOmTz3KpKIFgWKJ19foEFIUhevSIIm8XiMXog5FIUJOtdne2SH1d1BKg3JYAhd8pf6tkO/SIOj3A2wlhecj7FG8KSMVWksGBCRkanJSlxVVJrCclHAlIQzyshpHb7VQPj6lJS/AZG5kz662Jz+8Vj8elBrU/4JWNREqWF9dleGjaXOMnJZFIi9drxgSnQw1vhOoifCm1mdHtPLw/JMkkcl0W9PoeMNvw+a0w8kw6J4PPJ+XBj0OytppUwQn7iDdGX3gzra4kZODZpIpVM9PL+jdCghsaIjpGYZsrKxsyMT4vo8MzMmIK9heJBiVWB+PNmmCBkKNA73PNkIb+joc1ddGw9HS1aWLySCQkAfN7wYx4tXvZt3WNpEfU6cPhtGnePQj/XX0x9VZtbguJL2A39lBB3F6berE2NAbUU6quwdzfm7Eb7222imQyWRXmVWA3nRB9C/0MoF/iWmvNup7ShwDFUknHvto6NSD0r69v6piL9Wuho+iqtf4KL1OI+yh4X3s4gJnCa0Dkh4csxnFsD2M+HmLuNmFN2mwH43vW1B/U6sR7yP3Dx7+EvAGIUCUzSCL5N5KULy7MaULwnWDwwwx6iwuzsr62bAawDTPAZs1gyqeXhLxtgkG/XLvco55QV/t7pKEuJn5z082bBkLOBgiBgwhjd1jGMELXxkfn5OGDERV2xsfmZW52WY2DFELijFGxuZExn8/J4MCUClJzc6vqpTRp1l1f29TtIoQOn0H4wSsKtjU7vSybxhCBQZRO5dQQmp9d0WXDg9Py7Om4bjOdzup2QNEYN1hvdGRWPZ3ggTU7syyF/MtZglG3Wr1Rr1q98T3sB/WGFxVEKCyfnlpSAQ1GVjKZfmVbhBwWGO1IOt7cWC/9fZ3qDQUPqJC5ZrqNAc5rJNkNdAuXy6GeqvBuunanUfqvN1hh040esbkKYjclUu+Ulo6gtHVZnlK1nH3FUlGWltZ1vIboA+9S2FE1II7i71KppGHTGJ+XlxJqj+0En2EZ1sG6+A6+i23UKBRKOq6+HEszPxlLIXxBoMI4O2vG5NmZJRWldgPXhumpRVmYW1Fxy9ofH1IdBApRhLwGDCrZdFqFpbXVFX1NpzfNgPPTgRDrInF5OpXSdefnZsygt/YijwQh5O2BJ7p1sYi0Nsd1JiDkg8JTLt5kE3I2wC8VE7jqT9YUXFthMEDAgSGT3EjrU2p4L+EJO67JePKd3MhIYm1TDYdMOispY4DACMnnrSfZMEbw5BuiFdbB8k2zXeSBQoicubqrYQMPKIhO2A8MGhgzWL8IV/Iq8KDGelgHQhc8m1Cn7eF0qFut3thOrd74HvaDeudNnRAe+KLembwuL+RhYPHhFjk64MkBL5OA36eheZg1FsIUPoO3CK+RZDfQL5B4HOHP4Si8nvzqCVWumPEvtSmLi0uysLBkxsBVSaVTYnNUJBBym+/YpGRsKHiCDg1MyfPnE+pFCuE/k34ZaQJhB+MjHgxA2Ie3KvL8bZjxMpfL6/LaWApBC7n0sA7WxXfwXayDgrEef09OLOpDiwGzPzxMwHVjOxjfEQ6NhxcjZjm8aFdMPSFGWdcCUcEMYhceMGAbCMGeGLPy+GGcJvuHQhQhr6FSKcva2ooZZEbMoLlobgLzUvkZ1RuD3srSggw9t8L4ikXO7EEIIYQQQgg5++ChAEKgMeud2+NQUQrepeNjs/L8ybg8/HFYfvh+QL7/9rk8eTiqHkv6cD+TV1EIIcdfffFI/vbZffns336QRw9HXhGGELKHPHrffvVU7plt/HhvSAWr+bkVDaeGhxNEobmZZRWX8H2sg3XxHXy3FvaHBw/wbnp0f1j+9h/35T/+/Ud9hWC1HdQRdUWdUffHjzA51YI+NMC+AN5DfHr2ZEwemGO8h2P85pl6yNa8bMn+oBBFyA4wWKraXigKQvKmJ8fUy6n2tPJN4MlnMgkX/ilZWV4UzLYHAQvbI4QQQgghhJCzis38Q7JxCFAOpxUyDU+l1dWkLC6uycL8ms5SOjO1JPPzq+r1CfMJXqrptBXqjNA2hNONjc6qJ1Iu+9KjSPM+rVkeUfA+ggAFD9PNpJWfDxNCwUsJHlLwiFo0+8M6WBffwXexjXKpotuFhyn2gVlPERqNAkFrO6gj6oo6o+7wcsL3IEJB0Kqtg3DCxYV13R7CqqenF2XJ/J2tilVkf1CIImQHEJPgyZTNpnUmvMnxYQ3Lg4fUz4GcULlcxgyO6+pNBU8qzLJHzyhCCCGEEELIeaNS3pJS0RJ/8NAeCchLZeR5ejkDKUKLkdNJH86bjzQhOQQj8znWr4F3+AwCEF5fLnmJOg2Y72Kf2M5u39E6qCBl1jHva44GVp1eDXOu5YhCnbfXZTu6Do4R2zerWN+xZl593XfIm6EQRfbECy+hYlGQrDubSb/dks1oMvBS6egTdyIHVCaNXE/Lmpx8dmZSNhLr2gZ7AR5Qqc2krK1AVZ9WMaqWuHyv2yCEEEIIIYSQ0w6EnZqoBFnIEooskcayfTATXlW0qYpAlm1ZUQ8n84d+ppi3L9c1f+xiOtW+i33qxFD6HUtM0u3ja+ZvrRPEMWzHgHX0O9W/a2B7+G5NSNuNF3VCfc0OtA74Do55x/bI3qAQRfYEciNBTEluwAVyVibGht9amRwf0XC5+fkZFXyOGghJSwtzMj4yKBuJ1eqn+2czuaHeVPMzU1pPa7DkQEUIIYQQQggh5OJCIYrsiXKlIvlczhKiFmZVDHqbZWZyTBbmjkeIgseXClGjg4KZ7w4KQvJQ17nZKUmlkupphVl1CCGEEEIIIYSQiwqFKPJGIJ5AgEKOpKHBJ3Lvmy/kycMfZGTo2Vsrw4NPZfD5Yxl4+lCea3kgy0sLpq6HSwiOPE7wYlpdWdLtoWQy6erS/VPWKZ+zKmbNzUzJwvzsobZHCCGEEEIIIYScdShEkTcCcadQyMvG+pqMjw7Jowffy9Dzx7uGzJ1kGR0ZkJGh5zI6/ExGh57J+uqyhg8eBsyKl05vSmJtVfNDra4sSy6bqS7dP2i7fD4vyY2EelhB2EJuK0IIIYQQQggh5KJCIYq8EZvNJna7XWwo5j2Ss5UrmHGg+FYLRCdUx+v1SSRaJx7zatXv4CAJ+sLctExNjkoisSaYJe/QOZ3M97FdiFAQozaTCc1BdVjvLUIIIYQQQggh5CxCIYq8EZvNLg6HQ9xut4o+KE6nq7r07aDimMMpbo9XYnUN0tbeLeFwVMWyw5BObWpOJ4T+ra+tVD89PAjHW5ifkbnZSUmsr0oul9GwPUIIIYQQQggh5KJBIYq8EbvNJg6HU/z+oDS3tMuly9elr/+q9PRdeWul1+y//wrqcU1aWjslEqsTj+/gHlGax2ltVXNDISRvc8PyWjoqEPKXy2LGwYQsLy3K0uI8c0URQgghhBBCCLmQUIgibwReRg6nQ4KhsHT1XJI7735kysdy972P3mL5WN794JemHh9KR1evBINhcbs9BxaiMumULC7O6myAEIuQ1wlJ2o+Kra2Kbg8eV0tmH7NTE+b90c/2RwghhBBCCCGEnHYoRJE3omFwdofmYKpvaJSO7l7p7r0kPZeuvLXSewkeWZels6tP6hripm5ecTqd+xaikP+pUqlIajMpC3Mzsjg/q+8hGh06N9QOsD0kKl9ZWpS52SnZSKxLPp9TbylCCCGEEEIIIeSiQCGK7AmIPPCM8ri9EgxGpK4+/tZKNFavHlqHzVeFhOelYlHzQU1OjMrs9KSkUpvVpUdPIZ+T1dUlFaIQnof9IpE5IYQQQgghhBByUaAQRfZEzTPK6XKJ1+fTcLi3VQKBoIpQLrdbE6kflGKxoGF5SCC+vDiv+aHyuWx16dED7yeE50GAQj4qlEwmVV36KvCgwsx6yFUFL6211RWt39rKMRWzbdRrI7Gm4hiSqaMOR+0ZRgghhBBCCCHkYkMhilxYkA9qZnpClpcWJJvJqPBzEsILvLBWlxdlemJMEutr1U9fBUIQBKHlpXl59uS+fPnXP8vf/vI/5K///t+PqfyLfP35Z/LDt1/ozIEQyNAepkGqNSKEEEIIIYQQQg4PhShyYUEYHhKUI1+TyJZ4PB71tPL6/Jp3CgnQ7YfwuLLCGZ3quYUcWz6zXRT8DS8nKyfVRnXtVymWirKZTGgY35OHP8gX//Fn+fyzP8lfP/uXYyl/M+Wrz/9Nvv/mcxkfGdQ2KRbyUtmqVGtECCGEEEIIIYQcHgpR5MISjdXpTIC33/lAPvn07+Q3f/cPWn71mz/KBx//Wm7eeV/ijc3VtfcP8li1d3TL9ZvvyMe/+O2L7X/62/8kH3xitn/3PWluaa+u/SoI4RsfHZKRwWcawlcqlzSx+nEBT7BCIS+pVFIWF+dkYmxYlhbmdAZBQgghhBBCCCHkqKAQRS4skWhNiPpQfvHrP8hv/u5/0vKr3/7xhVB0KCEqaAlR127clY9+CSHK2v6nv/tPL4SuptcIUZn0pkyMDcnI0DNZW1mq5mw6Xu+kWj4qJFKHCLZoXpFgnRBCCCGEEEIIOSooRJELCxKdu1xu8Xi8VticP2AV8x4hepgh0OFwVtfeP3a7XWf1c2vI37btm4KE79iv07n79n2+gLR19EhP32UVqyCaHXeJ1TXorITNzW3S0dUj9Q2N4nJ7qjUihBBCCCGEEEIOD4UoQk4hgWBIRajL125Ja3unhhEeb6lXEaoh3mT21yW9fVekqblF82YRQgghhBBCCCFHBYUoQk4hSGgOgQg5pLp7++Xy1VvHWq5cuyn9V2/IpSs3pK0Dwle9enHZ7QdP1k4IIYQQQgghhOyEQhQhpxCEBPr9QWlsapEr127Jh7/4zbGWDz75jbz/0afy7ge/kI7uPvEHgjpjIGb+I4QQQgghhBBCjgoKUYScQjS/lMslXp9f8zchafpxF4TlIS8Ukqxj36gDhShCCCGEEEIIIUcJhShCCCGEEEIIIYQQciJQiCKEEEIIIecKePTa7NVi/uln5r0df1e9fbevY/6y/jOfwSO4+pV98co+t+1nO7rOts+t/e2+LiGEEHJeoRBFCCGEEELOFRCCnE6HFhWabDZxOBD27rSEJoPd/O0yf+Nz6EAQg2rfqa2zdywBy+V0vijWNl4Vnaw6YPvYoVUH1Mmqw8t1CSGEkPMMhShCCCGEEHKucDrs4vO6xe/3ite8ejwuffX53CoE6TpOu3i8yMfo1mVazHt8BmFoP0BYwveCId+Lgr9VcKricDrM9j0SCPrEh3p5rHqhYBl1KELIeWVra0sqlS3zWv3gtWAdrFvRV/3EvOC9vpp/ewHrWd/Rd9VPd+fFetYOqh9an5Pjg0IUIYQQQgg5V8TqwnLtZo98+PF1ee+Dq3L33X65fqtHLl1ul4aGiLVOLCy9fW1y63afWeeavGvWu3GrV7q6WyQSCeg6ewUCU//lDvn937//ouBvfF4jFgvJ7bt98vs/vCe/+d078smvbsvlq10SNZ/7zHr798IihJDTD/ScYrEsuVzevJbeKPBArMrni5LazEqhUNR1S+Y76XRWctm8lEuV6ppvplKu6HbyZht4/yaw/UwmZ+pXkHK5rCIY9p3PF6RUKlfXIkcNr3iEEEIIIeRcEYkG5VJ/u9x5p19u3emT6zd75PKVTunuaVWRqrZOZ1ezXLnWJbfNOhCk+i93SntHo4TC+xOi4NXU09sqv/z09ouCv/F5jXAkIFevdcsvfnVLPvrkhrz3wRXp7WuVSCRIIYoQcq6BoANh6OeEHQhPEIEgDEG0gmsSvpPJ5C2hqLI3IapcwXZKug28fxPYfi5bkHx1+6gDvpfPm+/+jIhFDg6veIQQQggh5FyBkDjkekKIXEtrvXR2Npn3/urSVwkEfNLUUi+NjTENpzsIEJEQ1hcOB14U/L1dXEJ9/H6PRKIhaYhHpbGpToJBX3UpIYScXzAmOxwHyb8nmudPv4tcenucSQJR0Q6nXRxmf/YDxT0zVvq4oRBFCCGEEELOFbXE4xCE2juapKev7bXhdhCr2trj0txaL17vy1C6/QAjy+fzaphdreDv7TmiUB/kh6qrC0tzc520tjWolxQhhJx3kHfP5XJY+ff2KQzVxnOIUTr5xB6w2eziNOtr/r09fuclFKFOAgpRhBBCCCHkXAHDBQVP32HAYHa81z2Jr62Dsl042g/WvqxZ8WoFf+PzGrX66PIX++OtOCHkfIOxDyI8PEHjjTFpaopJY3OdFoRIu9wvPVExmUR9Q0TDlhvNesGgXwX7uvqwhMJ+FbP2gtvj1AcCcfU+fbk/7N8f8FbXsgia7bZ3xKW1PS6xaEg9VaOxoOb1wyQW5Hjg1Y8QQgghhBBCCCFHDkT5UMgvTU110tJSr4IPvFBR6uvDr+TSw0MDrIfcfa2tcRWhotGgxOMR9WrF8r3g8bh1283YX2vDi/21tDWoKLYd5Onr7mmR7u5mFcGwz/r6iHkf1nBqcjxQiCKEEEIIIYQQQsiRA48ot9ulnkit7Q06gQQmkkDp7m19JVcehKZ4Y1Qnl8B6775/VWcgjdWHdVIHeJLuBayHWUshLPVVJ65AuXm7V7e/HQhPXd3NOqnF3Xcvm3X6NLcgBKvt3lrkaKEQRQghhBBCCCGEkGOlsbFO7r7TL++9f0VL36W2VyaSQB4ohNR1dDapcPSb370j12/2aogexKXt4c57AdvGPmr7w75Rh+3ohBXN9XL1erd8/Iub8uHH13UCC6fz9SHd5PCwZQkhhBBCCCGEEHKsIM9TW3ujCk0oyBu1PQ8Tcuj5/V6J1YU0lO7S5Xb1TsI6EIX2K0The9hHbX/YN+qwHYQGwiuqqblOuntb1DsKE13Ucv2R44FCFCGEEEIIIYQQQgg5EShEEUIIIYSQc8XW1pZUKltSKpUllytINpvX97uBz/NmnXy+KOVypfrp/sD+8N1isfSi4G98XgP1KZfLuqxg9pXPF15bJ0IIIeQ8QyGKEEIIIYScKyxhqCypVEYW5ldkenJBNjcz1aWvkknnZGFhTZYX11UcOggQmXK5vCQ30i8K/sbnNVAf7CuRSMnyckIWF9Yl9Zo6EUIIIecZClGEEEIIIeRcUfOGSm1mZX5uVaamFl8r+qTTWVmcX5WlpXXJ54rVT/dHpVKRXLYgyWT6RcHf+LwG6pPJ5GUjsSkrywlZWlyTVCpbXUoIIYRcHChEEUIIIYSQc8X6WlKeP52Q7755Jj98PyAPfhiWp4/HZHhoWlZWEi/WGRudlccPR+WeWQfrPX0yJhPj87KxkdJ19grC/7Dtf//Xey8K/sbnNRLrm/Lo4Yh89q8/yF//cl+++uKxDA1Mybr5PJPJaSgfIYQQchGgEEUIIYQQQs4VG4mUjAxNy8P7wyo0PXs6LsOD0zI5Pi/ra5vWOhspmZpckMGBSbPOiDx5NGrWmZLZmSXZTO4vZA45psbH5uSrzx+9KPgbn9fY2EjLwLNJ+erLx/Lt10/lx+8HVAhLmnpAsNraohBFCCHkYkAhihBCCCGEnCtK5YpkcwX1NILIg+TgBSQRL5VehMuVShUNxUMIHdbRYt7js/16JyEUEN9DKGCt4O9XckSVymb7eUmnspJFvUydisWyrrOF8nJVQggh5FxDIYoQQgghhJwrIDaViiVTIPTsLipVMMtdwaxTKqsIhATneI9Z7V73ndfzcka8l7PmYUa8l+qSbt98hnptF6gIIYSQiwaFKEIIIYQQcq7w+73S2FQn7Z2N0toWl+aWei1N5rNg0P9inYZ41KwXk3hjVAve19dHxOf16Dp7xel0Sn1DRHp6W14U/I3Pa3h9Ht1/T2+r9Pa16jrYH+rhdjvFbrdV1ySEEELONxSiCCGEEELIuSIU9ktPX4tcu9Et/ZfbVfhB6eppkVhdSNcJRwPS0dUk3eazzs4m6exqlu7eVmnriEvQfH8/QEhqa4/L3Xcvvyj4G5/XCAZ9KkLVlt++e0n3HY4EVKSy2XhbTggh5GLAKx4hhBBCyA7gneL2OMQfcOmr3WETGx1WThxoMy63Q3x+l3i8TnGY87AXAgGvtLQ0yKX+drl2vVsFqY7OJvV2ggcSwCu8ljq7m+Xq9S65crVT2jviUlcfFq/XrevsFZfbpfu7ebvvRcHf+LxGIOjTfdWWX7/RI61tDeLzecTlokcUIYSQiwOFKEIIIYSQHUAUgAhVF/dLIOgSp8tOoeCEQXs7HXYVoSIxr4TCHnMeHNWlbwYhcYGgVxobY9J7qU36r3RKNBqsLrXQ7TsdEjfrXL3ebdbpkEg0pJ/t91w7nXaJxoLS0dn4ouBvfF7D43FJQzzyYjk8puANRQghhFw0KEQRQgghhOwAQoQv4JJondcUn76GIYZEPBIMu1lOoISjHolo+1vFH3K/Iuy8CYhJXq9HorGQtLQ2SHtHowRDr4bb2e12XQ8CFbyl2trNOkGfOBwQovZ3i4zvYPsQtWoFf+PzGm63SyKR4IvlyE8VCPiqSwkhhJCLg20LU3iQCw1mbklmtySd35JUriKbuYs9hXA+l5NEYlVWlhblu6//Kg9//La6ZH+0tXfJpcvXpau3X7p7+qWuIV5dcvEoVyqS3MzKxmZGFtdSspzISLH06oxEQZ9T3r1cL1c7IxIJuCUW2l+iWEIIOUpwbcT0/qViRRZnN2V5IS25XMlcIzDDGm+dTgK32yEej0O90hqaAxKEEOWyy9TEgvy//p//Kt9+/VTXQxjdL351Sz4xBaITEoBD9DksmPVuaXFdVlc25KsvHsln//qD7quuISLvvn/F7PO25p06Sn68Nyhffv5IRodnZGlpXcLhgB7b+x9e0+OCeEXIRWJ6PGHKhpaJ4XVJbRaqS8jbQL0/6706Lt94p8mURpkYm5WhgSkZNOXJ41EpFEoaBn35aqf88tPbOl4eJUuLazL4fEr3if1NTixqmDXGSIyXGJtruQCPiiePRl/Zp91h12NEmDX2ef1mT3VNslcoRBEKUTugEHX0UIgihJxlctmiClCFXEly5pVT758MEKG85tqAHF2aH6rqDTU+OrerEPULY/BgZrzjEaIey2f/es/Ux20Mnqi8+95l+eSYhCiIXiMQosy+KUSRi87MxIaWaVPGB9dkM0kh6m2ChwGxBp80NPrl+p1GuX63UcYpRFGIOgAMzSOEEEIIeQN4AuzxOsQXdGtoHkLGWI6/BEJuFaCQrNy2PWeTeeswRsD2XE4wCpA/CmKV7ciyytt0Py43kqRbt8y1cD7HAfJI7QUrb5XTOjZmxydExWiER4fN2Ov2WBMW8Kfx9kD741w0NAV0jD668ZZcNChEEUIIIYS8AQgcXp9LQ8OQqyhW72M5gQLRD3m6IERtF31g+EAIcupMc+ZWFn87HOJ2ucS5LSfTUaDbdbv0FfvB/lymP0AoOg4DrLZ9l9P5qvhGyAUFkxXUxX2aL87jc5jf4lGKzWS/oP1xHWxuDUow7OE4RQ4MQ/MIQ/N2wNC8o4eheYQQQo6K5eWEfPfNUxkdnpV8viBi7llu370kt0wJh/3i83nVWDosuD/KZnOSyxbk0cMRufftc01AjvCP7p4W6e5t0dCMo2RmekkmxudlZmpRpiYX1Rvrzjv9cv1Gj4TMvgNBJjcnF4t8viSFfFmW59MyObouG+t5KRbLmsOPnBw28w+6v9fvko7uiDSpEIWJJTwyPGiFrDE0j+wHClGEQtQOKEQdPRSiCCGEHBWZTE7m51ZlbS0p2UxeSsWStHc26sx3brflJXUUHhO4RcY9UsVcw2amlmR8bM4YXX5pMAYPZuPDjHcez+FzUW0Hx5ZOZ809SELGx+dRCem/3CFdPS3qlXUUAhshZwn8BrcgCmeKsrmRN68lFaeKRQpRJwlChR1Om4ZHwiMqFHarGINQPYgzFKIoRO0XClGEQtQOKEQdPRSiCCGEHBWlUknSactTqVAomr/LEokGJRIJHptQk0ikZH0tKV6fR4JBnyZIx740NPAIQYL0crkiqZQlRlXMDVm8MXrknleEnDXgAVUslHUmU3hElUs0YU8ShOBZOexs1UkknNUlIsOD0zI8NC2Dzyfl0YMRKRRLOm5dudolH//iprzz3uXqmkfD8tK67nPIFOxvYmJe4vGoTlaB/X38y5sSix2tEPXsybjuc6B6jMhHGG+Myc1bvbq/a9e7q2uSvcLHKoQQQggh5MxgtzvE7/dKNBbUWeSamupUHDqO5OE1AgGv7gfGjc/nURHquHJEIf8Ujqe1PS7tpiAkj5CLjsP8vjGDps/v1HCwcIzlREvEo6F4yNuHvInbsTtsr0wWAe8p5OvbPqHEUYJ9WHkCre1jDxiTXS5rYonjuBKoCIdj1LG/+rc5Xk4scXAc/2iovicXFHg/5UsixbJIobRlSnXBBaVcwvTcWcmk0zI7MymL87PVJfsjHI5KXX3c3CjXa/H5A9UlFxDTyYqlspQr1pNeJPRwm8Hb63a8KCG/S9riAWmIeF98RgghhOxEjRBjDMAAgOFhzWp3PMnDa6iRY/ZjGVaWsXUc+6ttt5Yk3e2pJkon5IKD3wWMfyscDL9/lpMsEJnQ7pYQ8+rYl8vm1ZuzkC9KOpVVIb2tIy5dXc0qqNfVh6trHg1FY6sVjcEKb9hUOqu2RWtbg3R2NUmHKXhogLHzKMnqMVYkn8ubY8xpeHZ7e6N0djdJS2tcvXLJ/qAQRShE7YBC1NGjztOmoyGCweOySQhT8QZdEgshBM8qDRGPtNT79b3HZW7AzQWPEEIIIYQQcnrBDKbw3HQjZNncv7e2xeXqdaQo6dDcTQhlPkoghvn8HgmGfOIwxkUw6DX765abt3s1PA+TSmCdowQPPcKRgHl1qTDX1d0sV290S29fm+ajOup8gRcB5ogimn8gnduSbGFLMij5LfNZdeEFpFjIy+bmhiTWVuXJox9k8Pnj6pL90djUKp1dvdLS1mkG5E4JR2PVJReRLc3pgVKplGSrUrYU0G24zKDeEPGpEAURykOPKEIIIYQQQs4EK8sJmZyYF5vdLs3NdVJXHxF4kaIcB/DEmphY0P02t9RJW3tc4EHqdGLSiuPxkF2YX9VjRIh2U0u9RKNBPT56ru4fClFE0AXgDVUsb0mp+mq5sFxMED5WyOc1afny8oKsry5Xl+wPfyAooXBUgqGwBINQyr3VJRcPdKetrYrOPKRDjnm/c+RB7L/PY4Xkadz1ET/JIIQQQgghhBwPmPUzuZHW0D3k1cPkDhpOiZCIYwCheRsbKZ09FfuDJxT2hX3uDB88KhB6iH3CCwz79Hjcx3qM5xkKUYQQQgghhBBCCCHkRKB0RwghhBBCCCGEEEJOBApRhBBCCCGEEEIIIeREoBBFCCGEEEIIIYQQQk4EClGEEEIIIYQQQggh5ESgEEUIIYQQQgghhBBCTgQKUYQQQgghhBBCCCHkRKAQRQghhBBCCCGEEEJOBApRhBBCCCGEEEIIIeREsG0Zqu/PPNlcXnK5ghSKRSmaUipVpLJVka3KTw/R43GJ1+MRr9etr06no7qE7Jd8oWjaPS/5fEGy+bzYzD+fz7StaVe0s9vlqq4pspnKSCqdMeenJJVKxSx3SzgUkIDfV12DHBUV89PGOUHJ4dxk8+JyOcXv84rP69H3e+n35XLF/JZKup1UJqvb2Ss2u01cTqe43fi9ucTjdus+HQ6H2Gy26lpnE/ThbC6nYw5+A2inYNAnoYDfHJ/9XBwjIeTw4PqIa1++UDBjaVnHiv2CcRPXynAoqOMKhhaOL2+mXC5re+PeMG2uXQUzTnvNtQ/XIdz74VpICCFHSdnYNomNTUkm0wITe69mttPlEKfDqffmbhRz3wz7ifbpwdl57cV9Oa6jwaBf7Hod5TX0bXOuhKipmQUtSyvrsmwKBA8YzwVjMO6ktTkune1N0tHWrK+hYKC6hOyXxeU1mTbtPj23qO1vt9ult6vNtGuztDQ3SENdtLqmyONnI6aMylpiQwcInIf337kul/s6q2uQowKD7tzCspbp2UUZm5iVulhY+k1bd3e0mPcRHZB/DtzEryeSZjsr8nxoXEbHZ6pLfh5cTLGfpnhMz3VLS1wixpAKBHzmgnu2L65rpk3QpjOm36Ntstmc3LreJzevXVJhNYQLnfktEEIuNrguPno6rGPxRjIl6UyuumTvRMJBc628Ju/fva6GCcZP3kS/GYhPaO+JqXkZMNcu3Bt2mPu9tuZGfe3rbq+uSQghRwMe/H75zQO59+C5lFQML8leLO1YNKTjPO7T4/V10tgQk0Zz70z79ODsvPYGA35zDb1m7tUvWddRp7O6JnlbOP7RUH1/poB+BkMb3k8Zc1O3uZmW0YkZGRqZkvHJWXPjMacG4uzcksyaDri4vCqLS6uysLgic6ZABMEA4TCGIrxD0CFhNMKTgeyPJdO2w+PTMjA8oT94CFNQ8f3GGI+EAzqw1njyfFS+++GJjIxOydTsot5Id7SZG8OWxuoa5KjA72N2fll/DxCQfnj4XPt92JyPWDQsAb93T0+E4QG1spaQiel5+dFs4/v7z2R+cVl/S/hNLZnzrb+vXcrKakJSqbRksjkpb1X0fNtt1u8M72FHnVWxBuLc0MikDA5PyrOBUW2fenMDgf6MJ1p48o4nLoSQiw0eBHx//6k8HRiTkfEZHZMxPi6trv9kzNxZcH1dXFnTcbilqUHFE71XMYVC1JtJp3Oytr4hw2NTahQ+HRzT6w88DfBABO1JCCFHQc37CZ7yX377UP7y+T19QD9j7NCFpRXrXtmM5buN8yjw3EkaWxY2LbzszdbUlsL9JMZ62qf7Z+e1F+3b1hrXh/F2O6Iz2KZvmzN7BmBkQ92E2okbjH/596/0h4/OtmqMZr8xsluaTGfralVvGxR4gnSZztfWEtfBYmxiTh48GZIvvn0g9x8NqSsl2T8YMJN4ypvOqrhXKVf0iQDEh6I5T9spIZyp+rlHw7XcZ94z5rSCi1hNqEVIAkJU4ZaKNvfto90RQonws5wxhPC7wwURTxXiDTFpb2uS/t6OF7+xnQVecXjiML+4Kk+fj8nfvrqvFwUIY3hCkdlHmN9pA+E1GvJobjrQ7yE64aYB3lDo2zQRCSEAIWLwLMU4DOAR2tIc33XM/Em51CXXL/fIlUud0thQp0YJRCjy86Dd9dplCt4jbQAeOsJTlwYIIeQowb0yonDg8Yp7Q6RvcJnxBg/jWxobpLe7bfcxvlqikZDeV8JzE7bsjw8H5J65Xx4YmtAHn2T/7Lz2YuxHuhBcRxmxcDo4c2cBAhLibxHvuby6LkOjU/Ldj0/lf/z71/K9ecWTRhjecG3s7moxN2/dcvNqn5YbV3vN3136RBFPxGAIPx8cl+9+eKohYxC2yP7BwInBV3M+mXZF3idY4RAtIH7UnhKgIEwynbUMd+SQgkcO45+PB9PcOvgirxMuimh/tLXf59EcXhCl9gLOLwbyDAQXc07tdpuG9MGQQgjmdfO7qv3GdhaIVBCtNjZT+lv94psH8q35vcFzbnJ6XlKpjPYb1O2soRc405dRau2Cvg8jE+MLvRUIIQDXO3g05fNFHRcQagGRfrcxc2e5de2S3Ll52dy/9ElzU72K3cw/tze03c21C6X2EAUPRjA+7/X6Rwghe6Fi7B3cayMtDKIPiiUIUU6JRULS3tr4ij26W2lurFcbCrmlBocn5P6jQb1fhn0KcQrCFuxfsnd2Xns175YpLr2OUog6DZy50DwIGTBe4eL4bGhCHj4ZUtdr/EA7cGN3DYJTn/7gO9ua9Matyfy4G+PVeFtT4I6NhJ9ILIwfPjw72swg0d3Zop+T/YGk2AhvRBvD40zV/d5ODVGK18dU9IDYgBvBgeFxVfdL5ZL1lKC5wXynVc8LOVoQlw63VOTHWF3bkEQyJc3xernS36393WsG473ER0PYRc41XAgXllYlsZEyF9UmdW1Fno1L3e3SZH5n+hvbUfDbaqiP6pN83PjDSw6iE14himmi+oCvGq53tgwDjDsQ1+DthePBhe3a5W5TesRhR6gvEyESQkRDpJ8MjMr6xqaOCXXRsFw1YwXuV3YbN3cWjKNxM47ie0ywvXc2NzOyasbp+cUVvXZBkMJ1C9evhrqI1JtCCCFHAe658eA3kUjJ4MiE3nvDywl5nvDgob+vQ+3U3cZ4FNhLrS2N4vG6Xjw8RlQD0OgRc8+Me3bYW2Rv1K69cDRB26GN+4192tXRXF2DvG3OnBAFlRkuioi5ffB4UPPVFItlvTlDouCPP7ilQlRPV5uG4DU1mh+4MYK1mMGgualBP9es+cYArq+LqloNIaS5sUFD+sj+UBHKtG+XGWAv9XbIpR4z2LaZGz1z44zzghtviFAYUJFHCklD4SlVXxdWURCCIdYlRwvCH3EhHJ2cMb+ZTb0ph/B3/UqP5uTaa4hHKpOxckFpbPuabGym1asQF9WezlYVtvDbefE7217MxbW1pUETlUOswXbwfQhbuKg2mItCNBrSp/woZwnkv4KoCiGqNhvTtf4eFaMgQgEKUYQQ5KrEU22E/yMkGvcld29dkffuXNt93NxWVITCfUo0LD5zPa2NLeTnSW6mzDi9rkIUHl4ijUBPV7t0GiME930wEgkh5CjAbO3I87S2npSRsWmZml1QG7PV3Hf3GdvoxpVe6Tb3zLuN8yht5j4ZD/MxwkNAT6Wzes2AN4+zGlKGSXA4bu2d2rUXuaFwj4527utpVxuVnA7OnF8afuRIOPb42bA+4cL08PDK+OTDW/9Xe3fabldx5Qn+MINASIgZTUhCAiQxGqedTqfLma6udlc9T3b18/QH6q9Tr6peZA2Z2bar7cwyaWNsRoFGNCPEpBENIHr9Vpx179bRudK5TOaKWPbmXJ2zd+yIFSv+a4gVEZnayOF18oDlR5bJOKY3l4vldWtGlQmjmbAN61aPHguBFDxZ/fCDmbnTafEkkwWvGcn2x3HhcUt/v3Euqm8PqbaEr+1V5H7XTX1p3tdCyfcwvG3YSkHqC31iLCxmffTc0rzBHlGOvrbpee2HtNBlvN0V9xiTgl/2aXOKooV4ZigElI8cfT9lY6kRvgiunTt/Pnl7Z8iy9ef4U1enTp2+uyRTG0ZY1mw7AboPBpvwsjR9GmZOu9pSgr6v0WKJvqK76nCa0l10Ep526tSp01dFn1mad+5C2LNn5zKZ2IR33bUs7UP28DR8r4vfZPLeBP3T2zaPNj26Ov99Kso7fPS90b79RzKg0unaNKl7P/+8bR2zbNltoUu7z/ltoiVn1ViWZx+oN9/elxFj2TiyMn74wlOjLY+tS4dXUORaTrZ9a2SHiIpK1X74wXvTMOz01ZOgA1BwlDJwtpTvppudVtiAuW9W/jVRML7AWNag4F/bpO+W4PnNM5/olpvPh3K1KbcsK08x4gWhmjF/9XIyUHnrrTmzL1vOp3qol5NEXP5eamStvvRps+zwRlDVrFWnTp06IXuEwLbcoyJwwuTArbe2pRV9b8Svn2qz8k9ys/JLqfOaM3J7BvY6derU6aui3Kz8woXcB7cOarIcTDBpFr+0aNU9K0ZbH9+YK3sEsQTSZXQ6Cd7+U52uTZO6l98J81P3dp/zW0U3hGG0JHYJNqtlAApA/eZ/vZyfosdSFH/yo+fien60/M5lmV3zVRyZji1m0xgy9tY5derMOCvkXIINsg8Mwb7ttlty81F73RByAa1KnzcDeunzS7n5nGVJ1g9bFii9MjOCApxkhnz48cl0ai+cb0d2Gih+l7klhZwzz3CVpnny9JnR6dOfjE7Fp/qhW8PRt9RQgG3lirvys0h91cOSRlF1DrQ6OL5YndXXb+qhffhcYiGAwGhTnj2dPDdJ0lAdPcrgM+uoHvbespQAqeP7H55IIP31b/84+k1cd0aZT219bPTE5g25VMz66UkSuJIpo072KcIfgZXPLrU247+6AXnvUr8vM2Os7Orjs/FuGUDZJ6FYJknf3B19rh+XB0/0O9LW4x98nMu28JAckA39qE+l2uKvvnOyhiWK5EP/MZBtsn9vKCGyvRBVHfFGebkpYvIlDO14H5lUN59Oqfv1b19OMNajLzz75OjnP/tR8nxWcjKlkyXffHtv7jlFBv/dT384+uu/fC6XVD54f9v/6WpELvS/y4blv/39axm/IidPb908+sEL20MWHh3fPU9koNqaMhB9cfHCdBnQ/+SgZIDMmwVRxuEjx5Pn+sp95Jmcml0i9+7BS2v8kXKNDXK64u7l2S9FOZ6ib9/YsWf0n/7zP2UKNhyy5hxPYNEkUYT6qXCslONQtkoGyFQuwwkZwNdqDx4eP96WmVQdZJdZ5iMouBDJiqOU7WlFNtE8Vsge7cuRO3X6Ogi2wJiX/vTm6O//4Tf5t9nuJwN/TZ4999Tj4zsXRzARlpw4cTp068eJFfQGpwVelL73Po6RTOQbbrgx9QOsgGeVuQxzFqLSwQ6byLKinEY3ZFkyjNo2Bw1P6brJABs7CvbC18JyWEZXlp1hcgTWen4hO6NIQMmz2q+NsuQnsRSmwfp3j30w2rln/+jt3ftTd3nf3/38J6Mf//DZuXcVFabCaf2mXPX17yITKC2jDX627G+8r6AWrC39X2QLAo6l37JPgheW2qC0W6KeZWN16tRp6RLc2PvO4dHufQfzEC2H8jgk67mnn8hTTzdvWp/+3LUIZsO3P77y9ugXv/5d7kUKa+0T+B///U9HPw478+bAefZhZd6XrwmvYLVrsfg1pLIb4aB2qc+FwH/YjQTVBNckE8DRlWEnKwf+z9fpUt7PN+RDJ6aeu7xOAnXqBf/vDAz0SS8pdyEqO9p2I2lPx7+9izpRB9t8qIJ62B/qH3/5Ytxzbu6AkOefeTL3Z5wkdjmeKbPxLvy/ixdT3xTxC5bdcUfiNvwu3pX/SGfak1cZfuf7pS8S9aMD4b978U9bLRX8ru9VuGQCURzY/YeO5lrPP722M0+8W7v6oTyVy14Lzz61JQWX4NUg+DJUho7LPjB73zmUSwGPhBNogCLvY8wwMmrNaa71vf+euYirQfhpCN2uvQcyCMMYsr+O08ZkZMkOeXvX/lxqyIBhqOgSA9Eyw2e3b8kBAywEPxx7v2ffoTxxbE/USf2QTUzXrXl4ZMN1Dr11xkXAhIONdwYko019nSBoYNq8zW9v7X5ndOTo8Qw8FNgwbh95+P4o95HRE3H/xqj7JL36xu4MLjjF0AliyhQc3P7kY/k7Q5TzfPDIsdGLL702evH3ryVwaZsNW9XD5qGTZJM5dVEn/a18Bq3gEMJ/PFK/DGo99miC7BclIGkfJO89cvS9rDODUpBwkjgTlnWasdCf9kJCgMu+ZS/FZUN2ICULiHwyjvdHew5E31le6j36Rf/oP6D19PbNo+e2P55ysRDZpyn5GbJEDowNfLlwob1PIEP/4ql91IwXRIaef+aJ0d/+5PvJ81lJBuIvf/PS6I0A9GPvfZhA+/N/+6PRT//qe1lnwZBrBQDJtHFD9v7hl7+N68UEaunK20K+1Yk8TFLri7EchAwA+BOnTk2VAf1PDkoGcuwFb/HpH3/1YhoI+JLjI2TUeDGGnE6ifH2jbUi55BgPH9+8PoNlRcok08bMf/ov/5Tp0gJqsIhzaZ+6SRK8q83eDwSOcZCM9aFslQyQKe2wb53lwoLByFg3dn4VfUFmXAKLgl+WPS5EH588lbLtYAdyCfEFzXJMBy/wr1OnTl890R8ffPjx6OVX304MmsUYnoWOvPt+6iq2ycuv7Ej9ww6SHW7pGUP3tR27M0huokiwqhn8N6XdBF/UA8Zcbb8RE1ewUSCH3aEcxMbiPHA6YOr6wFKYQheyU4bEJoCzpcsPHDqWfIBndQIUe2B14JB9VBayM4rSSQuHAZ7CYPppEkthmnoJnLnPe2Gv9v/ff/ez0U9//ELbTiB0YlHhOr7uCJ2w/8DR1Dn0bVEFr+gF7S2bj85FDvKAsWyAouee3pL6Xz+8vmNP8uKj+FvQ6+noB86p+vbNczt1WtrEztsVmCv4/fIrb+V4/yKBKEEV2Pj6m3tyIpntDVvg1X/8Dz9Nmy99wrgqy6p8TfjFv4D9i8WvIZXd+M6BI6ln+BkwVoAGwX8T0YJj9ollS5pAUKeamBbEEXSCwfQHWzn364s6FgmGmTh3gBK/1R7O1wrOVDyg+cLvZiIEnSfgs3z5stGK5cujbiuyfuz/f/3D67lC5LGNa9IvhbvqPEn8Gzyjq/ge9hcUhBM8K6I36SrbjNCjNYFQ/qPtRujkd8I3Kz1fugUv4b+VXfSxkxT/8vtPh3x8sQmp64WWzGblDKDWiYfDiXs/HVpCa2NgTiiB07FfNghFkAWhZMMYMO/EwDGoGSWMSkLZsmTCqY7PiqBm5DeE7fbbbsnBCBzU5bMQPnvIEGxHcRqIDUBuz+wOmU0GypFjxxPElC+SbaaTowk0zOzJ0CHoe8PoqoFnw+eTp0SFW7aWfYAYNwawAJIIo3pcHNdVOwSCgIk9EszCaa/6GxwGjoHHYPIu9fgk6n7uXFtSoB6i3mg467nnnYNpeB08/F5mXQiicXLLOQaoNssGRtnWGOiMVWDIgL7vnpVZNsJHQRV1xCtBgkNHj2U2GWOzZlX1gTbpBzOsOSMbYIrn6lbgPAspD+jqb+8UdPQ3/uoT7zx/rs1QnDh5Jh0LfNMGAE726rRFwCtz6I+vvpVt9ozgELAlKwcPv5tABfA+/PhE8vlEvPts3CcwU5k9t4aRLLhTgI7/glwCJekY7NqfQSiZPi363vbfkg7cjPsbkjc26suNwW+5KZXQmlA8nBXB01nJElgngOg37zcj7WQ4wSyBEvJ8rXFX/cL45ziQxZoZX7HirpQXy2PVW1u1hyzpj137Dkabj15TBsgdp8q7bgzeyTbjtHBAfheKyCxV8dc72mbuR3JDd/doJ5nXJ8Ylxeb5u5YtS2Ubj2SfUCi+x4/Xd+yNZ07nex96YFXw94HLgkLqp77uhV3vRNs5kYUlflN/V81k6T8y412CULV3nfrs3ntg9Oqbu6KuJ1MZe++aeF/K/o2yFK6U+/dkUcX7jSWy6eTR+1a1E0TJ7jQjpFOnTl+eZBLRA21/j8NpDDOy2Swmooy/L0IwnYMB0159c3fiGZ0v0EJ3Hg08o2vpXDiTWBO4Bj/ZN2wlSwTp3WnZR+5nZ6kzxwpGsjlkdtNx8Aq20WnezR6jDx944N6cCKAN3EOvwtaduw9kOf6GfTLDPVv2k7JgKt0C82SHwvFhtpbfTO7QyQJLdIPJM7pBfZVTWCor3vPqC9f9ThfTP89s35z7glqeDmPxA6Z/GP0EJ/dFW2UgmDijW+mDKtelzjkREHy49ZaWDSC7ADnYg9PICW2z6k0vadN7YVvR3XhwMupD9z38wH2ZUZzOU5TTqVOnpUv8xvcCJ0008iH4rSYpHchkwj9XOwQGXYtgl4OE4DVfAQ6xvcOkTfvdSfAwHJ7JtIFfMC71TOAXf45/sFj84n+Vn0F/mLyFs8rSFv4mHK2yYLb7TX6wrWG/FTbq7x1Zp/BR0r+McuAfu35YJ9mh3qc+bFN2Npu37NKhTQvj8cQm8PSJQJTkEO1UD2V4nqJVtnLZyWxge3U9cP+9GUR6MD6HPhD/gd5UPwE8fsG70Y/pC58JP3jsb7DR8dpqFuWtDN7x0WQH02H0Mv+OX7A36sbnklRg4kEiRQvCfZSrO+hNdrtgIHvgu0xLJhAl0siRMyA++uhUGjoyFRgVmZJ+57JFBR8WIk4go8pgEY0WuGGcOOmL4XZ/GJGcUsEeA8/ANTAZVifCQFIPxmVzJG9K59FgOHz0/TQaGVGtvnekYy3o4ffbYvAqj2EIgKwxZngJcIg8A7YMPIQBZiAa6ABEiqX3uLctJTuf2ToCPIwxz6qfgXMwBtlbu/ZnnRnDAgiMQoPPAAEOUhoNUEDQjDTlWrJkyd2yHFiyvdS1CFBJQWXoqpelQqLFlWlhjyEg5h0MSO2W3gic1cMygQIdxhkABDI7du3LGU9gpsM9I2tEBo62qyPwIRuMPYEOvLtLHQeBsmsRgAA8b4ex/EY46tpzPjegvin7o2aNpWJGA/Od3r1q5YrkFVArI5KRzuje8fa+kKXPUlHcfPONKQfAMo3QsSyJ2jum1Xv0iaAE/gtm4nEunRgrLb+3JZAfZjDhpT/uSJ4qV12czEE28VI/AWGAl8HK02dGd4R83RO/rQnAyxODgo+zkkw9S2EFUMgS2r71sVzep31kXb/PSox8l4CjYNA9K+4abXh0dcqtYIpgqsCNWXgy4N1kngxwdrQxZSD6ZCgDFIP6kAH3WeIK8DlQZrjxj7x51uwSZXbk3ffSWUKW4FEMFDyieMg0ubtnxd2JL7eFwv30YiiiGBPGtFMgWwru8pQDCmWYYVSOWGY97jB7fyRlpDLXyFYGjuP6NMYJfDhnHAefKVTLbMk84jAd06chrwwA4xWWMEoElRkBxvskCV57fzlWeGAmRwYXub7a0pxOnTp9cfo4cMuYOxx4JmByQ2AIx8RMqADEYiYEhkQPMK5hMuejUvzh6a7AVgY6vGBnsBEYzAAUptHpMIiOgT8cpEkSgPrDn3Yk/jLMM3s1ymHbOOkU7sBFWwtwHthL8MxsMV0DxwXhlAN7d6RePZz2lftgLRyuAy8Y8mwUeOsek3qwfainLn7agl8HDh4Lu2BX6gW2GZ2kPDPphaVsGzaLbRXYOBngj3azDdomwGvTvqG38MKEG6frT6/vzLpyJugO+t8ESZVLPyuXnSVwBXMfjv6spdscGnqLXrBfYOlv76fDOF0VANT/mZ277uEMBrJhOnXqtHSJXdgwuWUiGfOwfmPYt/Au7a0xJsxCdIckBTYfbGEbC1yw9wW34T6shF8Hwm/6wyuB2WP8cv9i8Uvw6OP4Xt0zg/5Pb6bfRm+oN1u0bFaYZUKerapcGM4vTF8obHXfC0LB1Fdf35U2Oh+VD/nQoE5sYX6MABmchPH83nvvXZFllj2O8MEkNnvW6evvvvchl2zO72aD83PUjc6idwWi+OdsZL8/HPb5/fe1U2iL2Oi79hwM3N6XvhvfyUQ2TFYeHSkJg77iWx0P38tSd/hOj5S+kcjBv2VrfxS2vFiBQFTzf9vp2qVH1WVtyEb153eZlkwgyuAWRGHMcdgNwu1bN2XKI2OrTqv6smTA2c9o34Ejaez88bW3M1BgcJnBBCgcTUYE4fdGhhjAYfDcfXdbN9oiw1LkP8uMpaNRf06o++68444MlAAZ2TUG5ro1D6ZwGuQcUL8JAGmX4ExG2KMMAQmDgyEoo8i+WBxkg5fTy3hyiuBDIeQMTffil6yNCvBI38ysrRhIBjbQ4bzfHfVgzDImtQ24MNLM6HL2MxAVz3HyASoQAoyMXqAlWs2pdVSp5WgCC4hBbGAnOMcgFRzxrkfXr456rspUVfX0LuBh+aFZXoEzIOh92rM62gvUAQleGdAGO5kABAkIcS8e4v+1SF8LAuoXwR0GtzpaNrAy+lA7HnmoAQUQYniro8AY3gBR9eBY4AeyfxE5fTPa0GaeBZk+z4g6oMUvYP1g8Jk8ZbDp9luTv2SBrMmGqj72e2XvWDoGhBm5b+7cm31GucnC0Wd4o+36FuCRIfykkIwR75StQ24qcDYL6S8pxsZgOTDPhDG/7cmNo1tuboG0LxSIinFBARkvllEYV8CcHJFTY48M2MycEkwZCGdDf6QymZABs+i5EXDwN4M3USVBODLnfQJR2k15p2KIcjknFBRFgH+Ci7DlhvifTDUOluAUBSQItSLk1ninMAXLOH3qS1Hpz0dC5skDZ0o2JEdJRpc+4+ioj3szI+LB1hZY4sIL5ZIVDhSO3hcyQBaLvcYiB8+YhiX6mhzKcHSVkUNmyJ8y39ixNwPF7id/ss84Yw5pcP9XEcDv1KnTlQSD6Vh6jHNgXBqzxirchHfG5bSrBf0/b9ga13DvS8F1hj0DWtmMdbhGx8BpOCJA3YxckyWrEg/oO7aC3+lqGbIyOVFULbHMvhuv79g9+u1Lr+fEEdtB8AhuOGkYzimP3hbgUj8ODH3vnuZYXEx75Y239qZuzSXdUTZ95SQoGAnL6U/4T6fINtZuustSCFjsvuLBydOWPnyU2bmvhGNjYg5fOC2WWjusprAULxCc/CDsMjoQj7xLEJ4dVzqLQ4aPb0ZdX8ltH95PXq9cuTzLpZuqXPU0CaBcDo7MdvYWXa0u7C/6f8fOdzI7zd5XOVkZbReco3+UY6KQvtmw/pFsY3NoZp8869Sp07ePBNL5WSY5YT9fwcTvlk3rE4dhP99hVpLNyYZkg5t4hCVseJMBdwXG3R24/HHgJvzauXt/Th7AL2C+GPwyIZKZrecvZhCFXcvmh2P0gmAKfF+3uvkZyoJ5fC77qVrVwK+p7SUkc9BLfCpYLaOWLyvgtTbqBH+rTuxtdindxPfOiYUVdyb+85/Y8+xYemH/wSPpa0rq4Kux3+GnYP5a/mH4QqVT8Ivt79Pz7Hg+nSWA9BAsVqagnPIEzGSTqTeb2BY75S/RVex2ZdNRhw6/l/qDn8n3TP8v1ImsV/60PjOprL/pTnqBTvROtr9y019IPyb6Mvyz7zItmUCUJUZm50RYRYA5oFu3bBhtezyc4RjYNbv1ZYmTtzMMCY6bwU2AnF7wwnNPjjZvXJd7ITDwBGwYYXfd5fj6W/O5D0+czGCNZVAGpeDFpUufpQFlQFj6dvz9j0eXwrAyMAR1BFcAhWVODz1wX5ZrKR1hBmIcWsaloIkMj9w/JpxI6ZlSDA1SA0D0GQgybO0BcW8MGIPEIGB0ygDBQ9kRysMpZfsUYJEdYR8cAQ2D1XMGB6fbgDIbKWBmYMnSMHgYtt4nECVzKQd7PGPQqic+IWDBgOS4A9T3PziRA1d6PBBhSNpk3gAXcFOW9PZobgLk4wHi9k7asmldDmDPMOTURzolmRAoYMy53z2zzDoIRnAOrH82a8v5Xx71Xx+83fbEpjRYgRsAFoRIYzh4ybHA2wJS/VaBHTyoQEtuqh08AvBmwmXNPPbo2tyoFrjhTzolwWsBo/dCNmx8jx/ufSjei5/4dy4Mcwb9KyGXFBxnAo9tdrt1y8YEd/UkPxSE4BbDW2YXvirTLIQAjmCJ985KZt4pJTJMKVGkAhlPbt4wN+4WM/aKP+SVYgXu+la/ckYoSMFICocM4K3xMScDoUjca0YB70oGyGwqw2i/flEjY8hYEgSi1AXv8JPsc8TsqQZD7NlGbvCdk3jLrTen3AtyGcfKxjPGhL24cilnKHzlUrq5LC/6VL0obWOYQvU7eT567HjKgUCh4Dn+ub/6zMVI4IxEk1POOEMZ+A1Fh+fqyykUwBOQIr/ar73uY3hoP8JXyz0p4dd27Bq9Hk4WoHCvfVw4QIwCCverwM1OnTpdSbDaOIVp9B97Al7AD/+GD4LU0y6BcIZ4BSmGWb70KDzzaQmdQBBdbSwzwukGGeP2Wip8gUmW+JtMkH1Et9D3LXtaMPrzxFHLKLx/594DiTkwSuYOO4itUvo3Z5fjN8Es+Llpw9r8nsFtUq7KEcyi79lOsmhhX+rxeLb0p4kXDlILlLX60VMMdehEl+FX8mbn/tDbxwLjPk+bzB4sMrCHbaVTfMJ5Gb3KhY0cEPpXu4v0AXuPM8JOYVuqI3tIe5NH43LpOzYPe4y9cPfyZen81BINern0G13pXhjNXsIn2CtYVzykq2V+3RjOnNn/Tp06LV2S5W/vIqtM2Gjser7aE1va3lA2456Wtb4Q0R8yXtmwGYgKULElDTuePeoS5En82nsol5PBL1vW2DNwVvxSDrwSMJdpKrPK9jAIttuLVDBt6GeY2OZTqI97aiLc+4+/3zKqTCjTBfyRrYHTyhGEYvtWndjWEipgNZsbhsJqz9SkMr76Da4KGPFprDRRTmL12J6mU6pc1A6DkghwPicnTMzwj9m+dy5bluXAfAE39RWYUh/7/yrziS18tXmf06f2CPbRy8qUjes3vKWT9RmdbIJDbIBu5TdsCR+GjrQSSD0rYCaGsJjg5PVI3/qpcM6bi6FlVsuMnQEjEHBbGC8EdbFLg6YRo8YA5RxbpsURJviMBE7b95/f1jacC+OOM+zyN+OMgHH0BR5ktVgL61OdlSs44W9reX1W6qNotABQu1qZLhFTg4HDTKhF2MsxFXyyqbNBYrM1Ro3AEQda8MWgAzIA0KBC2pXBrPi3+jD0lPvBByeSl4whGUzfC5AQfNEeoNM2EX8gM0aSN1HmxydOZtALqR+js13ttDFZKdYICywVCaAJyKiP5Uf6k9HGwTaYGdieF1AQjZf5A1wBk0wxG5o/u/3x0TPRbnsTPRa8EsQCgEDK88rXRu9Q/kJU8uQCQpYLMJhtIK7vAcOTwVcZP98bbyarTwSkgJfTEtRdX3gvA5kBWWXiv8/4Txr8lEce5RrtA9BA+PmQozSeox0MaOUzVG+5xQz5pQwe6SPBBOWV4wD8zHoIrgh4AlX9ZXkqxVPyQ57wyLsEHgQb0qEJfmcGTADmLJTtUYe4crO94LFxZuwJ/hp3ePHFx148l/9vgSz9XTJAkZcMcEZKBijXeRlYc5kMtMyzJgP4lgG8GAsCQuouQ4lyNePBaaN8H13bsoPIFmcreUhhBO8EN/EA5hjPnLjkBVk7dyHLVj/9T5GQZ/KAOJvGrGA2GbOnE8XKGdH3ZKBka3gZc5wz480eYgKz+p0jhUfGlmWCFHVmQo7fU0HoIvVSX/UW/OYIO1HFslnGQwbMU3Z7NlSnTl8XGYdN/3+WRrHZV2PR8i3Lq//nv/xhwYvBzaAVUKbfhtSweaxrggS4YAWDXSD8qa2bUo8NsYW+8BvsSJsgyk27IHDMv+nmzAwKR4QOtq8FXGNjsHMEcGpvQBccg5sOaPjpj7+X/2a30F3Kgd9sF8a5QJTfYZ5n/K0M5dFh8F394JJ6cb48Z+a+6sdmsXzinYNHEvPoIbYZncDJGbbVJIl3yfoUcDMBwdZgz91y081zuo1eM8Eic8vem/ghq139vv/81tFTUUbq03BMBJHYQxwIk3dwnz3nGTpCWaX/XZV5JmNAxq1sAvq+eMh5Y29wTDkxnTp1WtqU9nrYZJkBE3iA2MkO5eEbDbNaZ6IoLz/yv43YgWLW3gWzC7/YmYVffMPF4Bf70goceCXILzuUv2cSWLaRwxYm/QyY/cKzW0d/9YNncrNtmLZqlcxQmVwnc9JAkJ+/yA/x+w++tz03Ch9iNbvbxD/8Z0PDfxm/8LiCYfQAn1kWlExYek5QLyeSA6vLpxqWW0F/QanyVfg//CC2L3tYMK4y2JRrMsT9+McvyIn+0H1wm48skGQyw8oL/FfX9DdCl+ikwn7d5pNekOVFr6lf+u3BNwFCvsu1Trz+rtC3XvvpYIaczuaQ61yzdDpPqt9XRZZjyY6RMWTzM4LPqBIsEOXNgMmE081IY0iIhrqXM3z+gmV6pzJw0AydttTIYOfAGvzK4gTLHFI+43BacEBby/kXbBIIE0kdGi35joufBY8+y7/dq57qZuChFshox/zngBmTAJPBCkw4p0OSmQOEzOYxlAwsjrxsEA4+Oh/llqFoUGv/sjD0GHvqUORZ/QfYGGfa1e69Pe9VT3U7cuR4ZicBH0amyPsz27bkTKr7ivQVgJOlk0GFKFs9Ofkiz9XuhUj9PcMhENixZAuoOUXCjC2ABZxDSh5GWwWJ8JADjy8ATsRbm7RNG80qCBDoOwS4BLYY4P5eDCnTsgaztcD51Fg5MN7NepMjvBzKJaVVgb90YKJuFSxx76zKkJIiuyk7+jjabczh1Vcx9tQJD/W1uqk4x4sMcDpKBjgU02SAohrKAHkqGaglrfqCUUB2i8iHDb7JPWUwzJ6joIxljhOcUaf5IKrstpb11sa0fdza+MTXVHbjwA4nynpzSk4wclkoP++izGTyTSMK0nsTS2KMk1OKDv/1BX6Rc2NVBhQcgCvWpXufOhapozXpDBTLC7WZ7AngmiGrpSudOnX6+sgkTeleQSmTT1LyTfTQM4zThS7OA32/YvldiS1Dol/OjPWpgBTHgpPBUM5s6cA3381Czc74NINkAkhO+BXYNtOrTEa9IMqsBrPlxybzBLPgk+c4GdrLlppGt41tKU4SHqkTjIVdmfUV9crtCQLr2VQmJzgLTj5ts/CX49kwAIg/8O+O281g35EZ676TJU6HsPdkrcFuk4B0Df3PebTP07Au6mCSBKarp0k898J0eM1GSOck+r3spJwNXyQPO3XqtPTImGcrwwH4gzIQFTYzv2/WSeAiwQ62Xwa5+R1ha7aAeluGLWhU+OXewi+23mLwS+aOzFETJPwitiTcEiSC3fYZnPQzppHkjcT+g0cz00jd7fVUE8bsctmfQ2LXw33v45N6h72klEUnIRlW9oSC/0g2roSMq/lU9ui1kgfv8AC+27/wzmW3hd8ROiD6SnlsZKs+bgwdwZc34WKSgB1ehB/iAw6hwnP6XD88EnqW/86H4B/4fmivW7LIr2x6rfnFiw5GfgdoCQSi2kCk2A1sAsVBFfBYTIrjtcgePfaiOXjoWA5E0WFGgxk3A4SgTQ5E9RAUuC9+Z/RxYtVRxgpjRN2bM9w2Efe3AIYgj1REmQ9ZfgBBObBDiqaOHd120g6HPFMABwMZPy6GEcmQBERql4GoqEsFrAxEjnszWgeBqAAiACFKW6mMRQIDTnJh4Gm396h/ASLSVnwSRfa798rYcA0DURqS9549l/2onn4HQO1emR3tdDPL/Biy3q9OUiNXP3J/3lekr4CpI1IL7PSVoAVjVnlXI/X3jEj13neO5DIJ7WS8c9QFC2SYDUm7gTkHwPP2e8AXJ+/UBtsCc9pIEWmvvsMXGSzaYYZ6stxrkcyd9z/8KA1mKaHKF4woBeHvycwW7/Rue4FRjCFGKV8UYspw1HcWGs6aA2LGfSrVUHBfxdhTZ3VXZjlaFAIZ4CSUDMhQmiYDZs2HMnB7yFPJgPLwQF9QDmS3iOy5z9ILjlYGnMZEQRnLAnzGN95RWK0/WzZfUzitn/EEJnB08KT6Qdaj/bwsyROsFWQS/GIkmKGfRuphQ3yyrDxlGxcCXvrCe/yWge/ADzgAV2SRUdqc3iL15cBZ6+83/c/gkAHGiRO069Sp09dLJojaISItYCQr0vjd+OgjqWcEpBa6WpBlVcMigfoBGd8ybUv3MuDbMol2JLclBLMGPZq+kInbltTJZLK5K0PcsjmZtRycWTGDE8Zoh89wmtMEc7R3oU1ZLYVmS9kXRMAoqpR6x4y12XVYVhdcNJMsa9VkXjowE3VLHQ+zAze1jy3EhmM3wv/PP2+n89ZmtrKjb7zJQSv2orw/9XRm2wemz9flVC7LNytPD3MsTBzkkpvgtXqljTDW/2UnuUdwcDE87NSp09IjWHMhcBQOsEkRDGEz8/vaEujZCYaw/TKgHmWz3ZUDI9l+JhsLvz6P/xV+Wb2xGPyiX2TASsTgF6m732TupL0oiDKwbxcip5TaP8k2MIJj/FIBqDVRJ4cL1TY6Q1IP9fU++MjOpTdkZ9FJyESryXj4j6wgySzdq/hUlz7jd8r0bRPIpQNaRlSzr8tG/jDazEbOydrQU22ydl5/8sPEBwSt+Kn0ubL48C2Q1/YC9L2+12cCTnQ3H8OG5/XeYQyhU6PFjYrrmAwY2SyME8ESjiAnP1PZQyC/qPBIx1c2wfQ3gRUdJeiEdEhpPAUAMGJc8XQOBoOOsNurRhR2WJUCqiofUN0KqMIwLed+ksoYfuThtgfRNMq6xCDmzDOgtZ8BNwQjxmve8ykHvWWaKNs1BJv4KdvDQGUYNkCIOgomRh0BBWfd/je5L1bc43sBqT0BPq++sXv0r394bfSLX/9u9Pf/8JvRP/7qxUz7NGuLN99/flvOtjLAgap6LETaZd8fG5TLJBGgw+O2CV9bGjCNWlvng0t4ITCiDWnYBo8szQRC5CedgwBVDkGmwkZ/WK5or6h58kzLtBLoUQagMlOBh/gsAAaQ1VUQjGIxQ045aKt/X0HB8KxvPAtsUZYr8HdrO1VuFiJTgjgUnnarTwaBryJbC1EqaG0NB6fSWcmxstRLvzj6umRAUKVkwFLXkoFf/ealORmQDTWUAYqpZGAaX/CAwjP27HNmxmKSMngc7ca7lPv4ziyWupBb46DGhnv0Gb6YUUrFP+YLueLUketsZ/wmQOZy7xch71Y+nnESOW4CoYwKmXKMFWMJj3Ptexgoh8IZ9Ew6kw+18U5euzLs1OnrJxgxNwn0+aXECNgtuG7mdVomVF1Xy1yki1rQo03sNF1z3+jhuBYKdsAHQTFZzYXlNUtrhtwGq7CX/vK9zC1G/lQdM4W0VZ3gj0sAX1DfRBt99kVJsE29nEhFD8FPTouglTZMIxhuSWNOFsQzdB7HAf/ZMHimjjCS3Udfpr6L+nNKTIbYJ+UX/9/vRv/lv/3P0f/4xf9K3SPDFYbCU8tMtj/5WNaFTtDH6YBG39AtJvLwEE4Ptyro1KnT9UlwhQ0GA2w5ATvZX81+ZHeNb5yR4JKgDHsZwT4+iq1g/GbrhcIvflPhl2V6i8Ev2G0lj9UXglbq7fvyM67mUw0JVrPhYas6CXDZ4oLdy3f9omQrDDqAL6397F/lXelTzdOk7mXHewYP1U0d+VYfnTiZ9eYf+M4yPfu6/uvLb+QS+f/6T/88+u//77/kUnn6Al8s2bOc0Gbw9FuV6V05cRz1VC+ZsniYOmBGHn4XaTaP9DtAjJDTp0MwBaJi0DPUDFiBKMbgF02nMwAEE4ATkDIw71t1T56kYC3vkBgz7jWAGIOo1WFlCrsBIPgxdCIT+KLuLs/7TbCLMbrQ8imDMQNRMUAWCrxUXZQriOCVBj1ArfTSyhTRNpEojnoGZ+IyqIsyCBH3Wa5oDySGr4FbdWQgA1OgYNN37/S9TZkZhDbie/EPr49++Zvfj/7+H/95PhAVTr6T0/7i+W25J4RAUmZEXcXoE1yo9FGpqIIiAlE24csMo6vwQxsaP+aDbgx2f1egRVAAT8xOCBg8+GAFogQAgneDvlNO8eV8fOpLdRc5x0Plet/JU2dzdkH5+L8i5KY5CS3zZ5K8m/GtHvpIYIrxjd+McSmos5B3f/KJjKKW+XOT2Zjst8v7dxbCH/VhqAtskW+yamypF/4KyJUMuLdkwAmWJQO/+ueX5mQgA1EDGdgWjl3JwDS+qLOAbgtELc8xPknq2QyJNp5EoiqbrBSJ741R/NFnnI425lrKL+LwCURpE9JOsyICYYKwX5TwhCzl5uTRBm3CU9ilPpShf8uScqqW2S+zUAwPG1x6NpX3QA47der09VAFZ1pG1KWcWaZ3a38kxuxCF5wyCTaN4CddUxlRZtwd0y0rit6ZRjCVkezZDMwIRCWWB86ePpt70RX2ZiBqkF06C8EfbWXMN0fks7RfZCwNs1kXS4x7s/nKpofUW5axmXb6aBo13dWcEM+UE5KBt8A/Ewj0rhlxOkTf5DNhD1gWzu54+ZW3Rr/49e+bI/fL36bukYkNy+HpD1/YnntxwWF2RXNCzmefy3y4mxMSPLSROZunU6dO1zfN2Y+BJQh28vnYYF9kAlBZ7GXYwhgVeM9AVGALzIJVhV9sv8KvvfuPLAq/YL6AjO0/TD6rt+/Lz5jV3lfPE2GzF/4rR5a/Mr7MZIQ6OcgIRtvcW5KI8iZ9qiFN6t6ajKA/6ITyN/iDbZK/BaKc1O3U2N+FvyEQ9d/+6V/ycqIqfYEvtsmxQomOXrWq2fTKbBlR57OemREV9ZS12wJRPdyyEH3rOcPJM4BFaBlMBrJBwznW2V8VcTzTCQ5hN8vovYwWRgQDZhqAZAQ0DMHK8AAanhNI4DB6JsEhBNNAMjANaIEE+xpwwIcEvJRVS4lkN5nBE/2u7KHKyihSJqBqWSstEIVXt8fAKMcZn/CrLSuzPOC2fL9UcQN6Gp0LHsgcwhP8blkfly+JLGNY2znk6gYob4nrMidfwCXuyayNzz5t/RltSeMs6ivgBcCUJ6qPRxxmbWkzuBchfGaESRW1LlhE2gZ62wIMGPVS9fFTudP6qgggaZOlAydPnlZsRtcZ3XiCz9NIRL6BftsUWh1lLnmnv7WfLFjSoL7KxS/ZS8sDONWLbAzrlsGraLMyL0T7/Rt4AUyGs1u9y+/2sdK/+EImyGQr88oh7D5tzKNL49m5/btCAel75c9C+gWQt81y275YwJ8iJN+LoQwAhjNhRkZbyFQ6FKGggLSyhzJAlkoGjIeSAX1VMmCT2qEM6MOSAeWpszJLEcGPzIhaW4GoK+VEvQS/BHI8m7NaYUSoC4PCM208GadRbrwjFVzwxbv1mzI4QS27QECNwxe8D6dpoT5DxvwneDAeT9puDKt3yY5njRvZlJxOn3hLqVKox49/mMaGQKvljeRJ+rClnJYGkm/fXW2MdOrU6ashWEBHwouGQXTb7akXnFgEzxa6Mmgy1uGTBCNaJm3TzcY1HJ22jK9IXQRfErfomniusCh1Fz2UuuvzNKxhJJ1RdsS1yLMwT1CLrWFGWL0Y4zZ3vRrBUc/D6rR94jtYiQccCg6AZR+wl43BhnJKKB0yjdhD9LX6aLd2wnGOCN0S6jm+bxm6DW/H+z7GO9ldnvcue3xsXP9Inqzq8BKb8j69bUsu37AMxoy3Z/QtG0F53qcMQUSTUGys4nOnTp2uP0pbMzAUzrMbYUv5MfCq7LdZ7S4+o2V0hWGw6M7AUgkJ9IfJRL4f+3wev1rGPOzx3WLxC/Z6L/BVb5Mm5WfMWm9lsEPpADyhv5RFny2kl8qeLvufPYt37tcOPGCTa6t6ND3Xyiu+FtFd3lt6137DPuOuaEc7eXrYXv3k/cpho7Pl+f8uZZngseG5jdr5GxWAclCZAFPzhZq/m7546AC2vzrxB0wY83Hwcla/67tI33rOlHFAiCq4kwGQ6GwGyldFc0vzQuCVz1kDIAaRd8eLx3fOk83QDB518clxZ+QI1tQgSedy7LQSeEYd485gYhQNye8ZtIqyGGbabuBUEGoayTBSdpafBlw4rzGI3V8GZA7KcR0NQGWapbT/hMEyjRhiH310KgNzZcg59cFgrbrMlTuelb3hhuYku/CvSIYOnmaUHA+ifoBGX9qrwQDWdnXDZ0YrHuG/YgQ/7lnZNs772V9/f/R3P//J6N/9zQ9HP/7hs6PtT2xKQDBDgN/XIvVUD9ki6u4Zx/XXGuWFDFvgIsNFdlL1c8uIGhu2AZ5Asx2PHXIZ7xGtJwtp/E4BIXzBwzSGAXA8M0mi7Amo0Q8JjFFXG7sOwXeSyAHlZRND8lxL/uwJ1gKUsw37lMeU3flAlD4hA4IjiyGKUmDkwMF3MxClbHyR9luzBcZzyQAZm5OB6KOSAXt4lQz87397uQy0gNY8X/AhFcO5tmbbO9wjYEVBkNdJ0nd4J73Zs5RyZSE1eWyBqDm+RH1rnAry+dsGicYw+TKOzdpT6JVJuBCRBXKW41+58S5jyWmKyh2STAPLPrVHi89GGy3Hs2fA/gNHc58X71dv9+GbYO0k5nTq1Onro6Yj6xTUsY4c6+fJMb0YKt1LF8EIGNMmKGTSTi+3ZojLDiiaM94Lf4PgO9tAubPWkw4zAUKfJd7Gc5mFRF+MbZGFqGaTC6vpgGZ/3Z72gYxg2erqiHccAM5N2SKTBLvtKwLLYfoVWFptjjorX2RKv+Sy+OChDXUFkJwS9behb/79//ZXo//rP/zN6Gc/+Ytw6J5o2Wqh24vwDV8zIyreR0+wDWz4Lpg2i23SqVOnpUlzvmDY6s0X/CzxZhZ7fRrB6Xff+zCXgsEw+NiWOd+d+DQNv/h7hV90wGLwK3VA1JnNXPXm9y623tpuwsAkiXqpB5uzMlGnER3Gnjbh3fTkpUx2YFPTCTkJcbpNktApfD31W6i8S+NNyvEQ72CydrDjtQmftJcuwVdU/oa6wuqaiLG337/50fOj//P/+Dejn//sL0d/89ffy71lbeUiwDTUtWx97Vdn9dRf6ukq36HTdPriltA3RDqP4UBQCDPhZNBxAgWOCJq/CdaXIY8b2AST4x4vTmHyXp/TRIjBwfDiWBtI6sDwIsCZeRACbTD67ZPMWGr77LhnWoRYMMy9hFk9vDeXQgW4VBbSJClT0Mgz3m9gSDGseiMDLtPUL1xoAzLKFAnP2dPg5zRiyDk+vhlyFxOc1Fk6vH5A6ejHe2WTebf2AgeX2VDfARV1xKusYzynDytQh+/6U6DC38bqbQGk6gZ07XthE/F1ax7MyPSGR1dnWikgtcRBQC2j0jMOdO8AaDn7OzYYnSwBvDNgFO0sUn8gJsJv/bRTJygabVB/fBB8wJsMKgWQA1LtdU8atpyDW9syuysobqKwkofx2XjYZC7LzN+dZsRAb6dHZDpqGNPTyHs5Aeprg9cPPjgR/z6XAS5BMTKZbRzLxbWIcsUryk7AEK9atl3buH8WKhnQ/+Rp/6GjWT9lkUGnQsnYwX9yoM1NBtrJkikD9987VQZstD+UAc8MZaDGBllWD3WnHAS/9N00edFWMs+J8SwHhoLKme14Fu8yEMW5jPGkwnih/pUtKBiMtMefN918Y47LYXB2Ghkf3i3VWt2VKw1ZJuBkgJTBYZmhdpMZGEhhO9FDRpTTB7VZ8EndtTmV9zQ57NSp09dCxvGFwAk6GC4Y04I8Phe7ce2QSvfCGLoP9jG0s9wBvhf+qkfq4KhLOhvjeriXroLvDX/9q9ldJgCuAVmXkefThopLOZ6n97xroX08imAq58Wef+oL78xG0wHqmMvXo72qo530Ll04dASGbaXfnYgExz2nDBNccLowsN3P9qC92z5+tmKwl57L5AZ989imdmy3TFzL921roF7DyRhl0B346/3qmTZr6IS0dRbDyE6dOi0pyonoMb6y5eGB8S+Qnr7J+L5ZyUoGqweOvvdB2oMwlB23+pH501An8QseFn5ZUrcY/IoishzlIb7ZF4GspgM+a350FEWPwOir6btzwTM+gRUqdKVn2NL22FMHvIDhyjWZ2+IA0/0YbcAvpwPafN3fNXnB7231KL+z6SkEo/m3gktt25rwN1Y/NFq/7uE8UGzjo2vS37D1h35wb04uD+rg3WSgspTVUbnpi4fOmeZvdGp0devgW0SMD4OnpTnfkNFTGSoGq5NVCNWXoZwxCwdfEMfpKbOQwcH5czoMgVcGx9DRkpbTOdWKgSUyy3FlAN4UZTOigIk2DenTi20zUctzctBFOxmYLTo9PRClTGUzShHQI/yuMtIYoGnIXWh7XxlAjC4O9kIBLjOTHwR/Pz5xMgNRjDgOv+V8BiFSR8aXAJrxrGz1dFWQSfsFM5Th0/feDTSHg7jIYAXeecJXgKilV5Zh2VRP8MlvX4ZANkMZWKhbAdE0IlOWaDmG+six42HU2lPqXPYzHuoXPARuysEP7fRJMwB690wazEPKZ4IvZiMwzDM5Ex3lcw6Kd/gMx/RDgtoU1aZN5NGYcMKDuquvupkJVhcgPjUoNoU+C6ViZiEVa/ytb7RVHab13TRKGYg2kk91s/eGYAtHA+A7olw/UzpF3qOeJQNPbXtsTgb8e1YZaGMvxtM4iIeneDsfuMyvLyO8ro2+Paudso7Ino17ZfNRbMa0ABcHK4PFUSflqvfcGIxPTs+sCqj2LDHmBHfJmI3YjbkyPorIlOBSBseiTjDAclMnizj55FjU3/ObN65LPs7aX506dfrqqHQNXZLYOdbN9O6XGZOt3LbPXtOnC+N63Vs6GMEpxr46TaN65lo6ckgcg5x11rYZMa/Iu+AunUXXsDFM6MEuwSO2kXrcdFPbcwW2TuNh1jvaaXLQgST2vYL/9C8elb6eRt7HWXtq62N5NLhMW7hv8g3eXo3UjZ5ka+Use7Rff6gnfJ6qbDp16nRdkCAErGQbwnrDnY3LX809QRc5/p26vGv3/tyvyOQy233t6odGmzetS7tvGt19151fGL/mKNpR2O8zI1yLIDjrBFQYO+s8iwkIkwaWIvIT+CpO2GP7stlbXdrkPrznX7byr3yBrCSnaL/+1t48qMcKFXQtfZf2dPDJ5uOW3iX/go+bHl2TfJ2F6C2JAznpFP2d2L+A39fpcloyXCKQNvvNU1xCEEVObTb9zsGjbc+ZdJbnI5zTCFhwIO19VJdBzlEWICkDRwApDYswKtxPsIbl+tu7GDjqIPtA9oRnrcm19KctN2rreN1Xs5dpnMR7GFdpoAwog0pxb4v+ArNm2Gn7QpkMtbcCEFQ2p1iGj7/LSNMOGVHuA4cGIx6qx+RAYcTVfjMGtLW+DD7tAWiXZUTFO7VrPiOqgYQ6M0oFffCu3dMMtDQIAxC0yf0GrO8EYHzWdwj4ypaxtMinOqhzER7pP2uIsx9nkIFGbea39WMDXgBSzxf5jXFsmZOgpz0gWhvwj6w0HqqzsshgzjjHp7bjc2UhVV8MaRgUS6CNanumZntbuW68vL4+hxqifW9pw/k8WnS/MRE8uXBxvMQrZFsfCky0+s6mFD2rLXjjHVnONeSxqOokgCabTKZOKpuQKZQzN5kNdW8qAM6Utk+TAUtISwYo4YVkwCz4UAbwtGVEtWzF7Lfgg3E6GSDyXEvlPZPLQMyk47Hgt/qZBVGXuYyokIXcB2WscMi8T/zxHm3xnbY0+WobiVfdivzdxmc7XlcALMdcKONaX56GRIzrIcEPjlMG1aJNxm1tTs6ZM+6cVrJpw+p4fvrG7J06dfrqqWFfw3YY1JyTNkM+xIhZcbioMA1e1IXoY9g+bYYY0VlmatVDnXIiJZ9p2UFqwebJSbhxGblcIjCJzQCzJsl37BSYW5dntM2lnFyqEM8L2Kv3NPK7rPK0x0JPnD3b7CjHaMNeegFmw2JUkI0XdRXhsVOPLU+26W6eKBX//jTarj70lkxS2Kwg36XOiU/Fqrf3pRN0/z05USIb1TOtDvP2EYxWbzojdU7Uw6RNZUQhfZz2WLxjqGs6dep0fVHZuhk0udS2SIFjmREV9uqs4x+OsgHZyrmPbWAMDJnLdLIPqonYKfjl7zn8undx+KV68MpFX/DZ3Nt0RvPvJokuUV/+t3LgL/tdAC51QPivqXvogCiPfzuk1GfxuyxYfgsb3j30ma1SHgibn80dKD/v7cQfifvtj/GXDfu9hy9gEtZp63yNTL6Ixg31ncaqJ574Nz3M18ZDK1jY+vZf5W+YCKE3hqSt2oyH+KPOPvMKXYOfDfvDz6BrOl2Tlox3YvBZpuUy2BhWsj527NyXn+fD4STUVyOGEeHctWf/3OW4ykzdDsHk/AscEB6DTEqgYAzhnjR4CJtBaABx/gggp5DTvH7tQzmQlPNplHMuDbqWsSSAUcbapOHIkOM0qw9gK3DIQR31m0bNAGrON8cXbyaF3+9t/W0Lhl2NgJS9hbRJphcA4QxLSZQRlfs9xHuQNhuU2oY/NycPBVHa7Kx0VYZZ3hOghgz+tleRQEsDBH+rt0/AYPmbfsJf7VuIAL8UzDfe2pOfFcC7GgEbAI6n+IvnnlNHQYvh8+RJ/5MTIKm/KBXP4vFwjyHtB4TqTjbhpHuqXdp5BcU93sGA9QlcPUMGPQfI9GnKTPCNzCkf34dcKXkEjAKzu/YezCzBW2723PjKerfZ2Wl7I02jplwHp8PFc5n9c8cdczKwEOEHgNaHlMKLv3999M7+oxloBe5bt2wYbVi/umX0jGWA0i4ZIHclA1fr06EMkNmSgfb+tn+ad/r7auQefU3mlcOJ0QfScdvJmbXOuwWizp1rgV1KbujAFZWMqYc6ZYA5xgJlNRyDfocvgl/Hoh2H3z2efexUKEG6tszXmL6c32QEHwW+jTdtJqPKYTjIyLRscfOm9aNV4dRda3+qTp06fXVU+1RkAIg+CIJtbIypumAGKh0DL+AJncrBYbjnZMeUcj0DD9ybuBj/owMyeDWuC6yCbUOcgVknBifVTZKyZLY2O6Fd9A/9WHXRdsstcplz4PA0ctT3gUNHc/JExjEnzmSDmXwYhmoCRFu1BY6aWMODoW7wm3q8/MqO0d53Dkcbms2BUsek7mLfWT7dsuzncb0dimHiySRc9dkklX0k61idOY3shgrMyaI1Mce2SHtsWcuQXWyGWKdOnZYOwSEHPJmgZB8CmBaIGuPL+L5rEfz6Q+CXU8FlCMHmNasfGG3esDa3sYCJVV75e4Vfgi6FX/6eRgvhl/fwN+gEfhsdU5ey6JFJYnur745d+9JWp/PgdG5HQgcEbsNRk7sffnQqbfoh4Znf+SqHj7wX95j8HWXCwcPh51tGyPe8NfyXCrZZfdP2XGxJAUXebQ9B7TkSNvy+8DUqQeVKfTc+/Tv8DbqKf0Svvv/BiQzOZf9dhbRVmw8efjdt9bTvo061/Q09xCdQPn50ujYtGe/EhtLWvDpmX0BER1sDunPX/jwhSgo2R4wgMYiGl+8MTgaRe197c8/o7XhO6vb7H36UBhNH3wDgAHLsGBZm6PYffDcdVJtUV3kyF94PkDDzZgCJwHpetJrzZx0vB1JQwZKrNBrn1o0KLrTAgn8PyQCozYoNUo4/QQY0AjtDAgzqSOgNZoGCBnxXLrdrs5ttKZHggPZaSmgWkjE55JXA2q69BxKkjkW7kfXG9uQRZTegq/zzAUSATX29PwMv8bt7/G3fJ+/0LgMdaU8GHOIe7QcwwABg33nnsgRW5QkQAoYTVcdBvzJegRa+79t/ONMwzSDYh6stE7wSNOcoABv/vS/7J3h4+uzZdOBlt+Va5XiXvidPTiHTzwIiLRBVmUX6b169ZEQeP4LPAJrBj0/V1sn+Q2qpP7RXgEK1PcNYbgrGiRWy59pMrncIjqofnhRfOAwCJzmT8u7xPC0PMJIHacFZ3/gb72sGYBYig/rNRdZoAs82BXPxMrmZvNQNYB8Ihffm2/tGL7/6Vmbs6Gvj2El31l4L3k6TATJdMmCp2lQZCKU7lAFBpKEMGHt4a/wZA/7NsaKss7xQXFWejDfOi2VtZInMCvRseWzd/Gl8Kfctyy+VYfCFYmvj8/KxjO9OxvIbudBn6ktuHZE+344zOea8+2BgCRk0lvBImrCAdo2nIflOdijMImMMkZSJE6eDnzfFWF05Wh1YZLNFjh0ed+rU6ZuhwnXYCStRZsfcdPPoYtgCNf6vdtE5dcodPd90TDvcgvELh2Axg/eOwM+bFxjjGbyJ+2EgXKQDUsfAlfgbdsFeNgucgzXqzu6hF+lgONXw8kz+DUMtfXh7d9hRYVPl9gRRLzhuckE5gi/aQS/BvaZbG/alDot/HwlHhi0Gd+EX3ew0p8c2rk18Q/RWGfV4gCdsOfpFmU0HtoAXu6XsAZhIf1rCQf9yRJp91DKUOEwwvmwB5XpOnbRvvi9a+d7FzmQf7XnnUL6L3sBb9Wq6pmXQV0YEXrD57JfVqVOn65P4EQLZ7Et+nPHPvxH0ZkfDxnk8ufwqPIUlu/YcGP3hTwLphxJPZIU64c4pbXnIzl1tb+HCL4Gawi92buEXvJ1/x7XxCz7CKvYkfaAsdWKbuqfhf9X3dP5GP7Bb39r5Ttrh2i3rSAa/erOXTQYIqNEPfJT5Op0N/7NtgXE06sT29R0/P/3osH+tmGD/wmx6RR35Bfwd/tmwTtp39Oj7qYtMTAtKCbDZ3uQKfcffCEzGN222fJKOVE9tVbbyLm/zfB9ZIbMjfBrBvNLF+r18Ar5SYn+Ub6P6Ttemm/6foPHf33oy2NrMk32JLuXsGSER9eTkESCDziBkpNRlcNrnx+DjFMvQ4FUb1AT93lUrM7CQzmuUa8Aqg+ATZkEknwaS8gzgnQEYjDADjKFpLenWJzaONq5fnVlRFXgQMX5jx55xhsrNGczZvGltzvhNkgiugWmpH4eUIScj49G1j6SRaHAXtSDUpdyY+K1d+7LONn++L8p/bOOaDIgV7dytrgdycBnIN42DCaK57394IgdY8QqovPbm7qzHxRhUytkW7dochqGyDd6ivfsPxcAXebap+ak0IJ9wrOUjD6TRjTjGLQB4NAN/D9x3TwJNXlE2hxqoCiDYXDtPR+C4nzyTa40FZzyvnhksijoeYrwG7xmwB48cS75xvO9bdU8anvi8ULBFVlwZxQxP9WPgCvoBEzzyDm3bve9QApCgAr75u4xi67X1taAoAkZkwZpugUr1X7f2odFT2zYnMAO+kokijsGBw++2DKaoD9k1C/DE5g2jB+6/J2dwKQTyYKNvfKHQgD2eFV8EQ8m2VF6OCtAmy6LzbYb6lqzrk1s2ZN1nJYEgYEvJCMoxtsmgwBqlix8lN5PXwUPHRq++uStlyXgRyNX31rBvfXxjZkNRok3BtKV4ZpIpPjLAkcu+CRnQZxn8nZABSpu8lgwIuJBBMsAAMO53hpxQTPoPT8gGPh5/n8IJuQ/lozz8e23H7mzvJ2fPp4KyVnzb45tyw28zUTXm4IcZK8s+KDEp0JvWrxmtCbkv0p/kSX9wlASXoomjM2fOjT5OrGpjzmaUb+3cF+/ekwFE9VSONeo2mMQzTt1CZHbryLvH02nl9JJPY8vmigJ9FHqnTp2+OYIz9nk0JmEUPcJIN44zoB2YBpsLKxe6PmRshx5xr3FtuS7cNcnwlgBQOAFwyrJlutQ1tBFQC9x8EnrtTO7PZyKOHeWZh+J++ACHYbDv4S8HA3nuc5gXV2J92CTqxXEwwbAjsJc9lYZ31O+utD9WpgPFHsilfYG1/q3+jPTWrpNNV0YZqcfDNjGxx3lTr62Pbxg9seXRuW0A6DlOy9nATkF8uoJDQTeqF93EvjMhAfPZNS241oJh3st+YpusX/dIBqQEBPUJZxFWa3PhO1vv/Bi31ZctRLfS1WytN9/al+/AL+Xinz4/EHrO+9kQ6vb4Y+uiHRuyT+jhyYnHTp06XR9kLyJBCv6eyWCYlPtDhd2PYE35j5MXzNgdPsCbb+/NFT58Or7Cww/em3tCPbH50fAXHx6tuDtwZFxewE2W6T7+DPyC07KZ4BfMpX+UPwt+wVP+B58oJ2sDEwW62KPwjJ8Nh5V36MjxtJfVmR44ETh5X/hBbG/JB2xvPrrl0WxSE+4+Tagou9ot2CagQz9aDWBSmp8J+2tvq9yeJtpMV8h0ygmewNZoZmK7wL+yjhx9f7QjbHI6jn5wuBF+nAq/gw4Z6jvl8v8FqfgGtcc0XUtv4CFe8DWqz4Z99M7BI9nXdy5bFuWuSlwXAzj2/ocZmNMflvXxG9Rj6Bd0mk5LJhDFgRQEIShmnDjxHFZOmACUwWvgMToYFiXsTUjbwNm590A6/YIiIqQGjgEkEMVA5ODLZHFsJkAh8BzcHEQZiGoDMQNab+3NWTzCK+Pk+WeeGL3w3JPplCqrAiH2xuGMtwFxa3NaN6zOpW6TRPAZgi7vAjICCBvDoRQ0G25YzGDCB6eQcYoZZGYQDQBZEAZeEWPPPYxDywUAGMABNng1DCi88fae0Z9e35nRXe0AhM899XgGt4r/RQamgY//1vkKWgkyrInBZ9ZRAMHpbQYtINFH1t4+Er/jvaVHjVfRpxcC8MLIBOiMTjzw/NlPPsk+8I4CQuW89sbuBB7fCQK1ZZvteHrAtZDRByiBKkD8+MTp5DljuYxal8ALnpEVS6AAiQwZ7VC2vliz+sHRo2sfThBHZAXY7w+QIhNkUyDgue1bRivjnmnLtwRQOQbe5b2yy5zSsC14+OB9q9J4p1CAob4jQ3gBKId8oWAEGwVXgCxnAE+0k2wKHAlmbom+xO9ZiUJlXAuQkBUyZ6mBGQUzDt5fcjN5mZn43ctvjF59Y1c+S242hQw9//QTuYG2jJ/MhgoZpzjwRmBZmWSAIjC2yQCHiJxOysAbMQYphpKBe+9dkX1FBvDO84KVZoEEhGAGp458KUs/VWCLLL8Scu/vDOaEPH3v2SdHT2/bnEEo9aQEjTkyT6FT5tbjG2s2UR8GfyldWAKTyJPxUQpeX1fAk4J7fUcbc+fjmVLGP3hhe45jgcOFZBkxMij8kmnyqS4yuShd2NapU6dvjgR/jEXjHFbAwsTOwF7GP/1rvBr/V7tgHr3jWcEMWbGCO8o2EUZ3+J4+tWwDDtFNQyp9B+9MBMHNWwMfPcPR8cy996xIY52eYCuZgDgT+gXunw+9bK9BzgY99N7xsKcCV00u7AjsZQd5dsXdy/OEUxiovuwL79UGgae016IM+A77TFTUhB5HxP2cIktQZMuyI5SLzMDnpNG4DnQ1vag872ArcQAc1JAOVmA1Xlu2bAIABuPTk4+35eCWYtBHMF2wSpvobmUp0/1svuoj+J3LB82Eh80h+MYTlPFq2Tb+CUS9E/wVpKNXnARl4mf7ExvHdlPfJ6pTp+uV0s5737KwtiLBRCPb27IwiQzpP4xtzcnLRDJblg0ooO4+CRIwUFDm8cfWJ65WEKoIpsC5CjSdOf3JHH6Z2OdPKH8W/DJZrZ6wvvwveuqjj9ir4ZeF3il7Xx3Z1fwjQRdYSY+sfuT+0R3hQ9vbFA5bTQTr2e98Fz60cqrdfNJXXt+VmOkePgE/WkJH00ltexJ+r7rzIbVNwgKfDeZ6T/LwaPBwR/PJ+Zbff25rTiRox23hdw/1HT1TNjXfgT49Hbxjiwu8+bfgFJ1ZbR72kffTwytDvwg02ZLGc+7bd+Bw2vg5MRTvemi8r1enq9OSyogqymBAOGyCBIynu5cvy0BVztxxLsdZDnUxYBAjzXIVg9vJAiLNzXhzlGVbsiQzhpHCQFG+lD1OrIBKZU8Y4O6V+SRQw1nNskLQGU/qIsLKcWX4ccZlsjgZzGDgYA6d1iIOJQOtBddO5iyaFHWZEYyZMswQh9rgPRCDnRMtMixjSUDGHlWCEeptwIiyG/SyyBiL0tHz9MFoq5lSwFm84kBzfgWentm+OY1Cgw2/b7zx8mVdymRIMti8a+0jD6axZ+C1gOFnGakHlAYysMBvbX/g3lUJgsC6SHtzQ/Lo38qUAQYCRozZAnLvk3GlLHxvwY2WPYJH+vJqRp80efxsswZts3qBDMauC7ACZkFDwRtOvTownNUXkK1d/UBmRfkbMY7NyO4aG9UCooKIeMgIBnyTdQJeHBUA53n8ysyl4KEAgmeAreu2aFfWM8rVB+oNMF1mku+++84MwqirYCQHAAgLfgJyy7xkIw1l6FpUmVYUGQUH/NPJiHcD6GmK1ffutWebPpJeK6PuhWe35r5Q69e04J2xNS3AwokgA34XECIDygPukzKgn8n7nAxEX5EJMzJ4VUFaylK2lKCzoJJ6aYN2HQ/jQXn4Sf4EiJ3Op98EEitbQF3JizGnzzhPZF4mnjqsXfNgvntIJYvKtbF9BhBDNihnQc3Gr7YuXmbdtic2NUUcfKKUzUh599VkmdPoREdKlzyRx6dizMIkynwxgcdOnTp9ecrgT4xHRq4gFIOcES6oXjpnmIW80OVeWE8f27zbZ1sWcSqdALaFAwnoU5M69KlA9pDYIXQBPcwZsZzOhBs7iJ6gM+Etomc4H8rgANBHsIeO8U4Bn8xMCgxzLywV9C77h97nhFgaDL9hD/vM8gRl4YcJFZgnw9UydhivbfT3U1vD3ghdwYifbAcs1Bb2icmAChThs+XqyjF5oz4CQHSeyaFTwWuTAHCRXjXTrn5px0TbOHOyvpaFPaC+TjWuQGHZkZaH02dm9ulyWeqcpSwvbAD88y620KHD7yW/8Mfv6oIH0/R/p06drg+CFwLagirvBW7ASxjAXof3MHjSL63LbyZ3BZ/4brCUf/pk+KmwPX2iwNArKPBEEAQuwi/+JYiBX+zUsjFnwS/lC5rxveAUu1PZ/Ee+SdqsY9tb0Aae8SPVsWXvr0mfU2YsLEZsXr61MivAM/QZ6Df+FL+FzQv/bQHDFs6NxaM+RfSFLCj1gv14Sxew4+lW2VH0Hx9AXegifvSB8KfZ+9P0HaIH2obuzd/wztTP48nqqu+wj8QPnt3+eAYIbVsju8rEjawsPiKf2vv5A3zISb+g05W05AJRMksMJo5lZr+MhacFoU5nqp2AEaOnLgIrhb0CR5xM624554wpAkiQpWsbkIyYu2MAmcWTpUMgCTWhVJ6B73dGD8BwvDzBy7LCCQYGAlhOa6nsHYOZMeTkA8bQNOEUkR2md0shJ+yCUQIKw4i48mSl2DDNbKDBaaAJdAkcGTAtuPLJ6O1xwMigU8+VK5fnsi8R8PcEvw4fm+OVAIx7AMPzzzyZS3zwG48A1NCYeuPtvRkZT8MreGJZGWDSNvcBH8vKBET0i3YJTKjffQEIHOUKRAlAeI9gmr5gIAJ3wZ1adll1FBCR9rghQOuprZsy+p37V4Uh2fh/eT2H5Hug4wRGRqyy8TH3wQgAwS+ZLIzjR9c9PNqyaX3KTKZ+7nwn+0TWkeWHpSQQ43xP9IPMpFw6GsrAck1GugDotDrhjyw9e5Yx1KWKegbQ4Y37c4Pw4JH1xkCX0U05cCzwXR8LmjLeBbHICiC3ZMuMOeeFrNrwkLwyimclQdFMmz3+YfLFu0opDftjeJn5OHtOcGyU441ieTrG2/efezLlw8bZ+D8twOK7Wl6qH+OGlAHyaexNygAeaW/JAPmfc1hCOZlFeXtPyzbz2/1RH+33WkpaWrFP5VHSZEh5zz3Vjm6laDlk1Xf6GP/JpMueU6lojLmHHkglV2Ss1rjhiAmM4RtnTlv0n/eqm0xGfeO933t2a+ISw6J4NMmnIQnyGlsyyMjQqpUrspynt21JXqTD1alTp2+MZESZUU2MCf1vthpWZ+ZtfLIpBOwLyxa6MkASY5iOgV/sEhMiJsXgj6ASm4I+hUN0lnuGZOLA/SabTCzQwYJEZq/bM/ckTiUFztA1AvYmrVqGcjgPHBrO1XiSga0F3+C55cuPh+NE95hhZ4sx/GGaYJJ/4wecMpPOodB2/KAjBfpNTihDWfC3TXrNT1Ioj80ia9qM+NzERPAIn+kk9g5bRbbt9tAH6Fg4hjCXY6E+gkIcr8JT+Jr4rL73LA9dazliy7zCL3aLfuCE2Gdq3jbamBM+lmOX82XpuUkPusokoWAXh5I9hKfoajjeqVOnpUvsVHZy8xMbZrDvP2EzwqvwMybxvS4nha5ceVfafQ2/bIWyLgNG9iyGL9OwI/Er7OTCL1imHvALZsN65c+CX3DaKiET9N50Y/hf/A3LsfPAiWhT1ZctWxPfzz3zxOh74SdmOaETTAKrR9q/cQ9/CR7ys5zk7TCeKkfd6Sy++LNhs24JXzcnU6IO6jNss8xcgS06w5YdcFqwSHsFpdRd0gB/i65cfuedqXvpSTb8NH2nfLrGJI56+7dy9aG+HPobwz5iW7/w7JNZJn7xo9VJ2zJrK2xxE8n84Dq9sNPV6YboRD7YkiOBF4OEgdOil04LOJ0OGWEdEsfXQHEROp8cdAI/mZVhto3xZfDK4HG1cs+mg4sYWAwbg5oRWJk9w0CROghGySixREmZgmeWy3DOZdNMUgWVcrPMeL96y0hi0BhMZdAgGVAMLMsMc5nQJ+dHD0XbOMV10hcAwZdf/Pr3o1/+5qWMcIsWG6gMWIPP7wy7Iu26956VUb8H2rrkFWFcBihN8gm9/MpbuaxI4EF7ZXo9s31LAhQSuLDE0amGPkWLBeEYngJJ+oJRPCTl4LnssMNH4plDR6/oT8Y5vmcAID7rfYslwTkb95EhARQAm8EQ4BRlA5J8T3z+6bWd2Y/6GY8Y4fjDAEYMZIEqa57NggBf/fYXz2+bN/QnyH32D8NH73Z5RqAUgKHcaDbua4GuQzmrzehlYOsXykX2lDoK/OCrvtIvlq3hFZBeFzIhqOnfs5LMH23SF5QSR+palIox6gSg1Uswx5JJS0fI3yxLFPR39r/xFzLg0+zJkLRDCq6+n5QBGIA/v3v5zZD732cwlNwLFnFoBOZqxmM4pgXwjGkyaoxQhupbJBjHgbLvC77gR405skD5TFJmjgVOyVri3MCVmtVHytd3+s24UMYswcKqyx9ffTvl8oN4B3zAhx/9xTOZWdWpU6dvngR/4EstGbNcQABqsUTPwDiYRKcL9NDXbAPLue0RtSowi3HsHvdO6pq2CevHmTlJdzDO2T7K8wzsqeXlbZa5bbjqPvoGXtGNhf1sBpN63uN9noebHCa6c0jsCpjHIRKE8ndR2TOe5YxkQH9Ql2k0aR/BP0Qn0wH2ZEwsDUzmSNiDJANogfPKNXPP9pqkwlIOCDsll8KHzVc6hz4VDJR5b5JE+fpGmTWRBudlvrNx8A/R4945tNs6dep0/VHzFwUi3s0ANptvVoKFl2Fp4Ar7Gc4O7c+FqPCrgv3wi49QOmcW/Cris6l/+V/+5mvzTSpUYLLDSgDlCP5Ps3th55nwiUy64ksuWQ67nB9RVL6m5AxL5/wbL+iYSaqJaNuFaKMsVz4WH0gWrrbIJsNDPPM9H+j1t/ZkmdP03ZC0k59Bt5jgGdYTDftIWdpc9RQboI8OjfUTWXAPX9/9dFOnq9OSDUSZZXM61qcXmwPP4GIA5oZtE02SFSDbiWPJUfbpOwN00in2LOfUjKANyES1lS+tvkqVokfYM/I7jibbVG2YfaAcF6MEUKgvR7xm4IZBqyID3uBq73RqnpMRbkuwUM9hMEgdtdUzHFvLAbTNpWx1AYYM0N+8+Me8OLii4TZLl+kDABrv5o/BNICTT+OotnZq1bTggeCI2Uh1kUWkXYJn1Tbfawun2yde+E2GyM23tL4YtgnhWe3n09YsX3l0qGfwPds7rucXIWAJeNUv+9d7op36V7n4IEPO34BeP9bSTe/0m3sQHsrCaX2h7y9Fv5lhkO4/XZmQCYa/slNe4n+eyWVp0TaU38eFlzKt8CPlPPpNn7iyv+J+wGhD22hE9ouyS87VlxxN8vtq1DKg2mlL3q9d16KUU1e8R73aOGn1KxmaJktD0t6SGTJgHE6+W/myI6t/hjJQwZ+X/vRmyj2H0Aa4j21c15ZaxpVy/2ko1/Ez+rz4qCx/F3+LjLfWDxeyn9WzeF7yMEmCai57s9mMXb81+WhvVr52KIey05ZZ+ojidP3+j2+OfveH17NeZvy1zd4CMgs6der0zZOxbZwb93Sey/hcLKUuHmMnbIClylR26q4o1z2wB27AkUldoy4Nf9pyNvoj9cEYN5veaM+41wWfmi1C1zTbp/AXXsHKG9kysC+xq713Etc9K0uz4XjgX9ShiI6wRL7sjcTRQV2m0aR9VDxVlgMqzJhXm7yrZSZ/GvW4lPUzITMtKFS4nrZK2h7zOI20yvP0ftVVvf27sNozJgfVsZ5bdnvb3mEWPO/UqdPSJfbkEOfgwawEv24eYDFcSYyNaxJTp1Hhl3d6f+LX+Ds0C34VJQ7G8+V/pe0Pz+JqqDZvK6fNett0u1c5c3WCq8rht4zrhAr7U49E+y0NTL0wpc3q0XzyxuMsP+rU2tb88dSDUVY+Hv85N15WSM9M03dDynLH/r5rWE807KNm68/7M+WPeZ7O8fecTo5rGn86XU5LNhDV6eoEAMxEHjp8bPTiS6/lZV+otjfWhnTMZX506nS9kWVvZmBefmVHyr3lG7UnHLkXqFnqZEmsrIjXd+zOT8s//+oHz4yc0tT2jOnpwJ06derUqdNSpvLQ8kNMIP91JV123zQaPJufC944T3P3z3Dvt4nECK4MZ0zQ4J5xTOEKyq8H9xXV/fX9Qs936tTp2tSnaq5TEr8W2c2Ns8cZJSK4bebx8k3HO3W6nsjsSWaEnb+QMxtN7mVmzZZttBTI0h/r3+1HoE0tNfnhXKaz0FLQTp06derUqdPSokuft+uzBa5PL41GF+O68Flcn06/zsd17uJo9InrwvjzGtfZuO/0+dHoTFw+l8qlvuo+rU11nRv/ji/T+BXu0+hi8PNTV/D2Mp7Hv6tPOnXq9OWoB6KuVwqAlA4pXVxASuKb9EXLs6Sn20yzU6frkaTGWj5XKbyCrpa2WDYqtXapkqWclnFaamhZno0RLQe1r4A9y6xHtyeXdnbq1KlTp06dvh6SJVTBiLwEKwZXBjAmLoENAY5pgQ8BkfMCI5PX8LeF7qmr7r3aNet934VrMby72r2D3yb7tQJac0Et10BOhjJEppZa9lmnTl+WeiDqOiUZUdauWp/rE7jZo8o+URmIir87dboeKfePyzXln+XfMobIvADNtPXhS4XsA2cjRKchWnroNA/rz52453LSXqdOnTp16tTp66UMRA0CCp/Gv/MzrsnMpApYzGUkTV4XRqOz42yeUxPXMMPnalk+FRAZvveya0oQ5FqX9mVwZNzmpUKCOpW5tNCFD66FMsmGfVbZU3VlX4z7Zdhn2VdT+kgZFcDyrrlsq3FdXMXrTp2+a9SjEdcp3RD/u/nmdmSnpTpO0XNigpMJnMZgmVKnTtcjCTzdcqvTndpJeA+E7K9auSJP11jKJxjJarQZYh2hLrD2wP33jDasfyQzohZzImKnTp06dep0vVIGUBa4MgNl7PzXNQxSDK8MWFQQZ3jF94IYw2yX+juznuJz7hoHNeYCHBWYGF/n4rsKUmXgY+KqoMgwUDK85upQ9Z1yZXuq7TNe8f8lS3P9fI1rro+nXMXXawaqJvtreI3vu+z5cZlz/eYavzPrM/iu5LCuOZkdtGEo2506LTXqm5Vfp8RR5bDKoPj447jisx15v2p09/K78gjnyaM7O3W6HshxqidPnZ476pw15ehVQVhjwNG4S5EsMzx9RtvO5MmAMqIE2xyla0wLMDuto1OnTp06dfouUzrm9Tn+u6gc+aLL7h1/FpWjjwZfT70X5T/HvxVd9vzEb0VVXqelTXbfHW5enn/Gf+qr4Ubnc39P+278t+18fda/5z7jyq1+B9/d5G//6NRpCVEPRHXq1KlTp06dOnXq1OnPQov1RBa8ffyDD1dmjVyav997KrOkaC6zJP7OgJA//B1XBa3GX3Xq9I2QeJJAk/N1hsGo/K6+j8t3FZS6efzv9p/LacpXV1APYnX6c1APRHXq1KlTp06dOnXq1OnPQhkAGn/Wv/Nz/PfQU/HnMFMJ5T3jz/x3+5h7tv6Nrvbs4Ov8h3jV8N5Onb4pEhfKAJSr/p74zn/quwxYjf9Gw/v9Nvedfw/+Hv+Uf3fq9E1TD0R16tSpU6dOnTp16tTpz0I8kbnMpPFnfh/XtAwm++eU9zL57PjrTp2+k5QBqbgyc2p8OZ9q7rv42zK++ttn/L8Hojr9GWg0+v8BEqovgeD+4PcAAAAASUVORK5CYII=;" vertex="1" parent="1">
          <mxGeometry x="-560" y="1445" width="1186" height="628" as="geometry" />
        </mxCell>
        <mxCell id="mPk6AamhY49R-LSrALpb-2" value="&lt;font style=&quot;font-size: 34px;&quot;&gt;How Protocol Buffer Works?&lt;/font&gt;" style="html=1;outlineConnect=0;whiteSpace=wrap;fillColor=#EBEBEB;shape=mxgraph.archimate3.application;appType=proc;archiType=rounded;" vertex="1" parent="1">
          <mxGeometry x="-189.5" y="1390" width="445" height="145" as="geometry" />
        </mxCell>
      </root>
    </mxGraphModel>
  </diagram>
</mxfile>
